<?xml version="1.0" encoding="UTF-8"?>
<!DOCTYPE svg PUBLIC "-//W3C//DTD SVG 1.1//EN" "http://www.w3.org/Graphics/SVG/1.1/DTD/svg11.dtd">
<!-- Creator: CorelDRAW X7 -->
<svg xmlns="http://www.w3.org/2000/svg" xml:space="preserve" width="223.141mm" height="66.4358mm" version="1.1" style="shape-rendering:geometricPrecision; text-rendering:geometricPrecision; image-rendering:optimizeQuality; fill-rule:evenodd; clip-rule:evenodd"
viewBox="0 0 22314 6644"
 xmlns:xlink="http://www.w3.org/1999/xlink">
 <defs>
  <style type="text/css">
   <![CDATA[
    .str0 {stroke:white;stroke-width:20}
    .str2 {stroke:#12AFCB;stroke-width:7.61999}
    .str1 {stroke:#FFD666;stroke-width:7.61999}
    .fil28 {fill:none;fill-rule:nonzero}
    .fil3 {fill:#12AFCB}
    .fil22 {fill:#28E7B1}
    .fil26 {fill:#555555}
    .fil18 {fill:#664E2B}
    .fil24 {fill:#6B4434}
    .fil11 {fill:#6CDCF2}
    .fil10 {fill:#703F59}
    .fil19 {fill:#86604F}
    .fil20 {fill:#CCA18F}
    .fil21 {fill:#DDF4E4}
    .fil23 {fill:#EBC6B6}
    .fil16 {fill:#F2F3F5}
    .fil13 {fill:#F3C888}
    .fil5 {fill:#F5C2E1}
    .fil9 {fill:#F8CFDD}
    .fil14 {fill:#F9BD70}
    .fil17 {fill:#FEDAC6}
    .fil6 {fill:#FF92CD}
    .fil8 {fill:#FFD152}
    .fil1 {fill:#FFD666}
    .fil7 {fill:#FFDBEE}
    .fil15 {fill:#FFE7A4}
    .fil12 {fill:#FFEFF4}
    .fil25 {fill:#FFF2E1}
    .fil4 {fill:#FFF7F9}
    .fil0 {fill:white}
    .fil27 {fill:#12AFCB;fill-rule:nonzero}
    .fil2 {fill:url(#id0)}
   ]]>
  </style>
  <linearGradient id="id0" gradientUnits="userSpaceOnUse" x1="8494.92" y1="3270.66" x2="13815.1" y2="3270.66">
   <stop offset="0" style="stop-opacity:1; stop-color:#12AFCB"/>
   <stop offset="0.490196" style="stop-opacity:1; stop-color:#88D7E5"/>
   <stop offset="1" style="stop-opacity:1; stop-color:white"/>
  </linearGradient>
 </defs>
 <g id="Camada_x0020_1">
  <metadata id="CorelCorpID_0Corel-Layer"/>
  <g id="_376830952">
   <g id="_2686332667792">
    <path class="fil0 str0" d="M1315 10l19684 0c721,0 1305,481 1305,1075l0 4474c0,593 -584,1075 -1305,1075l-19684 0c-721,0 -1305,-482 -1305,-1075l0 -4474c0,-594 584,-1075 1305,-1075l0 0z"/>
    <path class="fil1" d="M14007 1688l0 2341c0,911 -754,1666 -1681,1666l-173 0 -864 864c-32,31 -79,63 -142,63 -47,0 -78,-32 -126,-47l-15 -16 0 0 -849 -864 -173 0c-927,0 -1681,-755 -1681,-1666l0 -2341c0,-912 754,-1666 1681,-1666l2342 0c927,0 1681,754 1681,1666l0 0z"/>
    <path class="fil2" d="M13815 1759l0 2166c0,843 -703,1540 -1568,1540l-161 0 -806 800c-30,29 -74,58 -132,58 -44,0 -74,-29 -118,-44l-14 -14 0 0 -792 -800 -161 0c-865,0 -1568,-697 -1568,-1540l0 -2166c0,-843 703,-1541 1568,-1541l2184 0c865,0 1568,698 1568,1541l0 0 0 0z"/>
    <g>
     <path class="fil3" d="M10099 5300c391,0 707,-71 707,-159 0,-88 -316,-159 -707,-159 -390,0 -706,71 -706,159 0,88 316,159 706,159z"/>
     <path class="fil3" d="M10807 2902c327,0 591,-62 591,-138 0,-75 -264,-136 -591,-136 -327,0 -592,61 -592,136 0,76 265,138 592,138z"/>
     <path class="fil3" d="M12069 4560c490,0 887,-91 887,-203 0,-112 -397,-204 -887,-204 -491,0 -888,92 -888,204 0,112 397,203 888,203z"/>
     <path class="fil4" d="M11080 1108c-9,13 -15,24 -24,34 -9,12 -19,24 -30,33 -26,20 -54,24 -85,12 -38,-16 -66,-43 -81,-82 -3,-7 -5,-15 -9,-25 -7,8 -12,13 -17,19 -18,19 -38,34 -63,43 -8,3 -17,5 -25,6 -28,5 -45,-12 -54,-30 -3,-6 -5,-13 -7,-19 -7,-2 -8,3 -11,6 -14,15 -27,31 -41,44 -16,15 -35,25 -56,29 -5,1 -10,2 -15,2 -32,2 -50,-10 -63,-44 -3,5 -5,9 -7,13 -12,43 -18,86 -18,131 1,86 29,163 70,237 10,18 21,37 33,54 47,65 111,108 184,137 21,9 43,14 66,18 28,4 57,6 86,7 89,1 172,-20 250,-64 42,-25 81,-53 114,-89 50,-54 92,-113 117,-184 3,-7 5,-15 7,-23 0,-1 -1,-3 -3,-6 -4,1 -9,1 -14,3 -15,4 -28,0 -39,-9 -10,-9 -19,-19 -27,-30 -20,-27 -36,-56 -49,-87 -4,-8 -5,-17 -15,-23 -4,5 -7,12 -13,16 -7,7 -15,12 -23,16 -15,8 -30,5 -43,-5 -13,-9 -22,-22 -31,-35 -18,-30 -36,-59 -53,-89 -4,-5 -7,-10 -11,-16l0 0zm-247 375c0,0 0,0 0,0 0,11 0,22 2,32 3,18 24,37 42,40 27,4 55,-15 62,-41 3,-10 2,-21 3,-32 1,-5 2,-10 9,-11 5,-2 12,2 13,9 1,3 2,7 2,10 2,42 -19,72 -59,85 -36,12 -78,-8 -92,-45 -9,-24 -6,-49 -3,-74 1,-5 8,-10 12,-8 3,2 8,6 8,9 1,9 1,18 1,26l0 0zm229 -66c-1,-20 11,-33 34,-35 22,-2 39,12 40,32 1,19 -13,37 -32,38 -21,2 -40,-14 -42,-35l0 0zm-386 -86c-2,-15 5,-28 16,-33 20,-9 47,3 54,23 5,15 -1,32 -14,39 -22,13 -53,-3 -56,-29l0 0z"/>
     <path class="fil5" d="M11268 974c-24,5 -42,-3 -59,-16 -16,-13 -32,-27 -49,-41 -7,-5 -14,-11 -21,-15 -7,-4 -14,-7 -22,-7 -13,-1 -26,-4 -39,-8 -14,-4 -27,-11 -33,-25 -30,-6 -58,-11 -87,-16 -18,-3 -36,-4 -55,-4 -88,-1 -168,26 -241,74 -62,42 -109,97 -142,164 -4,7 -5,13 -2,21 3,11 5,22 8,33 5,17 13,23 30,23 15,0 29,-2 41,-11 13,-9 27,-19 38,-31 17,-17 32,-36 43,-58 2,-3 5,-7 8,-10 3,-3 12,-2 14,3 2,4 3,8 4,12 2,12 3,25 6,37 5,22 19,30 41,25 36,-10 62,-33 82,-63 6,-8 10,-17 15,-25 1,-3 3,-6 6,-9 4,-4 13,-2 15,4 1,5 1,11 2,16 2,12 4,24 6,36 10,39 35,66 71,81 23,11 46,7 66,-9 21,-18 35,-40 46,-64 3,-6 5,-12 8,-17 4,-6 14,-6 19,-1 3,5 6,11 10,16 21,36 42,71 64,107 6,10 14,20 23,29 11,11 22,11 35,1 10,-7 16,-18 21,-29 4,-8 7,-15 11,-22 5,-7 16,-5 19,3 2,4 3,8 4,13 13,48 38,91 66,132 2,4 5,7 8,10 17,17 38,18 57,4 6,-5 7,-12 7,-20 1,-30 1,-60 -4,-90 -11,-61 -37,-116 -72,-167 -21,-29 -44,-57 -68,-86l0 0z"/>
     <path class="fil6" d="M10963 1755c-60,2 -116,1 -173,-13 -14,22 -22,46 -32,68 -52,115 -97,233 -129,356 8,17 24,23 40,28 45,15 92,24 140,21 46,-3 92,-3 136,-15 41,-11 83,-24 123,-37 12,-4 23,-11 33,-17 8,-5 9,-10 5,-18 -2,-4 -4,-8 -6,-12 -33,-56 -57,-116 -79,-177 -19,-53 -37,-107 -51,-162 -1,-6 -4,-13 -7,-22l0 0z"/>
     <path class="fil7" d="M11183 2251c-9,-19 -39,-66 -59,-91 -3,2 -7,3 -10,6 -20,12 -41,21 -63,28 -53,17 -107,34 -163,39 -44,4 -89,7 -134,4 -42,-4 -83,-14 -121,-33 -4,-2 -8,-3 -13,-5 -11,31 -13,61 -8,93 1,9 6,16 15,20 9,4 19,7 29,10 43,9 85,13 129,11 33,-1 66,-4 99,-6 67,-4 132,-19 196,-38 30,-9 60,-20 89,-31 5,-2 10,-5 14,-7l0 0z"/>
     <path class="fil5" d="M11085 781c17,5 34,9 54,15 44,-34 86,-72 113,-123 20,-37 22,-76 10,-115 -3,-9 -7,-17 -12,-24 -5,-7 -14,-8 -20,-1 -7,7 -13,15 -18,23 -7,13 -12,27 -19,41 -2,5 -4,11 -8,16 -2,3 -7,6 -11,5 -3,-1 -7,-5 -8,-8 -2,-5 -2,-11 -3,-16 -4,-19 -8,-38 -12,-57 -3,-10 -7,-20 -17,-29 -2,3 -6,6 -7,9 -3,11 -5,23 -8,34 -1,4 -1,9 -3,12 -2,3 -6,6 -8,6 -4,0 -10,-2 -11,-5 -5,-9 -7,-18 -11,-27 -1,-5 -4,-9 -8,-14 -8,14 -8,29 -9,42 -2,14 -3,29 -2,43 2,58 6,115 18,173l0 0z"/>
     <path class="fil4" d="M11515 1808c-3,-12 -12,-17 -20,-22 -5,-3 -9,-5 -14,-9 -5,-4 -4,-14 3,-17 5,-3 11,-4 17,-6 6,-2 13,-5 20,-7 5,-3 8,-7 6,-13 -1,-6 -5,-10 -11,-11 -4,0 -8,1 -12,1 -6,0 -11,-2 -13,-7 -2,-6 0,-11 7,-16 2,-1 4,-3 6,-4 19,-13 22,-22 15,-49 -10,-2 -20,3 -29,7 -14,6 -28,14 -42,21 -7,3 -12,8 -15,14 -3,5 -8,8 -14,6 -6,-2 -9,-7 -9,-12 -1,-5 1,-10 1,-15 0,-8 0,-16 -1,-24 -1,-7 -6,-12 -13,-16 -8,-4 -16,-1 -19,7 -2,5 -4,10 -5,16 -2,18 -3,36 -5,55 0,6 1,12 0,18 -5,34 3,65 18,95 15,31 40,44 75,42 7,-11 2,-21 -1,-31 -1,-5 -4,-9 -5,-14 -2,-8 5,-15 12,-12 5,1 10,4 15,6 11,4 21,4 33,-3l0 0z"/>
     <path class="fil4" d="M11347 1533c9,2 14,4 19,4 39,-1 76,-9 104,-38 31,-30 45,-67 34,-111 -5,-22 -20,-34 -42,-39 -17,-4 -29,3 -35,20 -3,10 -6,21 -10,32 -14,39 -33,75 -55,109 -5,6 -8,13 -15,23l0 0 0 0z"/>
     <path class="fil4" d="M10350 1482c-9,1 -11,7 -12,13 0,11 1,22 2,32 1,15 0,21 -7,23 -10,2 -13,-6 -18,-13 -5,-6 -9,-13 -15,-18 -4,-3 -9,-6 -14,-2 -3,3 -5,8 -4,12 1,8 4,17 7,25 1,4 5,8 5,12 0,3 -1,9 -4,11 -3,2 -9,2 -12,1 -8,-6 -14,-13 -25,-12 -4,1 -8,2 -11,3 -2,7 2,10 5,12 4,3 8,4 12,6 11,7 11,16 1,23 -5,2 -10,4 -14,7 -3,3 -6,6 -10,11 4,3 7,6 10,8 19,7 38,8 57,7 11,-1 21,-2 32,-1 21,0 39,-5 53,-23 13,-18 26,-35 39,-53 5,-8 9,-17 8,-28 -1,-3 -3,-7 -5,-8 -4,-1 -10,-2 -12,1 -7,7 -13,16 -19,24 -5,6 -8,15 -18,12 -8,-2 -8,-10 -9,-17 -2,-20 -5,-39 -14,-57 -2,-4 -6,-8 -8,-11l0 0z"/>
     <path class="fil4" d="M10454 1345c0,-13 -1,-22 -1,-31 -4,-49 -1,-97 10,-145 0,-2 1,-5 2,-7 6,-19 -5,-33 -19,-43 -12,-9 -33,-9 -46,3 -17,16 -28,35 -28,58 -1,54 19,100 51,142 4,6 10,10 15,14 4,3 8,5 16,9l0 0z"/>
     <path class="fil6" d="M10319 2344c-6,13 -4,26 1,37 18,42 45,76 86,96 2,1 4,1 6,1 6,-7 9,-16 5,-26 -12,-35 -29,-66 -57,-91 -8,-7 -19,-12 -29,-17 -3,-2 -8,0 -12,0z"/>
     <path class="fil6" d="M11087 2619c-4,10 -9,20 -13,31 -6,19 -13,38 -19,58 -3,10 -4,20 -2,31 2,7 9,11 17,9 8,-3 15,-9 20,-16 18,-24 26,-51 25,-82 -1,-17 -8,-28 -28,-31l0 0z"/>
     <path class="fil8" d="M11051 835c11,-12 13,-24 12,-37 -2,-18 -7,-36 -13,-54 -10,-31 -25,-60 -45,-87 -8,-10 -17,-20 -28,-27 -12,-10 -24,-7 -33,7 -10,16 -14,35 -14,53 -2,37 1,73 6,109 2,10 6,18 17,21 32,9 64,16 98,15l0 0z"/>
     <path class="fil8" d="M11149 878c23,19 46,38 69,57 6,5 12,10 20,13 13,6 23,3 32,-9 2,-2 3,-6 5,-9 20,-36 36,-75 48,-114 4,-13 8,-26 2,-39 -9,-5 -18,-2 -26,-1 -25,2 -109,25 -134,36 -2,10 -5,21 -8,32 -2,11 -5,22 -8,34l0 0z"/>
     <path class="fil8" d="M11072 857c13,9 25,12 37,14 11,1 17,-2 21,-12 3,-10 4,-19 7,-28 -11,-15 -26,-20 -42,-23 -12,14 -14,33 -23,49l0 0z"/>
     <path class="fil9" d="M11189 1427c47,0 83,43 79,89 -2,20 -12,37 -26,49 -12,12 -29,20 -45,23 -37,6 -72,-32 -79,-66 -11,-45 23,-95 71,-95z"/>
     <path class="fil9" d="M10512 1383c1,-7 2,-15 5,-21 6,-35 37,-60 73,-58 40,2 81,27 82,72 1,48 -46,83 -91,78 -33,-3 -70,-35 -69,-71z"/>
     <path class="fil10" d="M10993 1771c16,5 25,14 34,22 27,22 54,44 86,61 24,13 50,21 78,21 56,0 110,-8 159,-38 4,-2 8,-3 12,-6 5,7 9,12 14,18 19,21 43,36 73,37 4,0 9,0 13,0 17,-3 25,-11 26,-28 1,-5 0,-10 0,-17 5,-1 10,-2 15,-4 4,-1 9,-1 13,-2 26,-9 32,-24 17,-46 -3,-5 -7,-9 -11,-14 5,-3 9,-7 13,-9 17,-11 19,-23 13,-44 -2,-6 -7,-12 -11,-19 2,-6 5,-12 7,-19 4,-13 3,-26 0,-40 -3,-14 -12,-20 -26,-20 -15,0 -28,6 -41,11 -12,6 -23,12 -34,17 -10,-3 -9,-12 -12,-18 -6,-14 -16,-24 -32,-29 -18,-5 -33,1 -41,19 -4,9 -7,18 -8,28 -3,27 -5,55 -5,82 0,25 2,49 3,76 -24,19 -53,31 -85,35 -23,4 -47,5 -70,6 -22,1 -42,-4 -61,-14 -32,-15 -59,-36 -85,-58 -11,-8 -21,-18 -33,-29 10,-7 22,-6 32,-10 11,-3 22,-6 33,-9 11,-4 23,-8 34,-13 11,-4 21,-9 32,-14 10,-5 20,-11 30,-16 10,-6 20,-12 29,-18 10,-6 19,-13 28,-20 9,-7 18,-14 27,-21 9,-9 18,-17 27,-26 8,-8 16,-16 24,-24 8,-9 15,-18 22,-26 57,16 107,3 151,-34 37,-31 52,-74 46,-123 -5,-44 -36,-72 -80,-71 -4,0 -7,0 -12,0 -1,-5 -2,-9 -1,-13 5,-75 -14,-144 -48,-210 -23,-45 -53,-86 -87,-123 -4,-5 -9,-11 -15,-17 3,-6 5,-13 8,-19 19,-34 34,-70 47,-107 4,-11 7,-23 9,-36 2,-6 2,-14 1,-21 -2,-17 -12,-27 -30,-28 -8,-1 -17,0 -26,1 -24,6 -49,12 -74,17 -3,1 -7,1 -14,2 5,-6 8,-10 11,-14 15,-19 32,-37 46,-58 31,-47 36,-99 19,-152 -4,-11 -10,-22 -17,-30 -14,-18 -35,-18 -51,-2 -7,7 -13,16 -20,24 -3,5 -6,10 -11,18 -3,-5 -5,-7 -6,-10 -3,-9 -5,-19 -9,-27 -5,-10 -10,-20 -16,-28 -14,-16 -29,-15 -41,3 -3,4 -5,9 -9,15 -4,-4 -6,-7 -9,-10 -14,-12 -28,-9 -36,8 -4,8 -7,16 -8,25 -3,23 -5,46 -6,69 0,18 2,37 3,56 0,4 0,8 0,17 -7,-9 -10,-14 -14,-18 -9,-11 -17,-23 -26,-33 -6,-7 -13,-12 -21,-17 -21,-12 -44,-7 -58,13 -15,20 -20,43 -21,68 -2,39 0,79 8,119 0,2 0,5 0,9 -5,1 -10,2 -15,2 -94,0 -178,30 -255,82 -53,36 -96,82 -128,138 -12,19 -20,40 -30,59 -3,6 -6,11 -9,17 -6,-4 -9,-8 -14,-11 -26,-20 -57,-18 -81,4 -19,17 -31,39 -33,64 -3,20 -2,39 4,58 7,28 16,54 31,79 22,36 36,48 76,65 2,7 4,15 7,24 24,78 60,149 111,213 9,10 18,21 29,30 40,35 84,65 133,85 5,2 10,5 14,7 1,1 1,2 3,4 -2,3 -4,6 -7,9 -26,23 -53,44 -85,58 -45,19 -91,23 -139,6 -31,-11 -57,-30 -78,-56 -18,-23 -35,-47 -51,-71 -7,-8 -12,-17 -12,-30 25,-21 46,-47 62,-77 8,-14 12,-29 9,-46 -4,-17 -21,-29 -37,-25 -4,1 -9,3 -12,5 -5,3 -9,6 -14,10 -3,-5 -5,-10 -7,-14 -5,-12 -9,-25 -16,-36 -13,-19 -33,-19 -46,0 -5,8 -8,17 -13,27 -5,-2 -11,-4 -17,-5 -18,-2 -31,7 -35,25 -2,8 -2,15 -4,24 -6,2 -13,2 -20,5 -18,6 -24,20 -17,38 2,5 6,10 9,16 -4,6 -9,11 -12,17 -6,13 -2,27 10,35 5,3 11,7 17,8 15,3 31,8 46,7 26,-2 51,4 73,6 23,32 44,63 67,92 34,44 78,71 133,77 37,5 72,0 106,-14 19,-8 36,-19 54,-29 5,-3 10,-6 14,-9 6,6 1,11 -1,15 -16,40 -34,80 -50,120 -36,88 -63,179 -88,270 -8,29 -12,59 -10,89 2,30 17,48 45,56 12,3 24,7 37,10 -50,64 -154,120 -222,116 -3,-6 -5,-13 -7,-19 -13,-38 -31,-72 -60,-99 -8,-7 -17,-13 -26,-19 -3,-2 -7,-4 -12,-5 -25,-9 -49,-2 -49,33 0,14 2,27 8,39 18,40 45,72 81,95 9,6 20,9 29,12 9,4 18,2 24,-6 5,-5 10,-6 16,-7 57,-4 108,-23 155,-54 35,-23 66,-50 94,-81 97,5 193,-2 289,-16 9,6 13,15 16,26 8,25 15,51 23,76 14,42 28,84 42,126 2,6 3,12 5,19 -6,7 -11,15 -11,25 0,8 -5,15 -7,23 -8,21 -16,43 -23,65 -4,14 -6,28 -3,42 5,28 28,40 53,27 9,-5 17,-12 24,-20 25,-33 35,-71 28,-113 -2,-13 -8,-24 -20,-29 -11,-6 -14,-15 -18,-25 -20,-61 -42,-122 -59,-185 -5,-21 -13,-42 -20,-64 4,-2 8,-3 12,-4 31,-10 63,-18 94,-28 24,-8 47,-18 71,-27 4,-2 8,-4 11,-6 6,-4 8,-11 5,-17 -3,-6 -7,-12 -11,-18 -19,-29 -38,-57 -57,-86 -44,-68 -76,-142 -103,-218 -16,-47 -30,-95 -45,-142 -1,-3 -1,-6 -3,-14l0 0zm87 -663c4,6 7,11 11,16 17,30 35,59 53,89 9,13 18,26 31,35 14,10 28,13 43,5 8,-4 16,-9 23,-16 6,-4 9,-11 13,-16 10,6 11,15 14,23 14,31 30,60 50,87 8,11 17,21 27,30 11,9 24,13 39,9 5,-2 10,-2 14,-3 2,3 3,5 3,6 -2,8 -4,16 -7,23 -25,70 -67,130 -117,184 -33,35 -72,64 -114,88 -78,45 -161,65 -250,65 -29,-1 -58,-3 -86,-8 -23,-3 -45,-9 -66,-17 -73,-29 -137,-72 -183,-137 -13,-17 -24,-36 -34,-54 -41,-74 -69,-151 -70,-237 0,-45 5,-88 18,-131 1,-4 4,-8 7,-13 13,33 31,46 62,44 6,0 11,-1 16,-2 22,-4 40,-14 56,-29 14,-13 27,-29 41,-44 3,-3 4,-8 11,-6 2,6 4,13 7,19 9,18 26,35 54,30 8,-1 17,-3 25,-6 25,-9 45,-25 63,-44 5,-5 10,-10 17,-18 4,10 6,17 9,25 15,39 43,66 81,82 31,12 59,8 85,-12 11,-9 21,-21 30,-33 9,-10 15,-21 24,-34l0 0zm188 -134c24,29 47,57 68,86 36,51 61,106 72,167 5,30 5,60 4,90 0,7 -1,15 -7,19 -19,15 -40,14 -56,-3 -3,-3 -7,-7 -9,-10 -28,-41 -53,-84 -66,-133 -1,-4 -2,-8 -4,-12 -3,-9 -14,-10 -19,-3 -4,7 -7,14 -10,21 -6,12 -12,23 -22,30 -12,10 -24,10 -35,-1 -9,-9 -17,-19 -23,-29 -22,-36 -43,-72 -64,-107 -4,-6 -6,-11 -10,-16 -5,-6 -15,-5 -19,1 -3,5 -5,11 -7,17 -12,24 -26,46 -47,64 -20,16 -43,19 -66,9 -36,-15 -61,-42 -70,-81 -3,-12 -5,-24 -7,-36 0,-6 -1,-11 -2,-16 -2,-6 -11,-8 -15,-4 -3,3 -5,5 -6,9 -5,8 -9,17 -14,25 -21,30 -47,53 -83,63 -22,5 -35,-3 -41,-25 -3,-12 -4,-25 -6,-37 -1,-4 -2,-9 -4,-12 -2,-5 -11,-6 -14,-3 -3,3 -6,6 -8,10 -11,22 -26,40 -43,57 -11,12 -25,23 -38,32 -12,8 -26,11 -40,11 -17,0 -26,-7 -31,-23 -3,-11 -5,-23 -8,-34 -2,-7 -1,-13 2,-20 33,-67 80,-123 142,-164 73,-48 153,-75 241,-74 19,0 37,1 55,4 29,5 57,10 87,16 6,14 19,21 33,25 13,4 26,7 39,8 9,0 16,2 22,7 8,4 15,10 21,15 17,14 33,28 49,41 17,13 35,21 59,16l0 0zm-305 781c3,9 6,16 7,22 14,55 32,109 51,162 22,61 46,121 79,177 2,4 5,8 6,12 4,8 3,13 -5,18 -10,6 -21,13 -32,17 -41,13 -82,26 -124,37 -44,12 -90,12 -136,15 -48,3 -94,-6 -140,-21 -16,-5 -32,-11 -40,-28 32,-123 77,-241 129,-356 10,-22 18,-46 32,-68 57,14 113,15 173,13l0 0zm220 496c-4,2 -9,5 -13,7 -30,11 -60,22 -90,31 -64,19 -128,35 -195,39 -34,1 -67,4 -100,5 -43,2 -86,-2 -128,-11 -10,-3 -20,-6 -30,-10 -9,-4 -14,-11 -15,-20 -5,-32 -3,-62 8,-93 6,2 10,3 13,5 39,19 79,29 121,33 45,3 90,0 134,-4 57,-5 110,-22 164,-39 21,-7 42,-16 62,-28 3,-3 7,-4 10,-5 20,24 51,71 59,90l0 0zm-98 -1470c-12,-58 -16,-116 -18,-173 -1,-14 0,-29 1,-43 2,-13 2,-28 10,-42 4,5 7,9 8,14 4,9 6,18 11,27 1,3 7,5 10,5 3,0 7,-3 8,-6 2,-3 3,-8 4,-12 3,-11 5,-23 8,-34 1,-3 5,-6 7,-9 10,9 14,19 16,29 5,19 9,38 13,57 1,5 1,11 3,16 1,3 5,7 8,8 4,1 9,-2 11,-5 4,-4 6,-11 8,-16 7,-14 12,-28 19,-41 5,-8 11,-16 18,-23 6,-7 15,-6 20,1 5,8 9,15 12,24 12,40 10,79 -10,115 -27,51 -69,89 -114,123 -18,-6 -36,-10 -53,-15l0 0zm430 1027c-11,7 -22,7 -33,3 -5,-2 -10,-5 -15,-6 -7,-3 -14,4 -12,12 1,5 4,9 5,14 3,10 8,21 1,31 -35,2 -60,-11 -75,-42 -15,-30 -23,-61 -18,-95 1,-6 0,-12 0,-18 2,-19 3,-37 5,-55 1,-6 3,-11 5,-16 3,-8 11,-11 19,-7 7,4 12,9 13,16 2,8 1,16 1,24 0,5 -2,10 -1,15 0,5 3,10 9,12 6,2 11,-1 14,-6 3,-6 8,-11 15,-14 14,-7 28,-15 42,-21 9,-4 19,-9 29,-7 7,27 4,36 -15,49 -2,1 -4,2 -6,4 -7,5 -9,10 -7,16 2,5 7,7 13,7 4,0 8,-1 13,-1 5,1 9,5 10,11 2,6 -1,10 -6,13 -7,2 -13,5 -20,7 -6,2 -12,3 -17,6 -7,3 -8,13 -3,17 5,4 10,6 14,9 8,5 17,9 20,22l0 0zm-464 -973c-34,1 -66,-6 -98,-15 -11,-3 -15,-11 -17,-21 -5,-36 -8,-72 -6,-109 0,-18 4,-37 14,-53 9,-14 21,-17 33,-7 11,7 20,17 28,27 20,27 35,56 45,87 6,18 11,36 13,54 1,13 -1,25 -12,37l0 0zm98 43c3,-12 6,-23 8,-34 3,-11 6,-22 8,-32 25,-11 109,-34 134,-37 8,0 17,-3 26,2 7,13 2,26 -2,38 -12,40 -28,79 -48,115 -1,3 -3,7 -5,10 -9,11 -19,14 -32,8 -7,-4 -14,-8 -20,-13 -23,-19 -46,-38 -69,-57l0 0zm199 655c6,-10 10,-17 14,-23 22,-34 41,-70 55,-109 4,-10 7,-22 10,-33 6,-16 18,-23 35,-19 22,5 37,17 42,39 11,44 -3,81 -33,111 -29,29 -66,37 -104,38 -6,0 -11,-2 -20,-4l0 0 1 0zm-998 -52c2,4 6,8 8,12 9,18 12,37 14,57 1,7 1,15 9,17 10,3 13,-6 18,-12 6,-8 12,-17 19,-24 2,-3 9,-2 12,-1 2,1 5,5 5,8 1,11 -3,20 -8,28 -13,18 -26,35 -39,53 -14,18 -32,23 -53,23 -11,-1 -21,0 -32,1 -19,1 -38,-1 -57,-7 -3,-2 -6,-5 -10,-8 4,-5 7,-8 10,-11 5,-3 9,-4 14,-7 10,-7 10,-16 -1,-23 -4,-2 -8,-3 -12,-6 -3,-2 -7,-5 -5,-12 3,-1 7,-2 11,-3 11,-1 17,6 26,12 2,1 8,1 11,-1 3,-2 4,-8 4,-11 0,-4 -4,-8 -5,-12 -3,-9 -6,-17 -7,-25 -1,-4 1,-9 4,-12 5,-4 10,-1 14,2 6,5 11,12 15,18 5,7 8,15 18,13 7,-2 8,-8 7,-23 -1,-10 -2,-21 -1,-32 0,-6 2,-12 11,-14l0 0zm104 -136c-8,-4 -12,-6 -15,-9 -6,-4 -12,-8 -16,-14 -32,-42 -52,-88 -51,-142 0,-23 11,-42 28,-58 13,-12 34,-12 46,-3 14,10 25,23 19,43 -1,2 -2,5 -2,7 -11,48 -14,97 -10,145 0,9 1,18 1,31zm-135 999c4,0 9,-2 12,0 11,5 21,10 30,17 28,24 44,56 57,91 3,10 1,18 -6,26 -2,0 -4,0 -6,-1 -41,-21 -68,-54 -86,-96 -5,-11 -6,-24 -1,-37zm769 275c19,3 26,14 27,31 1,31 -7,58 -25,82 -5,7 -11,13 -20,16 -7,2 -14,-2 -16,-9 -3,-11 -2,-21 1,-32 7,-19 13,-38 20,-57 3,-11 8,-21 13,-31l0 0zm-16 -1762c9,-16 11,-35 23,-49 16,3 31,8 42,23 -3,9 -4,18 -7,27 -4,11 -10,14 -21,13 -12,-2 -24,-5 -37,-14z"/>
     <path class="fil10" d="M10833 1483c0,-8 0,-17 -1,-26 0,-3 -5,-7 -8,-9 -4,-2 -11,3 -12,8 -3,25 -6,50 3,74 14,37 56,57 92,45 40,-13 61,-43 59,-85 0,-3 -1,-7 -2,-10 -1,-7 -8,-11 -14,-9 -6,1 -8,6 -8,11 -1,11 0,22 -3,32 -7,26 -35,45 -62,41 -18,-3 -39,-22 -42,-40 -2,-10 -2,-21 -2,-32 0,0 0,0 0,0z"/>
     <path class="fil10" d="M11062 1417c2,21 21,37 42,35 19,-1 33,-19 32,-38 -1,-20 -18,-34 -40,-32 -23,2 -35,15 -34,35z"/>
     <path class="fil10" d="M10676 1331c3,26 34,42 56,29 13,-7 19,-24 14,-39 -7,-20 -34,-32 -54,-23 -11,5 -18,18 -16,33l0 0z"/>
     <path class="fil11" d="M11707 3670c-11,22 -14,41 -12,61 1,34 13,48 47,55 37,8 73,15 110,22 42,9 84,18 126,27 10,-14 17,-27 26,-37 11,-13 23,-27 37,-36 38,-28 78,-26 117,1 21,15 35,35 45,58 3,8 5,16 8,26 7,1 14,3 21,3 62,-3 124,-6 186,-10 16,-1 32,-5 47,-9 13,-3 27,-6 37,-18 3,-21 -7,-40 -10,-58 -10,-10 -20,-5 -29,-5 -31,2 -60,-3 -85,-21 -42,-27 -53,-81 -24,-122 17,-25 41,-42 74,-39 6,0 12,-1 18,-1 -1,-30 -25,-132 -46,-195 -8,-1 -18,-4 -27,-6 -22,-5 -43,-12 -62,-25 -23,-17 -37,-39 -37,-68 0,-36 7,-69 34,-94 11,-10 24,-17 38,-26 -2,-31 -10,-63 -24,-93 -30,-3 -58,3 -87,5 -6,9 -12,18 -18,27 -9,13 -20,25 -34,34 -29,15 -58,14 -84,-6 -16,-13 -30,-29 -37,-49 -2,-7 -5,-14 -7,-20 -28,-10 -54,-20 -82,-29 -13,18 -16,38 -28,56 9,6 15,10 21,14 24,17 39,40 48,68 15,53 -21,114 -76,129 -20,6 -39,3 -58,-3 -9,-3 -18,-8 -29,-13 -20,33 -29,68 -42,102 -13,34 -26,69 -39,105 5,2 9,5 13,6 46,8 66,41 76,80 8,31 1,59 -25,80 -12,9 -23,19 -36,26 -24,13 -49,17 -75,5 -4,-2 -9,-4 -16,-7l0 0 0 0zm293 -191c-2,-48 22,-88 63,-109 34,-19 74,-11 102,16 37,37 37,112 15,144 -13,20 -30,36 -56,38 -39,3 -73,-9 -100,-37 -16,-16 -23,-35 -24,-52z"/>
     <path class="fil12" d="M12300 2438c-52,-18 -103,-45 -164,-30 -6,14 -10,28 -16,41 -8,21 -17,41 -27,61 -10,22 -26,41 -47,55 -11,8 -22,16 -33,24 -77,60 -204,48 -278,-18 -13,-11 -23,-26 -34,-38 -10,1 -7,8 -6,14 4,59 19,115 46,168 34,66 70,129 122,183 78,79 172,123 283,131 125,10 244,-14 358,-65 80,-36 154,-80 221,-135 80,-66 136,-148 171,-244 1,-5 1,-10 2,-15 -24,-6 -48,-13 -74,-19 -3,5 -7,11 -9,17 -33,82 -92,138 -171,176 -176,64 -317,-52 -337,-183 -6,-37 -11,-73 -5,-110 0,-3 -1,-7 -2,-13l0 0zm-205 202c12,1 30,3 48,5 45,5 89,10 133,14 13,1 21,5 27,15 6,11 11,22 10,35 -2,36 -10,72 -30,104 -21,34 -50,52 -90,55 -59,4 -108,-12 -125,-87 -6,-33 -12,-65 -19,-97 -7,-36 -2,-43 35,-44 1,0 3,0 11,0l0 0 0 0z"/>
     <path class="fil12" d="M11690 2265c-31,41 -29,84 -19,130 17,84 72,139 144,180 22,12 46,18 71,17 45,-1 86,-12 120,-42 4,-3 7,-7 12,-9 31,-17 47,-46 59,-77 14,-32 26,-66 32,-101 6,-37 4,-73 -6,-108 -6,-24 -19,-43 -37,-58 -23,-20 -50,-32 -78,-41 -12,-4 -22,-2 -30,8 -8,9 -18,17 -25,27 -35,51 -87,70 -147,73 -30,2 -61,1 -96,1l0 0zm184 94c-1,-10 2,-22 10,-34 13,-20 32,-25 54,-21 18,2 28,15 32,39 1,7 2,15 1,22 -4,26 -25,43 -52,42 -25,-1 -43,-19 -45,-48l0 0z"/>
     <path class="fil12" d="M12533 2259c-14,-2 -26,2 -37,6 -78,23 -169,124 -162,233 2,22 5,44 8,65 17,90 109,183 242,161 31,-4 60,-15 86,-33 36,-25 66,-55 91,-91 17,-25 20,-38 22,-67 -18,-10 -37,-21 -56,-32 -65,-39 -117,-91 -154,-156 -11,-19 -20,-39 -29,-59 -4,-9 -7,-18 -11,-27l0 0zm-81 228c-1,-27 26,-56 52,-56 29,-1 59,28 61,58 1,28 -24,51 -56,52 -33,1 -56,-21 -57,-54z"/>
     <path class="fil12" d="M12521 2141c-12,-3 -23,-5 -33,-8 -50,-13 -87,-40 -112,-85 -22,-40 -33,-84 -40,-128 -2,-12 -4,-24 -6,-35 -13,-1 -13,9 -16,15 -19,37 -43,71 -69,104 -42,53 -96,91 -159,117 -12,5 -25,10 -41,17 10,7 16,12 23,16 41,28 65,65 74,114 6,31 7,63 3,95 29,5 57,9 84,15 28,6 55,16 83,25 43,-92 106,-160 212,-182 -1,-26 -2,-51 -3,-80l0 0 0 0z"/>
     <path class="fil12" d="M11287 3494c23,2 37,3 52,4 9,1 17,2 21,11 3,9 0,17 -11,25 -6,5 -12,8 -18,13 -5,5 -11,10 -15,16 -2,3 -1,9 1,13 1,2 7,4 10,3 9,-4 18,-8 27,-12 7,-4 15,-10 23,-12 5,-1 13,0 16,3 4,3 6,11 5,16 -2,10 -7,18 -10,28 -3,7 3,14 12,14 10,1 20,-1 24,-13 3,-11 7,-21 22,-19 12,2 13,13 15,23 4,18 26,28 43,19 4,-2 7,-7 9,-11 6,-23 10,-46 6,-69 -4,-26 -8,-51 -13,-76 -1,-9 -5,-16 -10,-23 -14,-17 -29,-33 -32,-56 -1,-7 -7,-14 -12,-18 -33,-26 -70,-43 -112,-43 -22,0 -29,10 -26,31 2,12 7,23 17,31 8,6 16,11 24,17 8,5 14,11 11,21 -3,8 -9,11 -17,12 -30,3 -43,25 -62,52l0 0z"/>
     <path class="fil12" d="M12798 2814c21,8 40,7 58,7 31,0 62,-5 92,-15 27,-9 52,-23 72,-44 27,-29 42,-63 31,-104 -4,-16 -6,-34 -12,-49 -6,-13 -15,-26 -25,-36 -14,-17 -34,-19 -55,-14 -5,1 -11,5 -15,10 -6,7 -11,16 -15,25 -28,76 -67,146 -123,207 -3,2 -4,6 -8,13l0 0 0 0z"/>
     <path class="fil12" d="M12650 3720c13,-4 14,-14 16,-24 5,-20 11,-27 20,-25 16,5 14,18 14,30 1,11 1,22 3,33 1,6 6,11 8,15 15,3 22,-6 28,-16 5,-9 7,-20 13,-30 2,-4 9,-9 14,-9 5,0 11,4 14,8 5,6 6,14 11,20 6,8 14,16 23,22 3,3 10,2 14,1 7,-3 7,-10 5,-16 -6,-17 -13,-34 -20,-51 -4,-9 -10,-17 -13,-26 -4,-11 7,-24 18,-21 11,3 22,7 32,11 12,6 24,12 37,17 8,2 16,1 27,2 -6,-24 -19,-40 -36,-52 -6,-4 -14,-5 -21,-6 -7,-2 -15,-2 -22,-4 -8,-2 -13,-7 -12,-16 1,-8 8,-12 15,-14 8,-1 15,0 23,0 31,-1 53,-18 68,-44 7,-11 1,-22 -12,-24 -1,0 -3,-1 -4,-1 -63,-1 -123,11 -177,47 -26,17 -45,40 -60,68 -10,19 -20,39 -30,58 -6,12 -7,24 -3,36 1,4 4,8 7,11l0 0z"/>
     <path class="fil12" d="M11660 2567c-3,-36 -6,-71 -9,-107 -1,-8 -4,-16 -7,-24 -19,-53 -19,-106 -3,-159 3,-8 4,-16 4,-24 0,-25 -13,-38 -38,-40 -21,-1 -39,5 -55,19 -28,26 -42,57 -40,95 2,37 9,73 29,105 28,48 62,91 102,130 3,2 6,4 9,6 1,1 2,0 8,-1l0 0z"/>
     <path class="fil13" d="M12762 2843c21,4 36,7 52,10 16,4 31,9 40,23 27,43 55,85 80,129 9,16 16,36 19,55 8,39 -9,57 -51,54 -12,0 -24,-4 -35,-9 -13,-7 -26,-15 -38,-23 -9,-5 -16,-12 -25,-16 -17,-10 -29,-4 -32,14 -2,10 -2,20 -4,29 -5,18 -9,36 -17,52 -19,39 -33,28 -52,9 -10,-10 -19,-20 -30,-28 -15,-11 -31,-9 -43,6 -7,8 -13,18 -19,27 -5,8 -10,17 -15,25 -12,17 -29,24 -49,20 -34,-6 -63,-21 -77,-55 -4,-11 -8,-21 -10,-32 -7,-28 -14,-57 -21,-85 -1,-6 0,-12 -1,-20 121,-43 232,-101 328,-185l0 0z"/>
     <path class="fil13" d="M11495 2827c1,-11 3,-23 8,-32 7,-13 14,-26 25,-36 30,-30 62,-59 95,-88 13,-12 29,-22 50,-28 9,22 16,42 25,60 37,82 81,159 145,224 23,23 24,35 7,61 -22,38 -55,63 -97,76 -43,13 -72,-1 -89,-42 -7,-19 -19,-26 -39,-25 -6,1 -13,1 -19,0 -27,-2 -38,-16 -31,-41 3,-9 8,-18 13,-27 4,-8 10,-16 14,-25 6,-13 -1,-26 -15,-27 -9,-1 -17,1 -26,0 -11,-1 -22,-1 -33,-4 -24,-7 -35,-22 -33,-46l0 0z"/>
     <path class="fil13" d="M11725 2161c-5,4 -11,7 -22,14 11,-43 23,-80 39,-116 40,-88 100,-160 171,-224 48,-43 101,-75 161,-97 49,-17 98,-27 149,-32 47,-5 95,-3 140,9 53,14 106,28 157,47 68,26 129,63 178,117 11,12 22,28 37,36 24,13 38,34 52,55 33,49 60,101 84,155 42,97 62,198 58,304 -1,34 -6,67 -17,99 -33,5 -61,-3 -85,-17 -7,-40 -12,-77 -19,-115 -8,-46 -28,-85 -65,-115 -44,-36 -95,-58 -152,-62 -9,-1 -17,-2 -25,-2 -11,-33 -12,-42 -3,-76 5,-23 2,-29 -21,-33 -16,-4 -32,-6 -47,-9 -39,-9 -67,-31 -87,-65 -17,-30 -27,-62 -33,-96 -7,-37 -13,-75 -13,-113 0,-8 -2,-17 -4,-25 -4,-10 -18,-13 -25,-7 -10,9 -19,19 -24,32 -10,25 -21,50 -34,74 -53,99 -130,171 -241,205 -29,8 -57,16 -88,7 -7,-2 -14,-2 -22,-3 -73,-7 -141,4 -199,53z"/>
     <path class="fil13" d="M12576 2256c2,-1 4,-3 6,-2 74,1 129,36 172,92 4,5 6,11 8,16 15,40 20,83 27,129 -98,-33 -210,-159 -213,-235l0 0z"/>
     <path class="fil13" d="M11714 2230c31,-64 132,-105 207,-81 -7,9 -13,17 -19,26 -19,25 -43,40 -73,47 -37,10 -74,8 -115,8z"/>
     <path class="fil14" d="M12123 4325c59,16 142,-4 182,-42 0,-10 -7,-15 -16,-17 -37,-9 -74,-10 -111,-4 -16,3 -30,10 -42,22 -11,11 -18,23 -13,41l0 0z"/>
     <path class="fil14" d="M11440 4075c8,-9 9,-17 5,-25 -22,-41 -46,-80 -81,-112 -11,-10 -23,-19 -41,-17 -2,7 -5,14 -4,21 1,12 3,24 7,35 16,41 67,84 114,98l0 0z"/>
     <path class="fil12" d="M12398 3212c-1,-2 -2,-3 -2,-5 0,1 0,2 0,2 1,1 2,1 3,2 0,0 -1,1 -1,1l0 0z"/>
     <path class="fil15" d="M11919 3261c33,0 71,-49 66,-78 -4,-23 -13,-42 -29,-58 -15,-14 -30,-13 -39,5 -16,31 -31,61 -45,93 -7,13 -3,23 12,29 11,4 23,6 35,9z"/>
     <path class="fil15" d="M11719 3633c16,19 35,24 57,14 6,-3 13,-7 19,-11 42,-27 45,-73 8,-107 -19,-18 -44,-13 -54,11 -12,30 -22,61 -30,93z"/>
     <path class="fil15" d="M12483 3711c-6,-28 -11,-54 -17,-80 -7,-25 -37,-39 -61,-28 -22,9 -31,27 -34,49 -3,21 4,38 23,50 28,17 56,20 89,9l0 0z"/>
     <path class="fil15" d="M12021 3841c52,10 102,12 152,9 -5,-41 -34,-71 -70,-75 -8,-1 -17,0 -25,3 -28,10 -40,24 -57,63l0 0z"/>
     <path class="fil15" d="M12355 3188c-10,6 -18,8 -22,12 -13,11 -20,25 -23,41 -11,51 10,83 62,92 10,1 17,-6 15,-16 -6,-28 -13,-57 -20,-85 -4,-13 -7,-25 -12,-44l0 0z"/>
     <path class="fil15" d="M12094 3060c11,25 24,41 49,43 9,0 19,-4 27,-8 9,-6 18,-13 18,-28 -31,-1 -60,-5 -94,-7l0 0z"/>
     <path class="fil15" d="M12165 3465c-4,-13 -6,-26 -11,-38 -16,-35 -56,-44 -87,-22 -16,11 -27,26 -31,44 -13,51 34,98 87,87 9,-2 18,-9 24,-16 14,-15 17,-34 18,-55z"/>
     <path class="fil16" d="M12276 2705c-21,-11 -41,-14 -63,-16 -34,-3 -68,-9 -103,-13 -7,-1 -14,-1 -24,-1 0,7 0,13 1,19 6,31 12,62 19,93 7,28 26,43 56,46 60,6 83,-15 102,-59 9,-21 15,-44 12,-69l0 0z"/>
     <path class="fil17" d="M11687 2513c-2,-58 37,-111 97,-112 56,0 103,51 115,104 10,39 -1,80 -26,106 -31,43 -93,44 -132,10 -33,-24 -52,-68 -54,-108l0 0z"/>
     <path class="fil17" d="M12518 2633c31,-62 99,-73 157,-44 53,27 79,88 70,146 -8,52 -55,80 -101,87 -35,5 -76,-10 -100,-37 -4,-5 -7,-9 -10,-14 -29,-39 -36,-96 -16,-138l0 0z"/>
     <path class="fil18" d="M12398 3212c6,6 12,12 16,18 29,48 60,93 96,136 34,42 68,83 104,124 18,22 38,41 60,64 -8,14 -17,29 -25,44 -11,21 -24,42 -34,65 -11,23 -9,47 2,71 12,23 20,26 48,20 2,0 5,0 8,1 4,5 8,11 13,16 16,17 34,19 54,7 10,-7 19,-16 29,-24 8,6 16,12 25,16 10,5 20,9 31,10 26,1 42,-15 42,-40 -1,-9 -2,-18 -3,-26 -2,-8 -5,-16 -7,-26 11,-4 20,3 29,4 15,4 29,5 44,-1 11,-5 17,-13 17,-25 1,-17 -6,-31 -15,-45 -6,-10 -14,-19 -21,-31 7,-6 14,-10 20,-17 10,-11 20,-21 27,-34 18,-31 2,-63 -34,-69 -14,-3 -29,-2 -44,-1 -62,5 -120,20 -170,56 -18,-1 -31,-11 -42,-23 -15,-16 -30,-32 -44,-49 -46,-58 -94,-114 -138,-173 -26,-35 -48,-74 -69,-113 -20,-37 -38,-76 -58,-117 13,-3 24,-6 35,-9 10,11 12,23 15,35 6,24 11,47 17,71 6,23 14,45 30,62 25,28 58,42 95,44 22,2 42,-7 57,-23 8,-9 15,-19 22,-30 6,-9 11,-18 19,-30 7,6 13,9 18,14 8,7 15,15 24,22 24,20 51,18 72,-5 14,-16 23,-35 30,-55 3,-11 6,-23 10,-38 6,3 12,4 17,7 13,7 25,15 38,21 27,14 55,14 84,5 30,-10 46,-31 46,-63 1,-31 -9,-60 -24,-87 -16,-28 -34,-54 -51,-81 -10,-17 -22,-32 -29,-52 18,-8 35,-9 52,-13 37,-8 70,-24 98,-49 41,-37 62,-82 53,-138 -3,-18 -7,-36 -12,-53 -20,-59 -54,-82 -119,-84 0,-6 -2,-14 -1,-20 25,-137 -1,-268 -55,-394 -22,-53 -50,-104 -81,-152 -23,-35 -51,-67 -83,-94 -50,-43 -103,-84 -164,-113 -12,-6 -25,-11 -37,-16 -10,-3 -20,-5 -28,-9 -43,-21 -90,-30 -135,-41 -66,-17 -133,-16 -199,-4 -46,8 -90,19 -133,36 -48,20 -93,46 -133,80 -82,71 -151,151 -196,250 -19,42 -31,86 -44,129 -2,7 -4,13 -7,22 -8,-3 -13,-6 -19,-8 -42,-17 -80,-9 -113,21 -36,32 -53,72 -51,121 3,47 15,91 41,132 29,47 64,90 104,128 8,8 16,15 25,25 -6,5 -10,8 -15,12 -49,31 -92,71 -131,114 -19,21 -32,45 -38,74 -8,35 10,76 57,90 5,2 12,3 18,4 6,1 11,2 19,4 -5,12 -9,22 -12,32 -15,47 8,81 57,85 9,0 18,1 28,1 4,9 8,18 13,26 13,23 33,36 59,41 27,4 54,2 80,-10 46,-21 83,-52 105,-99 2,-4 5,-8 7,-14 5,3 10,4 14,7 8,5 16,11 26,18 -5,8 -9,16 -14,22 -60,77 -120,154 -181,229 -44,54 -94,102 -156,134 -17,9 -34,16 -51,23 -15,6 -22,3 -30,-12 -1,-2 -2,-4 -3,-7 -11,-31 -33,-50 -62,-64 -27,-13 -55,-24 -85,-26 -4,0 -7,-1 -11,-1 -44,-1 -69,30 -59,72 2,10 6,19 11,28 4,7 10,13 17,23 -9,9 -19,16 -27,25 -8,9 -16,19 -21,30 -9,18 -5,33 12,45 6,4 13,6 22,11 -4,7 -8,13 -10,19 -16,36 1,61 40,61 7,0 15,-1 21,-2 3,2 5,3 6,5 15,29 28,38 59,32 18,-4 33,-3 49,7 9,5 21,6 32,6 28,1 46,-12 52,-38 7,-31 12,-63 5,-95 -7,-27 -10,-55 -15,-84 13,-6 24,-11 35,-16 55,-24 102,-59 145,-102 39,-39 73,-83 107,-126 15,-19 30,-39 46,-58 7,8 1,13 -2,18 -53,102 -89,212 -130,320 -24,64 -45,129 -66,194 -8,26 -10,52 -5,79 6,32 24,53 56,63 13,3 26,6 42,10 -6,10 -10,19 -16,27 -23,30 -47,60 -71,90 -37,46 -81,85 -136,111 -17,7 -34,16 -54,16 -17,-53 -48,-96 -83,-138 -10,-13 -26,-22 -39,-32 -4,-3 -9,-5 -14,-7 -35,-9 -60,-2 -64,42 -2,22 3,44 14,64 26,48 65,83 115,105 16,7 32,7 50,4 83,-11 148,-52 205,-110 19,-20 37,-42 55,-64 17,-21 34,-43 50,-65 8,-11 16,-24 25,-36 71,14 142,28 214,42 71,14 143,7 216,12 14,115 18,230 56,339 -15,9 -28,4 -40,3 -26,-1 -52,-2 -77,4 -24,6 -44,17 -61,35 -15,16 -21,35 -19,57 2,18 11,30 28,35 9,3 19,5 29,6 63,3 120,-14 173,-47 17,-11 31,-25 35,-46 2,-11 0,-20 -11,-24 -15,-5 -21,-15 -25,-28 -17,-55 -31,-111 -37,-168 -7,-55 -12,-110 -18,-166 9,-2 18,-3 26,-4 47,-4 94,-7 141,-11 27,-3 54,-8 79,-21 26,-13 32,-24 26,-53 -23,-103 -46,-205 -70,-308 -19,-80 -41,-161 -61,-241 -3,-12 -3,-24 -5,-36 -1,-1 -2,-1 -3,-2 0,0 0,-1 -1,-2 2,2 2,3 3,5l0 0 0 0zm168 -995c-12,-33 -12,-42 -3,-77 5,-22 2,-28 -21,-33 -16,-3 -32,-5 -47,-8 -39,-9 -67,-31 -87,-65 -17,-30 -27,-62 -34,-96 -6,-37 -12,-75 -12,-113 -1,-8 -2,-17 -5,-25 -3,-10 -17,-14 -24,-7 -10,9 -19,19 -24,32 -10,25 -21,50 -34,74 -53,99 -130,171 -241,205 -29,8 -57,16 -88,7 -7,-2 -14,-2 -22,-3 -73,-7 -141,4 -199,53 -5,4 -11,7 -22,14 11,-44 23,-81 39,-116 40,-88 100,-160 171,-224 48,-43 101,-75 161,-97 49,-17 98,-27 149,-32 47,-6 95,-3 140,9 53,14 106,28 157,47 68,26 129,62 178,117 11,12 22,27 37,36 24,13 38,34 52,55 33,49 60,101 84,155 42,97 62,198 58,304 -1,34 -6,67 -17,99 -33,5 -61,-3 -85,-17 -7,-40 -12,-77 -19,-115 -8,-46 -28,-85 -65,-116 -44,-36 -95,-57 -152,-61 -9,-1 -17,-2 -25,-2l0 0zm-859 1453c7,3 12,5 16,7 26,12 51,8 75,-5 13,-7 24,-17 36,-26 26,-21 33,-49 25,-80 -10,-39 -30,-72 -76,-80 -4,-1 -8,-4 -13,-6 13,-36 26,-71 39,-105 13,-34 22,-69 42,-102 11,5 20,10 29,13 19,6 38,9 58,3 55,-15 91,-76 76,-129 -9,-28 -24,-51 -48,-68 -6,-4 -12,-8 -21,-14 12,-18 15,-39 28,-56 28,9 54,19 82,29 2,6 5,13 7,20 7,20 21,36 37,49 26,20 55,21 84,5 14,-8 25,-20 34,-33 6,-9 12,-18 18,-27 29,-2 57,-8 87,-5 14,30 22,62 24,93 -14,9 -27,16 -38,26 -27,25 -34,58 -34,94 0,29 14,51 37,68 19,13 40,20 62,25 9,2 19,4 27,6 21,63 45,165 46,195 -6,0 -12,1 -18,1 -33,-3 -57,14 -74,39 -29,41 -18,95 24,122 25,18 54,23 85,21 9,0 19,-5 29,5 3,18 13,37 10,58 -10,12 -24,15 -37,18 -15,4 -31,8 -47,8 -62,5 -124,8 -186,11 -7,0 -14,-2 -21,-3 -3,-10 -5,-18 -8,-26 -10,-23 -24,-43 -45,-58 -39,-27 -79,-29 -117,-1 -14,9 -26,23 -37,35 -9,11 -16,24 -26,38 -42,-9 -84,-18 -126,-27 -37,-7 -73,-14 -110,-22 -34,-7 -46,-21 -47,-55 -2,-20 1,-39 12,-61l0 0 0 0zm593 -1232c1,6 2,10 2,13 -6,37 -1,73 5,110 20,131 161,247 337,183 79,-38 138,-94 171,-176 2,-6 6,-12 9,-17 26,6 50,12 74,19 -1,5 -1,10 -2,15 -35,96 -91,178 -171,244 -68,55 -142,99 -221,135 -114,51 -233,75 -358,65 -111,-8 -205,-52 -283,-132 -52,-53 -89,-116 -122,-182 -28,-53 -42,-110 -46,-169 -1,-5 -4,-12 5,-14 12,13 22,28 35,39 74,66 201,78 278,18 11,-8 22,-16 33,-24 21,-14 36,-33 47,-55 10,-20 18,-40 27,-61 5,-13 10,-27 16,-41 61,-15 112,12 164,30l0 0zm-610 -173c35,0 66,1 96,-1 60,-4 112,-22 147,-73 7,-10 17,-18 25,-27 8,-10 18,-12 30,-8 28,9 55,21 78,41 18,15 31,34 37,57 10,36 12,72 6,109 -6,35 -18,69 -32,101 -12,31 -29,60 -59,77 -5,2 -8,6 -12,9 -34,30 -75,41 -120,42 -26,1 -49,-5 -71,-17 -73,-41 -127,-96 -144,-180 -10,-46 -12,-89 19,-130l0 0zm843 -6c4,9 7,18 11,27 9,20 18,40 29,59 37,65 89,117 154,156 19,11 38,22 56,32 -2,29 -5,42 -22,67 -25,36 -55,66 -91,91 -26,18 -55,29 -86,33 -133,22 -225,-71 -242,-161 -3,-21 -6,-43 -8,-65 -7,-109 84,-209 162,-233 11,-4 23,-8 37,-6l0 0zm-12 -118c1,29 2,54 3,80 -106,22 -169,90 -212,182 -29,-9 -55,-18 -83,-25 -27,-7 -55,-10 -84,-15 4,-32 3,-64 -3,-95 -9,-48 -33,-86 -75,-114 -6,-4 -12,-9 -22,-16 16,-7 29,-12 41,-17 63,-26 117,-64 159,-117 26,-33 50,-67 69,-104 3,-6 3,-16 16,-15 2,11 4,23 6,35 7,44 18,88 40,128 25,45 62,72 111,85 11,3 22,5 34,8l0 0 0 0zm241 701c21,5 36,8 52,11 16,4 31,9 40,23 27,43 55,85 80,129 9,16 16,36 19,55 8,39 -9,57 -51,54 -12,0 -24,-4 -35,-9 -13,-7 -26,-15 -38,-23 -9,-5 -16,-12 -25,-16 -17,-10 -29,-4 -32,14 -2,10 -2,20 -4,29 -5,18 -9,36 -17,52 -19,39 -33,28 -52,9 -10,-10 -19,-20 -30,-28 -15,-11 -31,-9 -43,6 -7,8 -13,17 -19,27 -5,8 -10,17 -15,25 -12,17 -29,24 -49,20 -34,-6 -63,-21 -77,-55 -4,-11 -8,-21 -10,-32 -7,-28 -14,-57 -21,-85 -1,-6 0,-12 -1,-20 121,-43 232,-101 328,-186l0 0zm-1089 -199c9,22 16,42 25,60 37,82 81,159 145,224 23,22 24,35 7,61 -22,38 -55,63 -97,76 -43,13 -72,-1 -88,-42 -8,-19 -20,-26 -40,-25 -6,1 -13,1 -19,0 -27,-2 -38,-16 -30,-41 2,-9 7,-18 12,-27 4,-8 10,-16 14,-25 6,-13 -1,-26 -15,-27 -9,0 -17,1 -26,0 -11,-1 -22,-1 -33,-4 -24,-7 -35,-22 -33,-46 1,-11 3,-22 8,-32 7,-13 14,-26 25,-36 30,-30 62,-59 95,-88 13,-12 29,-22 50,-28l0 0zm-386 851c19,-27 32,-49 62,-52 8,-1 14,-4 17,-12 3,-9 -3,-16 -11,-21 -8,-6 -16,-11 -24,-17 -10,-8 -15,-18 -17,-31 -3,-21 4,-31 26,-31 42,0 79,17 112,43 5,5 11,12 12,18 3,23 18,40 32,57 5,7 9,13 10,22 5,25 9,51 13,76 4,23 0,46 -6,69 -2,4 -5,9 -9,11 -17,9 -39,-1 -43,-19 -2,-10 -3,-21 -15,-23 -15,-2 -19,8 -22,20 -4,11 -14,13 -24,13 -9,-1 -14,-8 -12,-15 3,-10 8,-18 10,-28 1,-5 -1,-13 -5,-16 -3,-3 -11,-4 -16,-3 -8,3 -16,8 -23,12 -9,4 -18,8 -27,12 -3,1 -9,-1 -10,-3 -2,-4 -3,-10 -1,-13 4,-6 10,-11 15,-16 6,-5 12,-8 18,-13 11,-8 15,-16 11,-24 -4,-10 -12,-11 -21,-12 -15,-1 -29,-2 -52,-4zm1511 -680c4,-7 5,-11 8,-13 56,-61 95,-131 124,-208 3,-8 8,-17 15,-24 3,-5 9,-9 14,-10 21,-5 41,-3 55,13 10,11 19,24 25,37 6,15 8,33 13,49 10,41 -5,75 -32,104 -20,21 -45,35 -72,44 -30,10 -61,15 -92,15 -18,0 -37,1 -58,-7l0 0 0 0zm-148 906c-3,-3 -6,-7 -8,-11 -3,-12 -3,-24 3,-36 11,-19 21,-39 31,-58 15,-28 34,-51 60,-68 54,-36 114,-48 177,-47 1,0 3,0 4,1 13,2 19,13 12,24 -15,26 -37,43 -69,43 -7,1 -15,0 -22,1 -7,1 -14,6 -15,14 -1,9 4,14 12,16 7,2 15,2 22,4 7,1 15,2 21,6 17,12 30,28 36,52 -11,-1 -20,0 -27,-2 -13,-5 -25,-12 -37,-17 -11,-4 -21,-9 -32,-11 -11,-3 -22,10 -18,21 3,9 9,17 13,26 7,17 14,34 20,51 2,5 2,13 -5,15 -4,2 -11,2 -14,0 -9,-6 -17,-14 -23,-22 -5,-6 -6,-14 -11,-20 -3,-4 -9,-8 -14,-8 -5,0 -12,5 -14,9 -6,10 -8,21 -13,30 -6,10 -13,19 -28,16 -2,-4 -7,-9 -8,-15 -2,-11 -2,-22 -3,-33 0,-12 2,-25 -14,-30 -10,-3 -15,4 -20,25 -2,10 -3,20 -16,24l0 0zm-990 -1153c-6,1 -7,2 -8,1 -3,-2 -6,-3 -9,-6 -40,-39 -74,-82 -102,-130 -20,-32 -27,-68 -29,-105 -2,-38 12,-69 40,-95 16,-14 34,-20 55,-19 25,2 38,15 38,40 0,8 -2,16 -4,24 -16,53 -16,106 3,159 3,8 6,16 6,24 4,36 7,71 10,107l0 0 0 0zm1129 -76c-98,-33 -210,-159 -213,-235 2,-1 4,-3 6,-3 74,2 129,37 172,93 4,5 6,11 8,16 16,41 20,83 27,129l0 0zm-870 770c-12,-3 -24,-5 -35,-9 -15,-6 -19,-16 -12,-30 14,-31 29,-61 45,-92 9,-18 23,-19 39,-5 16,16 25,35 29,58 5,29 -33,78 -66,78l0 0zm-205 -1031c31,-64 132,-105 207,-81 -7,9 -13,17 -19,26 -19,25 -43,40 -73,47 -37,10 -74,8 -115,8zm5 1403c8,-32 18,-63 30,-93 10,-24 35,-29 54,-11 37,34 34,80 -8,107 -6,4 -13,8 -19,11 -22,10 -41,5 -57,-14l0 0zm764 78c-33,11 -61,8 -89,-9 -19,-12 -26,-29 -23,-50 3,-22 12,-40 34,-49 24,-11 54,3 61,28 6,26 11,52 17,80zm-360 614c-5,-18 2,-30 13,-41 12,-12 26,-19 42,-22 37,-6 74,-5 111,4 9,2 16,7 16,17 -40,38 -123,58 -182,42l0 0zm-683 -250c-47,-14 -98,-57 -114,-98 -4,-11 -6,-23 -8,-35 0,-7 3,-14 5,-21 18,-2 30,7 41,17 35,32 59,71 81,112 4,8 3,16 -5,25l0 0zm581 -234c17,-39 29,-53 57,-63 8,-3 17,-4 25,-3 36,4 65,34 70,75 -50,3 -100,1 -152,-9zm334 -653c5,19 8,31 12,44 7,28 14,57 20,85 2,10 -5,17 -15,16 -52,-9 -73,-41 -62,-92 3,-16 10,-30 23,-41 4,-4 12,-6 22,-12l0 0zm-261 -128c34,2 63,6 94,7 -1,15 -9,22 -18,28 -8,4 -18,8 -27,8 -25,-2 -38,-18 -49,-43l0 0z"/>
     <path class="fil18" d="M12000 3479c1,17 8,36 24,52 27,28 61,40 100,37 26,-2 43,-18 56,-38 22,-32 22,-107 -15,-144 -28,-27 -68,-35 -102,-16 -41,21 -65,61 -63,109zm165 -14c-1,20 -4,40 -18,55 -7,7 -15,14 -24,16 -53,11 -100,-36 -87,-87 4,-19 15,-33 31,-44 31,-22 71,-13 87,22 5,12 7,25 11,38z"/>
     <path class="fil18" d="M12095 2640c-8,0 -10,0 -11,0 -37,1 -42,8 -35,44 7,32 13,64 19,97 17,75 66,91 125,87 40,-3 70,-21 90,-55 20,-32 28,-68 30,-105 1,-12 -4,-23 -10,-34 -6,-10 -14,-14 -27,-15 -44,-4 -88,-9 -133,-14 -18,-2 -36,-4 -48,-5l0 0 0 0zm181 65c3,25 -3,48 -12,69 -19,44 -42,65 -102,59 -30,-3 -49,-18 -56,-46 -7,-31 -13,-62 -19,-93 -1,-6 -1,-11 -1,-19 10,0 17,0 24,1 35,4 69,10 103,13 22,2 42,5 63,16l0 0z"/>
     <path class="fil18" d="M11874 2359c2,29 20,47 45,48 27,1 48,-16 52,-42 1,-7 0,-15 -1,-22 -4,-24 -14,-37 -32,-40 -22,-3 -41,2 -54,22 -8,12 -11,24 -10,34z"/>
     <path class="fil18" d="M12452 2487c1,33 24,55 57,54 32,-1 57,-24 56,-52 -2,-30 -32,-59 -61,-58 -26,0 -53,29 -52,56z"/>
     <path class="fil19" d="M10605 3450c-11,5 -22,10 -34,15 -28,12 -58,4 -76,-22 -5,-8 -9,-18 -14,-27 -2,-6 -4,-12 -7,-18 -5,-10 -16,-13 -25,-5 -6,4 -10,10 -15,15 -24,19 -58,17 -79,-5 -19,-20 -28,-46 -28,-73 0,-14 2,-27 4,-40 1,-5 4,-10 4,-15 0,-5 -1,-11 -4,-14 -3,-3 -10,-3 -14,-2 -8,3 -15,8 -22,12 -16,9 -34,12 -53,10 -37,-4 -56,-25 -55,-62 0,-12 4,-24 6,-36 1,-4 4,-8 4,-12 -1,-5 -2,-10 -6,-13 -2,-2 -7,-3 -11,-1 -5,1 -9,5 -13,7 -17,9 -32,19 -50,25 -49,18 -89,-9 -91,-62 -1,-13 2,-25 4,-37 0,-5 4,-10 3,-15 0,-5 -3,-11 -7,-12 -3,-2 -9,0 -14,1 -2,1 -4,5 -6,7 -20,26 -48,38 -78,47 -2,0 -4,1 -6,1 -42,6 -70,-17 -72,-60 -1,-20 0,-39 6,-58 2,-8 4,-17 4,-25 0,-10 -11,-16 -20,-11 -6,4 -11,9 -17,13 -13,8 -26,17 -39,24 -15,7 -30,6 -46,2 -23,-4 -37,-18 -39,-48 -1,-30 10,-55 28,-77 5,-6 11,-9 19,-9 11,-1 20,-6 26,-15 3,-4 5,-10 4,-14 -1,-7 -7,-11 -14,-11 -6,0 -14,1 -20,4 -11,6 -21,8 -32,1 -13,-8 -22,-19 -24,-34 -3,-28 3,-54 24,-74 20,-21 45,-32 73,-36 23,-3 45,-2 68,-3 4,0 8,1 12,0 10,-1 18,-10 14,-19 -7,-16 -2,-29 5,-42 17,-34 42,-61 75,-80 10,-5 21,-9 32,-11 34,-6 52,4 69,33 20,34 23,35 53,12 24,-20 51,-29 82,-31 23,0 46,-2 68,4 13,3 27,8 39,15 19,11 30,29 29,51 0,6 -1,11 0,16 1,5 4,10 7,13 6,4 12,1 17,-3 2,-2 3,-3 5,-5 25,-31 60,-34 95,-28 25,4 47,16 66,33 19,16 29,36 29,62 0,35 1,35 33,44 39,11 73,31 103,59 8,7 16,16 22,26 12,21 9,38 -8,56 -4,4 -8,7 -11,10 -9,10 -8,20 2,27 6,4 13,7 19,10 19,11 37,23 51,39 7,8 14,16 19,25 12,20 11,41 -4,60 -5,7 -11,13 -16,19 -12,13 -13,28 -4,43 6,11 13,21 20,31 6,11 13,21 19,32 4,7 6,16 7,24 2,10 -3,18 -12,22 -9,4 -17,7 -26,10 -8,2 -16,3 -24,6 -19,7 -24,22 -15,40 3,7 8,14 13,20 6,8 12,15 17,22 20,29 20,50 -3,76 -26,30 -58,48 -100,47 -8,0 -16,2 -24,1 -7,-1 -14,-5 -21,-7l0 0z"/>
     <path class="fil20" d="M9716 3026c37,13 72,9 107,-14 0,17 0,28 0,39 -1,19 3,37 12,54 12,22 30,36 56,40 25,4 49,-1 72,-11 10,-4 20,-8 32,-14 2,7 3,12 5,17 2,8 3,16 6,24 18,48 55,70 110,57 13,-3 25,-9 40,-14 1,6 2,12 3,17 5,59 33,85 92,87 15,0 30,-3 46,-4 7,7 3,17 3,25 0,26 7,50 20,71 12,21 29,37 53,44 22,6 43,5 63,-5 6,-3 12,-7 19,-11 6,10 11,19 16,28 18,27 43,41 75,42 14,1 27,-3 38,-9 7,-4 14,-9 21,-13 7,4 4,10 3,14 -15,36 -33,69 -55,101 -26,37 -52,74 -84,107 -47,50 -100,92 -163,119 -55,24 -111,36 -171,34 -56,-2 -111,-9 -165,-21 -61,-14 -115,-41 -167,-76 -53,-36 -92,-82 -125,-136 -38,-61 -54,-129 -58,-200 -5,-80 2,-160 21,-238 13,-55 39,-110 75,-154l0 0zm165 492c-1,30 2,60 9,90 12,46 57,87 101,93 54,8 98,-9 126,-57 18,-30 33,-63 47,-95 10,-23 4,-36 -19,-47 -7,-4 -14,-6 -20,-8 -20,-6 -40,-12 -59,-18 -55,-16 -111,-20 -167,-30 -3,-1 -10,5 -11,8 -3,21 -5,43 -7,64l0 0zm-21 -212c0,-4 0,-9 -1,-14 -3,-15 -9,-26 -23,-31 -16,-5 -31,-2 -44,9 -16,14 -23,50 -12,69 7,14 19,20 35,19 25,-2 44,-24 45,-52l0 0zm399 161c-3,24 14,51 34,53 19,2 43,-16 46,-33 3,-24 -13,-48 -35,-51 -23,-4 -42,10 -45,31z"/>
     <path class="fil15" d="M10425 4592c-19,14 -63,36 -82,40 -17,4 -26,0 -33,-15 -6,-10 -10,-20 -13,-31 -5,-14 -9,-28 -13,-42 -6,-18 -9,-21 -28,-22 -5,0 -10,-1 -15,0 -46,4 -90,-6 -135,-13 -24,-4 -49,-7 -73,-11 -15,-3 -30,-5 -45,-9 -12,-4 -21,0 -28,12 -2,5 -3,10 -6,14 -15,33 -29,66 -46,99 -14,28 -19,30 -48,21 -28,-8 -55,-18 -80,-26 -6,-11 -3,-20 0,-27 5,-12 11,-24 17,-37 14,-29 28,-57 41,-86 6,-12 12,-24 19,-37 21,2 40,5 59,7 112,13 223,21 335,5 30,-4 60,-14 92,-22 3,4 8,9 10,15 24,53 48,106 72,158 0,2 0,5 0,7z"/>
     <path class="fil21" d="M9845 4267c0,-35 7,-69 13,-103 16,-2 29,1 42,5 62,18 126,26 191,29 21,1 42,1 64,-4 30,-7 60,-10 91,-13 23,-1 46,-7 69,-11 10,19 24,80 27,113 -79,29 -160,34 -242,24 -69,-8 -139,-16 -208,-25 -16,-2 -33,-2 -47,-15l0 0z"/>
     <path class="fil22" d="M9864 4130c2,-29 7,-58 13,-87 49,6 94,11 140,17 45,7 90,7 134,0 7,-1 13,-2 19,-2 40,-1 79,-1 121,-2 10,25 14,51 21,78 -5,4 -10,8 -15,10 -16,6 -31,9 -48,10 -27,2 -55,4 -82,10 -36,8 -71,8 -107,6 -64,-5 -125,-19 -187,-35 -3,-1 -5,-3 -9,-5l0 0z"/>
     <path class="fil22" d="M9834 4386c-1,-31 1,-57 6,-85 14,2 27,5 40,6 59,8 118,17 177,23 43,4 86,8 129,8 43,1 86,-6 128,-17 11,-3 21,-6 32,-6 1,2 2,3 2,4 9,61 3,59 -46,76 -20,7 -41,11 -63,14 -71,10 -143,8 -215,4 -53,-4 -106,-9 -159,-19 -9,-1 -19,-5 -31,-8z"/>
     <path class="fil20" d="M10936 3553c6,12 3,22 -1,32 -3,7 -7,13 -10,19 -2,7 -2,13 4,17 4,2 10,3 14,1 10,-3 19,-8 28,-12 6,-2 12,-3 17,-4 9,7 6,14 4,20 -6,12 -15,20 -26,26 -6,4 -13,7 -19,10 -6,3 -10,9 -8,15 1,5 5,9 9,11 8,4 17,6 26,10 7,3 15,6 17,15 -7,10 -18,8 -28,12 -7,2 -14,2 -21,4 -8,3 -11,13 -6,21 4,6 9,12 12,18 3,3 4,7 5,11 -11,13 -23,15 -39,10 -27,-9 -50,-23 -68,-45 -2,-2 -5,-5 -6,-7 -23,-45 -46,-91 -38,-144 2,-14 5,-26 12,-38 3,-4 7,-8 11,-11 19,9 26,26 32,44 2,7 3,14 6,21 3,7 16,8 20,0 3,-5 5,-11 7,-17 9,-22 20,-32 46,-39l0 0z"/>
     <path class="fil20" d="M9318 3307c23,8 47,29 61,53 3,5 5,11 8,17 4,5 8,9 15,8 8,-1 10,-7 10,-14 0,-6 -1,-12 0,-18 3,-23 24,-41 48,-41 7,0 14,5 14,13 0,12 0,25 -4,37 -8,24 -18,48 -27,72 -5,12 -11,23 -24,28 -6,2 -7,8 -9,14 -9,39 -45,68 -84,69 -3,0 -6,-2 -10,-3 2,-8 3,-14 6,-21 1,-4 5,-9 6,-14 1,-4 1,-10 -1,-14 -3,-6 -10,-6 -16,-5 -6,2 -12,5 -18,5 -12,2 -25,2 -35,-5 -4,-3 -10,-8 -9,-12 1,-5 5,-12 10,-14 8,-3 17,-3 26,-5 8,-2 11,-14 5,-20 -3,-3 -7,-4 -10,-7 -5,-3 -10,-6 -15,-10 -5,-5 -9,-12 -5,-20 3,-8 9,-14 18,-14 9,0 18,2 27,4 6,1 11,5 17,7 6,4 12,3 16,-2 5,-5 5,-10 2,-17 -8,-14 -15,-29 -21,-44 -4,-10 -3,-10 -1,-27l0 0z"/>
     <path class="fil21" d="M10274 3964c9,19 8,39 12,59 -7,3 -12,6 -18,6 -13,1 -27,0 -40,0 -30,2 -61,4 -92,6 -27,2 -55,5 -83,1 -41,-5 -83,-9 -125,-14 -15,-1 -30,-4 -45,-11 0,-22 6,-41 9,-63 6,0 11,-1 15,0 74,21 150,19 226,18 17,0 33,1 49,2 20,3 39,4 58,0 11,-3 22,-3 34,-4l0 0z"/>
     <path class="fil22" d="M10268 3933c-24,8 -47,11 -71,9 -28,-1 -57,-3 -85,-3 -54,1 -107,1 -159,-9 -18,-3 -37,-5 -54,-16 4,-23 3,-47 14,-70 110,29 221,45 335,24 10,21 15,43 20,65z"/>
     <path class="fil20" d="M9592 3280c-17,-5 -26,-20 -33,-34 -13,-25 -19,-53 -21,-81 -1,-23 1,-45 7,-68 4,-15 11,-29 22,-40 10,-11 22,-14 36,-9 27,8 42,35 32,61 -19,51 -30,103 -36,157 -1,3 -2,6 -3,9 -1,1 -3,3 -4,5l0 0z"/>
     <path class="fil22" d="M9442 4730c1,-7 2,-13 3,-19 10,-34 25,-66 45,-95 7,-12 18,-16 31,-16 10,-1 18,3 23,13 2,6 6,13 10,19 5,8 6,17 3,27 -2,10 -4,20 -6,30 -8,33 -27,58 -54,77 -12,8 -25,10 -38,3 -13,-7 -18,-19 -17,-34 0,-2 0,-4 0,-5l0 0z"/>
     <path class="fil20" d="M10561 3630c16,-27 30,-48 42,-71 12,-21 23,-43 34,-66 19,-1 36,2 52,8 21,7 28,22 22,44 -1,6 -3,12 -7,17 -7,14 -18,25 -30,34 -33,22 -68,32 -113,34l0 0z"/>
     <path class="fil22" d="M10688 4676c12,11 23,22 35,32 17,16 24,35 23,58 0,13 -2,25 -5,37 -1,7 -6,13 -11,18 -5,5 -14,5 -20,0 -4,-4 -8,-9 -11,-15 -15,-34 -25,-70 -29,-107 -2,-11 3,-20 18,-23l0 0z"/>
     <path class="fil23" d="M9770 3328c-46,-25 -105,-15 -135,30 -22,33 -16,81 6,113 11,24 32,43 57,49 52,14 97,-17 118,-63 20,-46 -2,-106 -46,-129l0 0z"/>
     <path class="fil23" d="M10466 3558c-15,-35 -48,-52 -83,-54 -20,-3 -40,-1 -59,7 -56,23 -66,96 -31,142 31,42 92,57 137,28 40,-27 56,-78 36,-123z"/>
     <path class="fil24" d="M9661 3059c11,-18 21,-34 29,-49 0,-3 0,-4 -1,-5 -26,-39 -19,-78 0,-117 3,-8 8,-15 12,-23 -5,-5 -11,-9 -16,-14 -16,-14 -25,-33 -27,-54 -2,-33 6,-62 29,-86 32,-34 73,-48 119,-50 11,0 23,1 32,1 3,-3 6,-4 6,-5 8,-48 36,-83 71,-114 7,-6 15,-11 22,-16 20,-13 41,-19 64,-20 29,-1 52,10 70,33 6,7 11,15 16,22 4,-2 7,-3 9,-5 59,-43 125,-42 191,-25 29,8 51,27 63,56 2,3 4,7 5,10 8,5 13,-1 18,-3 58,-25 133,-7 177,44 13,14 21,30 23,50 1,10 2,20 4,32 8,2 15,5 23,8 38,14 72,34 102,61 8,7 15,15 21,23 21,30 22,59 2,90 -1,3 -3,5 -6,9 6,4 11,10 16,13 19,11 36,25 50,42 9,11 17,23 22,36 11,27 7,53 -11,77 -6,9 -14,17 -22,27 7,10 12,20 18,29 8,13 16,24 23,37 5,8 8,17 10,26 8,32 -3,52 -33,64 -8,4 -18,5 -27,8 -5,2 -11,4 -18,7 4,6 7,12 10,17 6,7 12,14 17,22 28,39 27,74 -4,110 -13,15 -28,28 -45,37 -6,4 -12,8 -18,12 2,2 3,4 5,5 12,10 24,20 26,37 3,20 1,39 -9,57 -15,25 -35,43 -61,56 -31,16 -64,26 -100,25 -8,0 -16,0 -26,-1 -6,7 -12,14 -18,21 -54,68 -119,123 -197,162 -1,1 -3,2 -6,5 4,3 7,7 11,8 77,26 155,29 234,9 73,-19 142,-47 207,-87 13,-8 26,-17 36,-32 -6,-16 -14,-33 -20,-50 -15,-38 -21,-76 -11,-116 4,-16 10,-32 21,-45 14,-18 33,-20 51,-4 9,9 17,20 27,31 6,-6 12,-12 19,-16 9,-6 18,-12 27,-15 23,-6 39,6 42,29 1,7 1,14 2,23 8,0 16,0 23,1 18,0 27,8 31,25 4,17 -2,32 -12,46 -6,8 -12,14 -19,22 7,6 14,11 19,17 19,19 16,40 -8,53 -8,4 -16,7 -25,10 2,12 5,23 5,34 0,17 -5,21 -20,27 -36,14 -66,0 -96,-17 -13,-8 -25,-19 -38,-29 -12,9 -22,18 -34,26 -88,54 -182,91 -285,104 -66,9 -130,-2 -193,-23 -11,-4 -21,-8 -35,-13 1,8 0,13 1,17 17,47 24,97 33,145 13,64 29,128 43,191 7,35 14,69 19,104 4,22 6,46 -4,67 -5,10 0,18 4,27 16,34 31,67 47,101 4,9 7,17 11,26 6,15 12,30 26,41 11,8 9,21 -3,28 -14,9 -28,17 -43,27 1,7 1,14 4,21 7,22 14,45 24,67 8,17 18,35 30,50 24,30 57,34 87,10 38,-30 68,-65 86,-111 9,-26 40,-35 60,-18 15,13 30,28 44,43 7,8 13,17 16,26 13,32 11,63 0,95 -8,23 -26,34 -46,34 -15,-1 -27,-6 -35,-18 -6,-10 -11,-20 -15,-30 -7,-18 -11,-36 -17,-54 -2,-5 -4,-10 -7,-18 -8,10 -15,18 -21,25 -14,15 -27,29 -41,42 -49,43 -107,29 -137,-15 -12,-17 -22,-35 -30,-54 -10,-22 -16,-45 -25,-67 -1,-5 -3,-9 -6,-15 -11,3 -21,7 -30,9 -35,10 -58,0 -73,-33 -5,-12 -9,-25 -14,-38 -3,-11 -7,-22 -11,-33 -7,-1 -14,-4 -21,-3 -40,4 -80,-6 -119,-11 -34,-5 -67,-13 -101,-15 -10,-1 -20,-4 -31,-6 -3,6 -6,11 -9,16 -16,34 -31,68 -49,100 -17,34 -28,38 -65,30 -7,-2 -14,-3 -21,-4 -8,8 -9,19 -12,28 -7,22 -17,43 -30,61 -30,43 -79,47 -115,29 -22,-11 -40,-26 -56,-44 -15,-16 -29,-32 -42,-48 -8,0 -8,6 -9,10 -9,41 -33,71 -67,94 -20,14 -42,16 -64,3 -21,-12 -32,-31 -31,-56 0,-10 1,-19 3,-28 11,-39 28,-76 50,-110 13,-20 31,-29 55,-27 11,1 22,2 32,3 12,23 24,44 35,64 18,34 43,64 71,90 10,9 21,17 33,23 31,17 62,10 84,-20 17,-23 26,-51 33,-81 -7,-3 -13,-6 -19,-9 -9,-4 -19,-7 -29,-11 -11,-5 -17,-15 -15,-28 2,-13 6,-26 10,-38 6,-14 13,-26 19,-39 17,-36 34,-71 51,-108 -3,-3 -5,-7 -8,-9 -9,-6 -13,-16 -14,-26 0,-10 0,-19 1,-28 6,-78 18,-155 30,-231 9,-60 18,-119 28,-179 3,-21 7,-42 11,-65 -8,-2 -14,-4 -19,-5 -23,-5 -46,-13 -67,-22 -86,-39 -161,-92 -224,-162 -49,-54 -98,-109 -138,-171 -1,-1 -2,-1 -3,-2 -8,-1 -10,6 -13,10 -18,28 -45,38 -75,43 -6,1 -13,1 -19,1 -20,-3 -28,-12 -30,-32 0,-5 0,-9 0,-15 -8,-2 -16,-3 -23,-6 -9,-3 -18,-5 -26,-10 -20,-14 -24,-36 -10,-57 3,-5 8,-9 12,-15 -11,-19 -14,-38 -1,-58 11,-14 17,-17 55,-25 -1,-6 -3,-12 -4,-18 -1,-12 -3,-25 -1,-37 2,-19 15,-27 33,-21 9,2 17,7 25,12 10,7 19,15 28,23 5,4 10,8 15,13 6,-8 12,-14 17,-20 14,-14 31,-20 50,-22 23,-1 39,12 43,36 3,17 0,35 -5,52 -12,40 -27,78 -52,113 4,18 15,33 26,48 38,53 80,102 125,149 24,24 49,47 76,68 44,36 94,63 146,85 14,5 30,9 45,12 8,2 9,0 18,-15 -6,-4 -11,-8 -18,-11 -41,-19 -79,-44 -113,-74 -59,-52 -103,-115 -129,-190 -22,-65 -31,-131 -28,-199 0,-15 1,-29 1,-44 -57,-26 -72,-78 -80,-132 -4,-32 -3,-65 8,-96 5,-13 11,-27 19,-38 24,-34 65,-39 97,-12 8,6 14,14 24,23l0 0 0 0zm944 391c7,3 14,6 21,7 8,1 16,-1 24,-1 42,1 74,-17 100,-47 23,-26 23,-47 3,-76 -5,-7 -11,-14 -17,-22 -5,-7 -10,-13 -13,-21 -9,-18 -4,-33 15,-39 7,-3 16,-4 24,-7 8,-2 17,-5 26,-9 9,-4 14,-12 12,-23 -2,-8 -3,-16 -7,-23 -6,-11 -13,-22 -19,-32 -7,-11 -14,-21 -20,-31 -9,-15 -8,-30 4,-43 5,-6 11,-12 16,-19 15,-19 16,-40 4,-61 -5,-9 -12,-17 -19,-24 -15,-16 -32,-28 -51,-39 -6,-3 -13,-6 -19,-10 -10,-7 -11,-18 -3,-27 4,-4 8,-7 12,-10 17,-18 20,-35 8,-57 -6,-9 -14,-18 -22,-26 -30,-27 -64,-47 -104,-58 -31,-9 -32,-10 -32,-44 0,-26 -10,-46 -29,-63 -19,-16 -41,-28 -66,-32 -35,-6 -70,-3 -96,28 -1,1 -2,3 -4,4 -5,5 -11,7 -17,3 -3,-2 -6,-8 -7,-12 -1,-5 0,-11 0,-16 1,-23 -10,-40 -29,-51 -12,-7 -26,-12 -39,-16 -23,-5 -45,-4 -68,-3 -31,1 -58,11 -82,30 -30,24 -34,22 -53,-11 -17,-30 -35,-39 -69,-33 -11,2 -22,6 -32,11 -33,19 -58,46 -75,80 -7,13 -12,26 -5,41 4,10 -4,19 -14,20 -4,0 -8,0 -12,0 -23,1 -45,0 -68,3 -28,3 -53,15 -73,35 -21,21 -27,46 -24,74 2,16 11,27 24,35 11,7 21,5 32,-1 6,-3 13,-4 20,-4 7,0 13,4 14,11 0,4 -2,10 -4,14 -6,9 -15,13 -26,14 -8,1 -14,3 -19,9 -18,23 -29,48 -28,77 2,31 16,44 39,49 16,3 31,4 45,-3 14,-6 27,-15 40,-23 6,-4 11,-9 17,-13 9,-6 20,0 20,11 -1,8 -2,17 -4,24 -6,20 -7,39 -6,59 2,43 30,66 72,59 2,0 4,0 6,-1 30,-8 58,-20 78,-46 2,-2 4,-6 6,-7 5,-2 11,-3 14,-2 4,2 7,8 7,13 1,4 -3,9 -3,15 -2,12 -5,24 -4,36 2,54 42,81 91,63 17,-6 33,-16 50,-25 4,-2 8,-6 13,-8 3,-1 9,-1 11,1 3,4 5,9 6,14 0,4 -3,7 -4,11 -2,13 -6,25 -6,37 -1,37 18,58 55,62 18,2 36,-1 53,-10 7,-4 14,-9 22,-12 4,-1 11,-1 14,2 3,2 4,9 4,13 0,5 -3,10 -4,15 -2,14 -5,27 -4,40 0,28 9,53 28,74 21,22 55,24 78,5 6,-5 10,-11 16,-16 9,-7 20,-5 25,6 3,6 5,12 7,17 5,10 8,19 14,28 18,26 48,34 76,22 12,-5 23,-10 34,-15l0 0zm-889 -424c-35,44 -62,99 -75,154 -19,78 -26,158 -21,238 4,71 20,139 58,200 33,54 72,100 125,136 52,35 106,62 167,76 54,12 109,19 165,21 60,2 116,-10 171,-34 63,-27 116,-69 163,-119 32,-33 58,-70 84,-107 22,-32 40,-65 54,-101 2,-4 5,-10 -2,-14 -7,4 -14,9 -21,13 -12,6 -24,10 -38,9 -32,-1 -57,-15 -75,-42 -5,-9 -10,-18 -16,-28 -7,4 -13,8 -19,11 -20,10 -41,11 -63,5 -25,-7 -41,-23 -53,-44 -13,-21 -20,-45 -20,-71 0,-8 4,-18 -3,-25 -16,1 -31,4 -46,4 -59,-2 -87,-28 -92,-87 -1,-5 -2,-11 -3,-17 -15,5 -27,11 -40,14 -55,13 -92,-9 -110,-57 -3,-8 -4,-16 -7,-24 -1,-5 -2,-10 -4,-17 -12,6 -22,10 -32,14 -23,10 -47,15 -72,11 -26,-4 -44,-18 -56,-40 -9,-17 -13,-35 -12,-54 0,-11 0,-22 0,-39 -35,23 -70,27 -107,14l0 0zm709 1566c0,-2 0,-5 -1,-6 -23,-53 -47,-106 -71,-159 -2,-6 -7,-11 -10,-14 -32,8 -62,17 -92,22 -112,16 -223,7 -335,-5 -19,-2 -38,-5 -59,-8 -7,13 -13,25 -19,37 -14,29 -27,58 -41,87 -6,12 -12,24 -17,36 -3,8 -6,16 0,27 25,8 52,18 80,26 29,9 34,7 48,-21 16,-32 31,-66 46,-98 2,-5 4,-10 6,-15 7,-12 16,-16 28,-12 15,4 30,7 45,9 24,4 49,7 73,11 45,7 89,17 134,13 5,-1 11,0 16,0 19,2 22,4 28,22 4,14 8,28 12,42 4,11 8,22 13,32 8,14 17,18 34,14 19,-4 63,-26 82,-40l0 0zm-580 -325c14,13 31,13 47,15 69,9 139,17 208,25 82,10 163,5 242,-24 -3,-32 -17,-94 -27,-113 -23,4 -46,10 -69,11 -31,3 -61,6 -91,13 -21,5 -43,5 -64,4 -65,-3 -129,-11 -191,-29 -13,-4 -26,-7 -42,-5 -6,34 -13,68 -13,103l0 0zm19 -137c4,2 6,4 9,5 62,16 123,30 187,35 36,2 71,2 107,-6 27,-5 55,-8 82,-10 17,-1 32,-4 48,-10 5,-2 10,-6 15,-10 -7,-27 -11,-53 -21,-78 -42,1 -81,1 -121,2 -6,0 -12,1 -19,2 -44,7 -89,7 -134,0 -46,-6 -91,-11 -140,-17 -6,29 -11,58 -13,87l0 0zm-30 256c12,3 22,7 32,8 52,10 105,15 158,18 72,5 144,7 216,-3 21,-3 42,-7 62,-14 49,-17 55,-15 47,-76 -1,-1 -2,-2 -3,-4 -11,0 -21,3 -32,6 -42,11 -84,18 -128,17 -43,-1 -86,-4 -129,-8 -59,-7 -118,-15 -177,-23 -13,-1 -26,-4 -40,-6 -5,28 -6,54 -6,85l0 0zm1102 -833c-26,7 -37,17 -46,39 -2,6 -4,12 -7,17 -4,8 -17,7 -20,-1 -3,-6 -4,-13 -6,-20 -6,-18 -13,-35 -32,-45 -4,4 -8,8 -11,12 -6,11 -10,24 -12,38 -7,53 15,98 38,144 1,2 4,5 6,7 18,22 41,36 68,45 16,5 28,3 39,-10 -1,-4 -2,-8 -4,-11 -4,-7 -9,-12 -13,-18 -5,-8 -2,-18 6,-21 7,-2 15,-2 21,-5 10,-3 21,-1 28,-11 -2,-9 -10,-12 -17,-15 -8,-4 -18,-6 -26,-10 -4,-2 -8,-7 -9,-11 -2,-6 2,-12 8,-15 6,-3 13,-6 19,-10 11,-6 20,-14 26,-26 2,-6 5,-14 -4,-20 -5,1 -11,2 -17,4 -9,3 -18,9 -28,12 -4,2 -10,1 -14,-1 -6,-4 -6,-10 -4,-17 3,-6 7,-13 10,-19 4,-10 7,-20 1,-32l0 0zm-1618 -246c-2,17 -3,17 1,27 6,15 13,29 21,44 3,6 3,12 -2,17 -4,5 -10,6 -16,2 -6,-2 -11,-6 -17,-7 -9,-3 -18,-4 -27,-4 -10,0 -15,6 -18,14 -4,8 0,15 5,20 5,4 10,7 15,10 3,3 7,4 10,7 6,6 3,18 -5,20 -9,2 -18,2 -26,5 -5,2 -9,9 -10,14 -1,4 5,9 9,12 10,7 23,7 35,5 6,0 12,-3 18,-5 6,-1 13,-1 16,5 2,4 2,10 1,14 -1,5 -5,9 -6,14 -3,7 -4,13 -6,20 4,2 7,4 10,4 39,-2 75,-30 84,-69 2,-6 3,-12 10,-15 12,-5 18,-15 23,-27 9,-24 19,-48 27,-72 4,-12 4,-25 4,-37 0,-8 -7,-13 -15,-13 -23,0 -44,18 -47,41 -1,6 0,12 0,18 0,7 -2,13 -10,14 -7,1 -11,-3 -15,-9 -3,-5 -5,-11 -8,-16 -14,-24 -38,-45 -61,-53l0 0zm956 657c-12,1 -23,1 -34,4 -19,4 -38,3 -58,0 -16,-1 -32,-2 -49,-2 -75,1 -151,3 -226,-18 -4,-1 -9,0 -15,0 -3,22 -9,41 -9,63 15,7 30,10 45,11 42,5 84,9 126,14 27,4 55,1 82,-1 31,-2 62,-4 92,-6 14,0 27,1 40,0 6,0 11,-3 18,-6 -4,-20 -3,-40 -12,-59l0 0zm-5 -31c-6,-22 -11,-44 -21,-65 -114,21 -225,5 -335,-25 -11,24 -10,48 -14,71 17,11 36,13 54,16 52,10 105,10 159,9 28,0 57,2 85,3 24,2 47,-1 72,-9l0 0zm-677 -653c1,-2 3,-4 4,-5 1,-3 2,-6 3,-9 6,-54 17,-106 36,-157 10,-26 -5,-53 -32,-61 -14,-5 -26,-2 -36,9 -11,11 -18,25 -22,40 -6,23 -8,45 -7,68 2,28 8,56 21,81 7,14 16,29 33,34l0 0zm-150 1450c0,1 0,3 0,5 -1,15 4,27 17,34 13,7 26,5 38,-3 27,-19 46,-44 54,-77 2,-10 4,-20 6,-30 3,-10 2,-19 -3,-27 -4,-6 -7,-13 -10,-19 -5,-10 -13,-13 -23,-13 -13,0 -24,4 -31,16 -20,29 -35,61 -45,95 -1,6 -2,12 -3,19l0 0zm1119 -1100c45,-2 80,-12 113,-34 13,-9 23,-20 30,-34 4,-5 6,-11 8,-17 5,-22 -2,-37 -23,-44 -16,-6 -33,-9 -52,-8 -11,23 -22,45 -34,66 -12,23 -26,44 -42,71l0 0zm127 1046c-15,3 -20,12 -18,23 4,37 14,73 29,107 3,6 7,11 11,15 6,5 15,5 20,0 5,-5 10,-11 11,-18 3,-12 5,-24 5,-37 1,-23 -6,-42 -23,-58 -12,-10 -23,-21 -35,-32l0 0z"/>
     <path class="fil24" d="M9881 3518c3,-21 4,-43 8,-64 0,-3 7,-9 11,-8 55,10 111,14 166,30 19,6 39,12 59,18 6,2 13,4 20,7 23,12 29,25 19,48 -14,32 -29,65 -47,95 -28,47 -72,65 -126,57 -44,-6 -89,-47 -101,-93 -7,-30 -10,-60 -9,-90zm258 12c-5,-3 -9,-6 -14,-7 -64,-23 -130,-38 -197,-45 -10,0 -16,4 -17,14 -3,34 -3,67 3,99 7,39 30,63 64,78 27,13 78,11 106,-25 7,-9 14,-18 19,-28 12,-23 23,-47 34,-70 2,-5 1,-10 2,-16z"/>
     <path class="fil25" d="M10139 3530c-1,6 0,11 -2,16 -11,23 -22,47 -34,70 -5,10 -12,19 -19,28 -28,36 -79,38 -106,25 -34,-15 -57,-39 -64,-78 -6,-32 -6,-65 -3,-99 1,-10 7,-14 17,-13 67,6 133,21 197,44 5,1 9,4 14,7z"/>
     <path class="fil24" d="M9860 3305c-1,29 -20,51 -45,53 -16,1 -28,-5 -35,-19 -10,-19 -4,-55 13,-69 12,-11 27,-14 43,-9 14,5 20,16 23,31 1,5 1,10 1,13l0 0z"/>
     <path class="fil24" d="M10259 3467c3,-21 23,-35 45,-31 22,3 38,27 35,51 -3,17 -27,35 -46,33 -20,-2 -37,-29 -34,-53z"/>
    </g>
    <g>
     <path class="fil26" d="M716 2587l4550 0c251,0 455,224 455,501l0 1053c0,277 -204,501 -455,501l-4550 0c-252,0 -456,-224 -456,-501l0 -1053c0,-277 204,-501 456,-501l0 0z"/>
     <path class="fil1 str1" d="M5106 2587l1814 0c284,0 514,176 514,392l0 1271c0,216 -230,392 -514,392l-1814 0c-285,0 -515,-176 -515,-392l0 -1271c0,-216 230,-392 515,-392l0 0z"/>
     <g>
      <polygon class="fil0" points="3439,4138 3274,4138 3113,3698 2950,4138 2786,4138 2509,3391 2720,3391 2875,3837 3035,3391 3189,3391 3349,3839 3504,3391 3715,3391 "/>
      <polygon class="fil0" points="2186,3081 2186,4147 2383,4147 2383,3081 "/>
      <path class="fil0" d="M1880 3468c55,58 82,133 82,226l0 454 -197 0 0 -412c0,-53 -14,-96 -41,-127 -27,-32 -64,-48 -110,-48 -123,0 -185,86 -185,257l0 330 -197 0 0 -746 197 0 0 68c60,-60 138,-90 234,-90 90,0 162,29 217,88z"/>
      <polygon class="fil1" points="3868,4079 3868,3874 4157,3764 3868,3654 3868,3449 4433,3659 4434,3659 4434,3660 4434,3868 4434,3869 4433,3869 "/>
      <polygon class="fil1" points="1021,3654 1021,3449 455,3659 454,3659 454,3660 454,3868 454,3869 455,3869 1021,4079 1021,3874 731,3764 "/>
     </g>
     <path class="fil27" d="M5456 3801l-113 0 -41 240 -108 0 42 -240 -133 0 0 -100 150 0 30 -170 -136 0 0 -99 154 0 42 -244 108 0 -43 244 112 0 44 -244 107 0 -43 244 129 0 0 99 -146 0 -30 170 132 0 0 100 -149 0 -43 240 -107 0 42 -240zm-95 -100l112 0 30 -170 -113 0 -29 170z"/>
     <path id="_1" class="fil27" d="M6422 3709c0,112 -26,198 -78,256 -52,59 -122,88 -210,88 -89,0 -159,-29 -211,-88 -52,-58 -78,-144 -78,-256l0 -188c0,-113 26,-198 77,-257 52,-59 122,-88 211,-88 88,0 158,29 210,88 53,59 79,144 79,257l0 188zm-171 -206c0,-67 -10,-117 -30,-148 -21,-31 -50,-47 -88,-47 -39,0 -68,16 -88,47 -20,31 -30,80 -30,148l0 222c0,68 10,118 30,149 20,31 50,47 89,47 38,0 67,-16 87,-47 20,-31 30,-81 30,-149l0 -222z"/>
     <path id="_2" class="fil27" d="M6708 3542l96 0c41,0 71,-11 90,-32 20,-21 29,-51 29,-89 0,-34 -9,-61 -29,-82 -19,-21 -48,-31 -85,-31 -32,0 -59,9 -81,28 -22,19 -32,43 -32,74l-166 0 -1 -4c-3,-67 23,-122 77,-165 53,-43 119,-65 199,-65 88,0 158,21 211,63 52,42 78,103 78,181 0,37 -11,72 -35,105 -23,34 -55,60 -96,78 47,17 83,43 108,78 24,34 37,75 37,121 0,78 -29,139 -85,184 -57,44 -130,67 -218,67 -80,0 -148,-21 -204,-63 -57,-42 -85,-101 -83,-178l1 -3 166 0c0,32 12,59 35,80 24,21 53,32 89,32 40,0 71,-11 94,-33 23,-21 34,-51 34,-88 0,-45 -11,-78 -34,-99 -22,-20 -55,-31 -99,-31l-96 0 0 -128z"/>
     <path id="_3" class="fil28 str2" d="M5456 3801l-113 0 -41 240 -108 0 42 -240 -133 0 0 -100 150 0 30 -170 -136 0 0 -99 154 0 42 -244 108 0 -43 244 112 0 44 -244 107 0 -43 244 129 0 0 99 -146 0 -30 170 132 0 0 100 -149 0 -43 240 -107 0 42 -240zm-95 -100l112 0 30 -170 -113 0 -29 170z"/>
     <path id="_4" class="fil28 str2" d="M6422 3709c0,112 -26,198 -78,256 -52,59 -122,88 -210,88 -89,0 -159,-29 -211,-88 -52,-58 -78,-144 -78,-256l0 -188c0,-113 26,-198 77,-257 52,-59 122,-88 211,-88 88,0 158,29 210,88 53,59 79,144 79,257l0 188zm-171 -206c0,-67 -10,-117 -30,-148 -21,-31 -50,-47 -88,-47 -39,0 -68,16 -88,47 -20,31 -30,80 -30,148l0 222c0,68 10,118 30,149 20,31 50,47 89,47 38,0 67,-16 87,-47 20,-31 30,-81 30,-149l0 -222z"/>
     <path id="_5" class="fil28 str2" d="M6708 3542l96 0c41,0 71,-11 90,-32 20,-21 29,-51 29,-89 0,-34 -9,-61 -29,-82 -19,-21 -48,-31 -85,-31 -32,0 -59,9 -81,28 -22,19 -32,43 -32,74l-166 0 -1 -4c-3,-67 23,-122 77,-165 53,-43 119,-65 199,-65 88,0 158,21 211,63 52,42 78,103 78,181 0,37 -11,72 -35,105 -23,34 -55,60 -96,78 47,17 83,43 108,78 24,34 37,75 37,121 0,78 -29,139 -85,184 -57,44 -130,67 -218,67 -80,0 -148,-21 -204,-63 -57,-42 -85,-101 -83,-178l1 -3 166 0c0,32 12,59 35,80 24,21 53,32 89,32 40,0 71,-11 94,-33 23,-21 34,-51 34,-88 0,-45 -11,-78 -34,-99 -22,-20 -55,-31 -99,-31l-96 0 0 -128z"/>
     <path class="fil27" d="M1575 5439c7,0 13,2 17,6 4,5 6,10 6,17l0 239c0,41 -11,72 -32,93 -21,21 -52,31 -93,31 -41,0 -74,-8 -101,-23 -13,-8 -20,-17 -20,-26 0,-6 1,-10 4,-13 3,-4 7,-5 11,-5 4,0 11,2 20,7 14,7 27,13 39,17 13,4 28,6 46,6 27,0 47,-7 60,-21 14,-14 21,-35 21,-62l0 -48c-8,17 -20,31 -37,40 -16,10 -35,14 -57,14 -25,0 -46,-5 -65,-17 -18,-11 -33,-27 -43,-48 -10,-20 -16,-44 -16,-71 0,-27 6,-51 16,-72 10,-21 25,-37 43,-48 19,-11 40,-17 65,-17 21,0 40,5 57,14 16,10 28,23 36,40l0 -30c0,-7 2,-12 6,-17 4,-4 10,-6 17,-6zm-107 234c26,0 47,-8 62,-26 15,-17 22,-41 22,-72 0,-31 -7,-55 -22,-72 -15,-18 -36,-27 -62,-27 -27,0 -48,9 -63,27 -16,17 -23,41 -23,72 0,31 7,55 23,72 15,18 36,26 63,26z"/>
     <path id="_1_0" class="fil27" d="M1706 5723c-7,0 -13,-2 -17,-6 -4,-4 -6,-10 -6,-17l0 -238c0,-7 2,-13 6,-17 4,-4 10,-6 17,-6 7,0 12,2 16,6 4,4 6,10 6,17l0 238c0,8 -2,13 -6,17 -4,4 -9,6 -16,6zm0 -343c-9,0 -17,-3 -22,-8 -6,-5 -9,-12 -9,-21 0,-8 3,-15 9,-20 5,-5 13,-8 22,-8 9,0 16,3 22,8 5,5 8,12 8,20 0,9 -3,16 -8,21 -6,5 -13,8 -22,8z"/>
     <path id="_2_1" class="fil27" d="M1941 5686c13,2 19,8 19,19 0,6 -2,11 -7,14 -4,3 -12,4 -21,4l-15 -2c-30,-2 -52,-11 -67,-27 -14,-15 -21,-39 -21,-71l0 -142 -38 0c-6,0 -11,-2 -15,-5 -4,-3 -5,-7 -5,-13 0,-5 1,-10 5,-13 4,-3 9,-5 15,-5l38 0 0 -64c0,-7 2,-13 6,-17 4,-4 10,-5 17,-5 7,0 12,1 16,5 4,4 7,10 7,17l0 64 62 0c6,0 11,2 15,5 3,3 5,8 5,13 0,6 -2,10 -5,13 -4,3 -9,5 -15,5l-62 0 0 144c0,21 4,36 12,45 9,9 21,14 38,15l16 1z"/>
     <path id="_3_2" class="fil27" d="M2144 5438c33,0 57,9 74,27 16,19 25,46 25,82l0 153c0,7 -3,13 -7,17 -4,4 -9,6 -16,6 -7,0 -13,-2 -17,-6 -4,-4 -6,-10 -6,-17l0 -152c0,-24 -5,-42 -15,-54 -10,-12 -26,-18 -48,-18 -25,0 -45,8 -60,24 -15,15 -23,36 -23,62l0 138c0,7 -2,13 -6,17 -4,4 -9,6 -16,6 -8,0 -13,-2 -17,-6 -4,-4 -7,-10 -7,-17l0 -359c0,-6 3,-12 7,-16 4,-4 10,-6 17,-6 7,0 12,2 16,6 4,4 6,9 6,16l0 148c9,-17 22,-29 38,-38 16,-9 35,-13 55,-13z"/>
     <path id="_4_3" class="fil27" d="M2535 5439c7,0 13,2 17,6 3,5 5,10 5,17l0 239c0,6 -2,11 -5,15 -4,4 -10,7 -17,7 -7,0 -12,-2 -16,-6 -4,-4 -6,-9 -6,-16l0 -28c-9,16 -21,29 -37,38 -15,8 -33,13 -52,13 -33,0 -58,-9 -74,-28 -17,-18 -25,-45 -25,-81l0 -153c0,-7 2,-12 6,-17 4,-4 10,-6 17,-6 7,0 13,2 17,6 4,5 6,10 6,17l0 152c0,25 5,43 14,54 10,12 26,17 47,17 24,0 43,-7 58,-23 14,-16 22,-36 22,-62l0 -138c0,-7 2,-12 6,-17 4,-4 10,-6 17,-6z"/>
     <path id="_5_4" class="fil27" d="M2781 5438c24,0 45,6 64,18 18,11 33,28 43,49 10,22 15,47 15,75 0,28 -5,53 -15,75 -10,22 -25,39 -43,51 -19,12 -40,18 -64,18 -21,0 -40,-5 -56,-14 -16,-10 -28,-23 -37,-40l0 30c0,7 -2,12 -5,16 -4,4 -10,7 -17,7 -7,0 -13,-3 -17,-7 -4,-4 -6,-9 -6,-16l0 -359c0,-6 2,-12 6,-16 4,-4 10,-6 17,-6 7,0 13,2 17,6 3,4 5,9 5,16l0 151c9,-17 21,-30 37,-40 16,-9 35,-14 56,-14zm-9 248c27,0 47,-9 62,-28 15,-19 22,-45 22,-78 0,-33 -7,-58 -22,-76 -15,-18 -35,-28 -62,-28 -27,0 -47,10 -62,28 -14,18 -22,43 -22,77 0,33 8,59 22,78 15,18 35,27 62,27z"/>
     <path id="_6" class="fil27" d="M2984 5723c-9,0 -16,-3 -22,-9 -6,-6 -9,-14 -9,-23 0,-9 3,-17 9,-23 6,-6 13,-9 22,-9 9,0 16,3 22,9 6,6 9,14 9,23 0,9 -3,17 -9,23 -6,6 -13,9 -22,9z"/>
     <path id="_7" class="fil27" d="M3195 5724c-26,0 -49,-6 -68,-18 -20,-11 -35,-28 -46,-49 -11,-22 -16,-47 -16,-75 0,-28 5,-53 17,-75 11,-22 26,-39 46,-51 20,-12 43,-18 69,-18 14,0 28,2 43,6 14,4 26,10 37,17 6,5 11,9 14,14 3,4 4,9 4,14 0,5 -1,9 -4,13 -3,3 -7,5 -11,5 -3,0 -5,-1 -9,-2 -3,-2 -5,-3 -7,-5 -2,-1 -4,-2 -4,-3 -10,-6 -19,-11 -28,-15 -9,-4 -20,-6 -33,-6 -27,0 -49,10 -64,28 -15,19 -23,45 -23,78 0,33 8,59 23,77 15,18 37,27 64,27 13,0 24,-2 33,-6 9,-4 19,-9 28,-15 4,-3 8,-5 12,-7 4,-2 7,-3 10,-3 4,0 7,2 10,5 3,4 4,8 4,13 0,5 -1,10 -4,14 -2,4 -7,8 -14,13 -11,7 -24,13 -38,17 -15,5 -30,7 -45,7z"/>
     <path id="_8" class="fil27" d="M3466 5724c-26,0 -49,-6 -69,-18 -20,-11 -35,-28 -46,-50 -10,-21 -16,-46 -16,-75 0,-29 6,-54 16,-75 11,-22 26,-39 46,-50 20,-12 43,-18 69,-18 26,0 49,6 69,18 19,11 35,28 46,50 10,21 16,46 16,75 0,29 -6,54 -16,75 -11,22 -27,39 -46,50 -20,12 -43,18 -69,18zm0 -38c27,0 48,-9 62,-27 15,-18 22,-44 22,-78 0,-34 -8,-59 -22,-78 -15,-18 -36,-27 -62,-27 -27,0 -48,9 -62,27 -15,19 -22,44 -22,78 0,34 7,60 21,78 15,18 36,27 63,27z"/>
     <path id="_9" class="fil27" d="M3971 5438c61,0 91,36 91,109l0 153c0,7 -2,13 -6,17 -4,4 -10,6 -16,6 -7,0 -13,-2 -17,-6 -4,-4 -6,-10 -6,-17l0 -152c0,-25 -5,-43 -14,-55 -9,-11 -23,-17 -42,-17 -23,0 -41,8 -55,24 -13,15 -19,36 -19,62l0 138c0,7 -2,13 -7,17 -4,4 -10,6 -16,6 -7,0 -13,-2 -17,-6 -4,-4 -6,-10 -6,-17l0 -152c0,-25 -5,-43 -14,-55 -9,-11 -23,-17 -42,-17 -23,0 -41,8 -54,24 -14,15 -20,36 -20,62l0 138c0,7 -2,13 -7,17 -4,4 -9,6 -16,6 -7,0 -12,-2 -17,-6 -4,-4 -6,-10 -6,-17l0 -238c0,-7 2,-12 6,-17 5,-4 10,-6 17,-6 6,0 12,2 16,6 4,4 6,9 6,16l0 27c8,-16 20,-28 34,-37 15,-9 32,-13 51,-13 43,0 71,18 84,54 8,-16 20,-29 36,-39 17,-10 35,-15 56,-15z"/>
     <path id="_10" class="fil27" d="M4135 5740c-1,5 -4,9 -7,11 -4,3 -7,4 -12,4 -5,0 -10,-2 -14,-5 -4,-4 -6,-9 -6,-14 0,-3 1,-5 2,-8l133 -417c2,-5 4,-9 7,-11 4,-3 8,-4 12,-4 5,0 10,2 14,6 4,3 6,8 6,14 0,1 0,4 -1,8l-134 416z"/>
     <path id="_11" class="fil27" d="M4384 5438c69,0 103,36 103,108l0 154c0,7 -2,12 -6,16 -4,4 -9,7 -16,7 -7,0 -12,-3 -16,-7 -4,-4 -6,-9 -6,-16l0 -27c-7,16 -18,29 -33,37 -15,9 -32,14 -51,14 -18,0 -34,-4 -49,-11 -15,-7 -26,-17 -35,-30 -9,-13 -13,-27 -13,-42 0,-21 5,-37 16,-49 10,-11 28,-19 52,-24 24,-5 57,-8 100,-8l13 0 0 -19c0,-22 -5,-39 -14,-49 -9,-11 -24,-16 -45,-16 -26,0 -52,7 -78,21 -10,6 -17,9 -21,9 -5,0 -9,-1 -12,-5 -3,-3 -4,-7 -4,-13 0,-5 1,-10 5,-14 3,-3 8,-8 15,-12 13,-7 28,-13 45,-17 17,-5 33,-7 50,-7zm-19 250c23,0 41,-8 56,-23 14,-16 22,-35 22,-59l0 -17 -10 0c-34,0 -59,2 -76,5 -17,2 -30,7 -37,14 -7,6 -11,16 -11,29 0,14 5,27 16,36 11,10 24,15 40,15z"/>
     <path id="_12" class="fil27" d="M4794 5439c7,0 13,2 17,6 4,5 6,10 6,17l0 239c0,41 -11,72 -32,93 -21,21 -52,31 -93,31 -41,0 -74,-8 -101,-23 -13,-8 -20,-17 -20,-26 0,-6 1,-10 4,-13 3,-4 7,-5 11,-5 4,0 11,2 20,7 14,7 27,13 39,17 13,4 28,6 46,6 27,0 47,-7 60,-21 14,-14 21,-35 21,-62l0 -48c-8,17 -20,31 -37,40 -16,10 -35,14 -58,14 -24,0 -45,-5 -64,-17 -18,-11 -33,-27 -43,-48 -10,-20 -16,-44 -16,-71 0,-27 6,-51 16,-72 10,-21 25,-37 43,-48 19,-11 40,-17 64,-17 22,0 41,5 57,14 17,10 29,23 37,40l0 -30c0,-7 2,-12 6,-17 4,-4 10,-6 17,-6zm-107 234c26,0 47,-8 62,-26 15,-17 22,-41 22,-72 0,-31 -7,-55 -22,-72 -15,-18 -36,-27 -62,-27 -27,0 -48,9 -63,27 -16,17 -23,41 -23,72 0,31 7,55 23,72 15,18 36,26 63,26z"/>
     <path id="_13" class="fil27" d="M5023 5358c-20,1 -35,8 -45,19 -10,11 -15,28 -15,50l0 18 62 0c7,0 11,2 15,5 3,3 5,8 5,13 0,6 -2,10 -5,13 -4,3 -8,5 -15,5l-62 0 0 219c0,7 -3,13 -7,17 -4,4 -10,6 -16,6 -7,0 -12,-2 -17,-6 -4,-4 -6,-10 -6,-17l0 -219 -38 0c-6,0 -11,-2 -15,-5 -4,-3 -5,-7 -5,-13 0,-5 1,-10 5,-13 4,-3 9,-5 15,-5l38 0 0 -10c0,-34 8,-61 25,-80 17,-20 41,-30 73,-33l15 -1c9,0 17,0 21,3 4,3 6,7 6,14 0,11 -6,17 -19,19l-15 1z"/>
     <path id="_14" class="fil27" d="M5201 5686c13,2 19,8 19,19 0,6 -2,11 -7,14 -4,3 -11,4 -21,4l-15 -2c-30,-2 -52,-11 -67,-27 -14,-15 -21,-39 -21,-71l0 -142 -38 0c-6,0 -11,-2 -15,-5 -3,-3 -5,-7 -5,-13 0,-5 2,-10 5,-13 4,-3 9,-5 15,-5l38 0 0 -64c0,-7 2,-13 6,-17 4,-4 10,-5 17,-5 7,0 12,1 16,5 5,4 7,10 7,17l0 64 62 0c6,0 11,2 15,5 3,3 5,8 5,13 0,6 -2,10 -5,13 -4,3 -9,5 -15,5l-62 0 0 144c0,21 4,36 12,45 9,9 22,14 38,15l16 1z"/>
     <path id="_15" class="fil27" d="M5478 5656c5,0 8,2 11,5 3,3 5,8 5,13 0,9 -7,18 -20,26 -14,8 -28,14 -43,18 -15,4 -30,6 -44,6 -43,0 -76,-13 -101,-38 -24,-25 -37,-60 -37,-105 0,-28 6,-53 17,-74 11,-22 26,-39 46,-51 19,-12 42,-18 67,-18 36,0 64,12 85,35 21,23 32,55 32,95 0,7 -2,13 -5,16 -3,4 -7,5 -14,5l-182 0c3,65 34,97 92,97 15,0 27,-2 38,-5 10,-4 22,-10 34,-17 9,-5 16,-8 19,-8l0 0zm-98 -182c-24,0 -44,7 -58,22 -15,15 -23,37 -26,64l160 0c-1,-28 -8,-49 -21,-64 -13,-15 -32,-22 -55,-22z"/>
     <path id="_16" class="fil27" d="M5677 5724c-26,0 -49,-6 -68,-18 -20,-11 -35,-28 -46,-49 -11,-22 -16,-47 -16,-75 0,-28 5,-53 16,-75 11,-22 27,-39 47,-51 20,-12 43,-18 69,-18 14,0 28,2 42,6 15,4 27,10 37,17 7,5 12,9 15,14 3,4 4,9 4,14 0,5 -1,9 -4,13 -3,3 -7,5 -11,5 -3,0 -6,-1 -9,-2 -3,-2 -5,-3 -7,-5 -2,-1 -4,-2 -5,-3 -9,-6 -19,-11 -27,-15 -9,-4 -20,-6 -33,-6 -27,0 -49,10 -64,28 -15,19 -23,45 -23,78 0,33 8,59 23,77 15,18 37,27 64,27 13,0 24,-2 33,-6 9,-4 19,-9 28,-15 4,-3 8,-5 12,-7 4,-2 7,-3 9,-3 5,0 8,2 11,5 3,4 4,8 4,13 0,5 -1,10 -4,14 -2,4 -7,8 -14,13 -11,7 -24,13 -39,17 -14,5 -29,7 -44,7z"/>
     <path id="_17" class="fil27" d="M5972 5438c33,0 57,9 74,27 16,19 25,46 25,82l0 153c0,7 -3,13 -7,17 -4,4 -9,6 -16,6 -7,0 -13,-2 -17,-6 -4,-4 -6,-10 -6,-17l0 -152c0,-24 -5,-42 -15,-54 -10,-12 -26,-18 -48,-18 -25,0 -45,8 -60,24 -15,15 -23,36 -23,62l0 138c0,7 -2,13 -6,17 -4,4 -9,6 -16,6 -8,0 -13,-2 -17,-6 -4,-4 -7,-10 -7,-17l0 -359c0,-6 3,-12 7,-16 4,-4 10,-6 17,-6 7,0 12,2 16,6 4,4 6,9 6,16l0 148c9,-17 22,-29 38,-38 16,-9 35,-13 55,-13z"/>
     <g>
      <path class="fil3" d="M3239 1366c-45,0 -100,11 -159,80l0 -194c0,-49 -39,-87 -87,-87 -49,0 -87,38 -87,87l0 628c0,49 38,87 87,87 48,0 87,-38 87,-87l0 -243c0,-69 34,-108 93,-108 59,0 91,35 91,108l0 243c0,49 41,87 86,87 49,0 91,-38 91,-87l0 -295c0,-135 -77,-219 -202,-219l0 0zm504 4c-70,0 -129,10 -184,31 -28,10 -45,38 -45,69 0,42 31,73 72,73 7,0 14,0 25,-3 34,-11 69,-18 111,-18 94,0 114,53 114,98 -34,-11 -76,-21 -132,-21 -149,0 -236,69 -236,191l0 0c0,107 80,180 202,180 69,0 121,-21 166,-62 7,31 39,59 84,59 48,0 83,-35 83,-84l0 -260c0,-80 -21,-142 -63,-187 -41,-42 -111,-66 -197,-66l0 0zm-25 475c-48,0 -80,-24 -80,-62l0 0c0,-45 39,-73 105,-73 31,0 66,7 93,21l0 24c0,52 -48,90 -118,90l0 0 0 0zm521 -399c45,-52 101,-80 170,-80 132,0 267,104 267,302l0 4c0,90 -27,166 -79,222 -49,52 -115,76 -188,76 -66,0 -121,-21 -170,-73l0 153c0,49 -38,87 -87,87 -48,0 -87,-38 -87,-87l0 -590c0,-49 39,-90 87,-90 45,0 80,34 87,76l0 0zm260 222c0,-87 -55,-149 -132,-149 -72,0 -128,62 -128,149l0 4c0,87 56,149 128,149 77,0 132,-62 132,-149l0 -4zm563 -302c-70,0 -125,28 -170,80 -7,-42 -42,-76 -87,-76 -49,0 -87,41 -87,90l0 590c0,49 38,87 87,87 48,0 87,-38 87,-87l0 -153c48,52 100,73 170,73 69,0 135,-24 184,-76 55,-56 83,-132 83,-222l0 -4c0,-198 -135,-302 -267,-302l0 0zm-42 153c76,0 132,62 132,149l0 4c0,87 -56,149 -132,149 -76,0 -128,-62 -128,-149l0 -4c0,-87 52,-149 128,-149zm698 -80c17,-45 48,-69 87,-69 45,0 83,38 83,83 0,14 -7,31 -11,42l-197 475c-49,122 -101,163 -198,163 -35,0 -59,-3 -91,-13 -20,-7 -55,-28 -55,-73 0,-49 35,-73 69,-73 14,0 25,0 32,3 13,4 20,7 31,7 24,0 38,-7 48,-31l7 -11 -194 -447c-4,-11 -7,-28 -7,-39 0,-48 35,-86 83,-86 42,0 70,24 87,66l115 312 111 -309 0 0 0 0z"/>
      <g>
       <path class="fil1" d="M2778 1286l0 518c0,201 -166,368 -371,368l-38 0 -191 190c-7,7 -18,14 -32,14 -10,0 -17,-7 -27,-10l-4 -4 0 0 -187 -190 -38 0c-205,0 -372,-167 -372,-368l0 -518c0,-201 167,-368 372,-368l517 0c205,0 371,167 371,368l0 0z"/>
       <path class="fil0" d="M1810 1630c-35,0 -56,42 -35,73 83,115 219,191 371,191 157,0 292,-76 375,-191 21,-31 0,-73 -38,-73l-673 0z"/>
       <path class="fil0" d="M2025 1453l-219 0 0 -111c0,-59 49,-108 108,-108 62,0 111,49 111,108l0 111 0 0z"/>
       <path class="fil0" d="M2490 1453l-219 0 0 -111c0,-59 49,-108 108,-108 62,0 111,49 111,108l0 111 0 0z"/>
      </g>
     </g>
    </g>
    <g>
     <path class="fil27" d="M16340 5439c7,0 13,2 17,6 4,5 6,10 6,17l0 239c0,41 -10,72 -31,93 -21,21 -52,31 -94,31 -40,0 -74,-8 -100,-23 -14,-8 -21,-17 -21,-26 0,-6 2,-10 5,-13 2,-4 6,-5 11,-5 3,0 10,2 20,7 13,7 26,13 39,17 13,4 28,6 46,6 26,0 46,-7 60,-21 13,-14 20,-35 20,-62l0 -48c-8,17 -20,31 -36,40 -17,10 -36,14 -58,14 -24,0 -45,-5 -64,-17 -19,-11 -33,-27 -44,-48 -10,-20 -15,-44 -15,-71 0,-27 5,-51 15,-72 11,-21 25,-37 44,-48 19,-11 40,-17 64,-17 22,0 41,5 57,14 16,10 28,23 37,40l0 -30c0,-7 2,-12 6,-17 4,-4 9,-6 16,-6zm-107 234c26,0 47,-8 62,-26 15,-17 23,-41 23,-72 0,-31 -8,-55 -23,-72 -14,-18 -35,-27 -62,-27 -27,0 -48,9 -63,27 -15,17 -23,41 -23,72 0,31 8,55 23,72 15,18 36,26 63,26z"/>
     <path id="_1_5" class="fil27" d="M16471 5723c-7,0 -12,-2 -16,-6 -5,-4 -7,-10 -7,-17l0 -238c0,-7 2,-13 7,-17 4,-4 9,-6 16,-6 7,0 12,2 17,6 4,4 6,10 6,17l0 238c0,8 -2,13 -6,17 -5,4 -10,6 -17,6zm0 -343c-9,0 -16,-3 -22,-8 -5,-5 -8,-12 -8,-21 0,-8 3,-15 8,-20 6,-5 13,-8 22,-8 9,0 17,3 22,8 6,5 9,12 9,20 0,9 -3,16 -9,21 -5,5 -13,8 -22,8z"/>
     <path id="_2_6" class="fil27" d="M16706 5686c13,2 20,8 20,19 0,6 -3,11 -7,14 -5,3 -12,4 -21,4l-16 -2c-30,-2 -52,-11 -66,-27 -15,-15 -22,-39 -22,-71l0 -142 -38 0c-6,0 -11,-2 -14,-5 -4,-3 -6,-7 -6,-13 0,-5 2,-10 6,-13 3,-3 8,-5 14,-5l38 0 0 -64c0,-7 2,-13 6,-17 5,-4 10,-5 17,-5 7,0 13,1 17,5 4,4 6,10 6,17l0 64 63 0c6,0 10,2 14,5 4,3 5,8 5,13 0,6 -1,10 -5,13 -4,3 -8,5 -14,5l-63 0 0 144c0,21 4,36 13,45 8,9 21,14 38,15l15 1z"/>
     <path id="_3_7" class="fil27" d="M16910 5438c32,0 57,9 73,27 17,19 25,46 25,82l0 153c0,7 -2,13 -6,17 -4,4 -10,6 -17,6 -7,0 -12,-2 -17,-6 -4,-4 -6,-10 -6,-17l0 -152c0,-24 -5,-42 -15,-54 -10,-12 -26,-18 -47,-18 -26,0 -46,8 -61,24 -15,15 -22,36 -22,62l0 138c0,7 -2,13 -6,17 -4,4 -10,6 -17,6 -7,0 -13,-2 -17,-6 -4,-4 -6,-10 -6,-17l0 -359c0,-6 2,-12 6,-16 5,-4 10,-6 17,-6 7,0 13,2 17,6 4,4 6,9 6,16l0 148c9,-17 21,-29 37,-38 17,-9 35,-13 56,-13z"/>
     <path id="_4_8" class="fil27" d="M17300 5439c8,0 13,2 17,6 4,5 6,10 6,17l0 239c0,6 -2,11 -6,15 -4,4 -9,7 -17,7 -6,0 -12,-2 -16,-6 -4,-4 -6,-9 -6,-16l0 -28c-8,16 -20,29 -36,38 -16,8 -33,13 -53,13 -33,0 -57,-9 -74,-28 -16,-18 -25,-45 -25,-81l0 -153c0,-7 2,-12 7,-17 4,-4 9,-6 17,-6 7,0 12,2 16,6 4,5 6,10 6,17l0 152c0,25 5,43 15,54 10,12 25,17 46,17 24,0 44,-7 58,-23 15,-16 22,-36 22,-62l0 -138c0,-7 2,-12 6,-17 5,-4 10,-6 17,-6z"/>
     <path id="_5_9" class="fil27" d="M17546 5438c25,0 46,6 64,18 19,11 33,28 43,49 10,22 15,47 15,75 0,28 -5,53 -15,75 -10,22 -24,39 -43,51 -18,12 -39,18 -64,18 -21,0 -40,-5 -56,-14 -16,-10 -28,-23 -36,-40l0 30c0,7 -2,12 -6,16 -4,4 -10,7 -17,7 -7,0 -12,-3 -17,-7 -4,-4 -6,-9 -6,-16l0 -359c0,-6 2,-12 6,-16 5,-4 10,-6 17,-6 7,0 13,2 17,6 4,4 6,9 6,16l0 151c8,-17 20,-30 36,-40 16,-9 35,-14 56,-14zm-9 248c27,0 48,-9 63,-28 14,-19 22,-45 22,-78 0,-33 -8,-58 -22,-76 -15,-18 -36,-28 -63,-28 -26,0 -47,10 -61,28 -15,18 -22,43 -22,77 0,33 7,59 22,78 14,18 35,27 61,27z"/>
     <path id="_6_10" class="fil27" d="M17750 5723c-9,0 -17,-3 -23,-9 -6,-6 -9,-14 -9,-23 0,-9 3,-17 9,-23 6,-6 14,-9 23,-9 8,0 16,3 21,9 6,6 9,14 9,23 0,9 -3,17 -9,23 -5,6 -13,9 -21,9z"/>
     <path id="_7_11" class="fil27" d="M17960 5724c-25,0 -48,-6 -68,-18 -20,-11 -35,-28 -46,-49 -10,-22 -16,-47 -16,-75 0,-28 6,-53 17,-75 11,-22 27,-39 47,-51 20,-12 43,-18 68,-18 15,0 29,2 43,6 14,4 27,10 37,17 7,5 12,9 14,14 3,4 5,9 5,14 0,5 -2,9 -5,13 -2,3 -6,5 -11,5 -2,0 -5,-1 -8,-2 -3,-2 -6,-3 -8,-5 -2,-1 -3,-2 -4,-3 -10,-6 -19,-11 -28,-15 -9,-4 -19,-6 -32,-6 -28,0 -49,10 -64,28 -16,19 -23,45 -23,78 0,33 7,59 23,77 15,18 36,27 64,27 13,0 24,-2 33,-6 9,-4 18,-9 28,-15 4,-3 8,-5 12,-7 3,-2 7,-3 9,-3 4,0 8,2 11,5 2,4 4,8 4,13 0,5 -2,10 -4,14 -3,4 -8,8 -15,13 -10,7 -23,13 -38,17 -15,5 -30,7 -45,7z"/>
     <path id="_8_12" class="fil27" d="M18231 5724c-26,0 -49,-6 -68,-18 -20,-11 -35,-28 -46,-50 -11,-21 -16,-46 -16,-75 0,-29 5,-54 16,-75 11,-22 26,-39 46,-50 19,-12 42,-18 68,-18 26,0 49,6 69,18 20,11 35,28 46,50 11,21 16,46 16,75 0,29 -5,54 -16,75 -11,22 -26,39 -46,50 -20,12 -43,18 -69,18zm0 -38c27,0 48,-9 63,-27 14,-18 21,-44 21,-78 0,-34 -7,-59 -22,-78 -14,-18 -35,-27 -62,-27 -27,0 -47,9 -62,27 -15,19 -22,44 -22,78 0,34 7,60 22,78 14,18 35,27 62,27z"/>
     <path id="_9_13" class="fil27" d="M18736 5438c61,0 92,36 92,109l0 153c0,7 -2,13 -6,17 -5,4 -10,6 -17,6 -7,0 -12,-2 -16,-6 -5,-4 -7,-10 -7,-17l0 -152c0,-25 -4,-43 -14,-55 -9,-11 -23,-17 -42,-17 -23,0 -41,8 -54,24 -13,15 -20,36 -20,62l0 138c0,7 -2,13 -6,17 -5,4 -10,6 -17,6 -7,0 -12,-2 -16,-6 -4,-4 -7,-10 -7,-17l0 -152c0,-25 -4,-43 -13,-55 -9,-11 -23,-17 -43,-17 -23,0 -40,8 -54,24 -13,15 -20,36 -20,62l0 138c0,7 -2,13 -6,17 -4,4 -10,6 -16,6 -7,0 -13,-2 -17,-6 -4,-4 -7,-10 -7,-17l0 -238c0,-7 3,-12 7,-17 4,-4 10,-6 17,-6 6,0 11,2 15,6 4,4 7,9 7,16l0 27c8,-16 19,-28 34,-37 15,-9 32,-13 51,-13 43,0 71,18 84,54 8,-16 20,-29 36,-39 16,-10 35,-15 55,-15z"/>
     <path id="_10_14" class="fil27" d="M18901 5740c-2,5 -4,9 -8,11 -3,3 -7,4 -11,4 -5,0 -10,-2 -14,-5 -4,-4 -6,-9 -6,-14 0,-3 0,-5 1,-8l134 -417c1,-5 3,-9 7,-11 3,-3 7,-4 11,-4 5,0 10,2 14,6 4,3 6,8 6,14 0,1 0,4 -1,8l-133 416z"/>
     <path id="_11_15" class="fil27" d="M19149 5438c69,0 104,36 104,108l0 154c0,7 -2,12 -6,16 -4,4 -9,7 -16,7 -7,0 -12,-3 -17,-7 -4,-4 -6,-9 -6,-16l0 -27c-7,16 -18,29 -33,37 -14,9 -31,14 -50,14 -18,0 -34,-4 -49,-11 -15,-7 -27,-17 -35,-30 -9,-13 -13,-27 -13,-42 0,-21 5,-37 15,-49 11,-11 28,-19 52,-24 24,-5 58,-8 101,-8l12 0 0 -19c0,-22 -4,-39 -14,-49 -9,-11 -24,-16 -45,-16 -25,0 -51,7 -77,21 -11,6 -18,9 -22,9 -4,0 -8,-1 -11,-5 -3,-3 -5,-7 -5,-13 0,-5 2,-10 5,-14 3,-3 9,-8 16,-12 13,-7 28,-13 45,-17 16,-5 33,-7 49,-7zm-18 250c22,0 41,-8 55,-23 15,-16 22,-35 22,-59l0 -17 -10 0c-33,0 -58,2 -76,5 -17,2 -29,7 -37,14 -7,6 -11,16 -11,29 0,14 6,27 16,36 11,10 25,15 41,15z"/>
     <path id="_12_16" class="fil27" d="M19559 5439c7,0 13,2 17,6 4,5 6,10 6,17l0 239c0,41 -10,72 -31,93 -21,21 -53,31 -94,31 -40,0 -74,-8 -100,-23 -14,-8 -21,-17 -21,-26 0,-6 2,-10 5,-13 2,-4 6,-5 11,-5 3,0 10,2 20,7 13,7 26,13 39,17 13,4 28,6 46,6 26,0 46,-7 60,-21 13,-14 20,-35 20,-62l0 -48c-8,17 -20,31 -36,40 -17,10 -36,14 -58,14 -24,0 -45,-5 -64,-17 -19,-11 -33,-27 -44,-48 -10,-20 -15,-44 -15,-71 0,-27 5,-51 15,-72 11,-21 25,-37 44,-48 19,-11 40,-17 64,-17 22,0 41,5 57,14 16,10 28,23 37,40l0 -30c0,-7 2,-12 6,-17 4,-4 9,-6 16,-6zm-107 234c26,0 47,-8 62,-26 15,-17 23,-41 23,-72 0,-31 -8,-55 -23,-72 -14,-18 -35,-27 -62,-27 -27,0 -48,9 -63,27 -15,17 -23,41 -23,72 0,31 8,55 23,72 15,18 36,26 63,26z"/>
     <path id="_13_17" class="fil27" d="M19788 5358c-20,1 -35,8 -45,19 -10,11 -15,28 -15,50l0 18 63 0c6,0 11,2 14,5 4,3 5,8 5,13 0,6 -1,10 -5,13 -3,3 -8,5 -14,5l-63 0 0 219c0,7 -2,13 -6,17 -5,4 -10,6 -17,6 -6,0 -12,-2 -16,-6 -5,-4 -7,-10 -7,-17l0 -219 -38 0c-6,0 -11,-2 -14,-5 -4,-3 -6,-7 -6,-13 0,-5 2,-10 6,-13 3,-3 8,-5 14,-5l38 0 0 -10c0,-34 9,-61 26,-80 17,-20 41,-30 73,-33l14 -1c10,0 17,0 21,3 5,3 7,7 7,14 0,11 -7,17 -20,19l-15 1z"/>
     <path id="_14_18" class="fil27" d="M19966 5686c13,2 20,8 20,19 0,6 -2,11 -7,14 -5,3 -12,4 -21,4l-15 -2c-31,-2 -53,-11 -67,-27 -14,-15 -22,-39 -22,-71l0 -142 -37 0c-7,0 -12,-2 -15,-5 -4,-3 -6,-7 -6,-13 0,-5 2,-10 6,-13 3,-3 8,-5 15,-5l37 0 0 -64c0,-7 3,-13 7,-17 4,-4 9,-5 17,-5 6,0 12,1 16,5 4,4 6,10 6,17l0 64 63 0c6,0 11,2 14,5 4,3 6,8 6,13 0,6 -2,10 -6,13 -3,3 -8,5 -14,5l-63 0 0 144c0,21 4,36 13,45 8,9 21,14 38,15l15 1z"/>
     <path id="_15_19" class="fil27" d="M20244 5656c4,0 8,2 11,5 3,3 4,8 4,13 0,9 -6,18 -20,26 -13,8 -27,14 -42,18 -16,4 -30,6 -45,6 -42,0 -76,-13 -100,-38 -25,-25 -37,-60 -37,-105 0,-28 5,-53 16,-74 11,-22 26,-39 46,-51 20,-12 42,-18 68,-18 35,0 64,12 85,35 21,23 31,55 31,95 0,7 -1,13 -4,16 -3,4 -8,5 -15,5l-182 0c4,65 35,97 92,97 15,0 28,-2 38,-5 11,-4 22,-10 34,-17 10,-5 17,-8 20,-8l0 0zm-99 -182c-24,0 -43,7 -58,22 -14,15 -23,37 -25,64l159 0c0,-28 -7,-49 -21,-64 -13,-15 -31,-22 -55,-22z"/>
     <path id="_16_20" class="fil27" d="M20442 5724c-26,0 -48,-6 -68,-18 -20,-11 -35,-28 -46,-49 -10,-22 -16,-47 -16,-75 0,-28 6,-53 17,-75 11,-22 26,-39 46,-51 20,-12 43,-18 69,-18 15,0 29,2 43,6 14,4 26,10 37,17 7,5 11,9 14,14 3,4 5,9 5,14 0,5 -2,9 -5,13 -3,3 -6,5 -11,5 -2,0 -5,-1 -8,-2 -3,-2 -6,-3 -8,-5 -2,-1 -3,-2 -4,-3 -10,-6 -19,-11 -28,-15 -9,-4 -20,-6 -32,-6 -28,0 -49,10 -65,28 -15,19 -22,45 -22,78 0,33 7,59 22,77 16,18 37,27 65,27 12,0 23,-2 33,-6 9,-4 18,-9 28,-15 4,-3 8,-5 11,-7 4,-2 7,-3 10,-3 4,0 8,2 10,5 3,4 5,8 5,13 0,5 -2,10 -4,14 -3,4 -8,8 -15,13 -11,7 -23,13 -38,17 -15,5 -30,7 -45,7z"/>
     <path id="_17_21" class="fil27" d="M20738 5438c32,0 57,9 73,27 17,19 25,46 25,82l0 153c0,7 -2,13 -6,17 -4,4 -10,6 -17,6 -7,0 -12,-2 -16,-6 -5,-4 -7,-10 -7,-17l0 -152c0,-24 -5,-42 -15,-54 -10,-12 -26,-18 -47,-18 -26,0 -46,8 -61,24 -15,15 -22,36 -22,62l0 138c0,7 -2,13 -6,17 -4,4 -10,6 -17,6 -7,0 -13,-2 -17,-6 -4,-4 -6,-10 -6,-17l0 -359c0,-6 2,-12 6,-16 5,-4 10,-6 17,-6 7,0 13,2 17,6 4,4 6,9 6,16l0 148c9,-17 21,-29 37,-38 17,-9 35,-13 56,-13z"/>
     <path class="fil26" d="M17048 2587l4550 0c252,0 456,224 456,501l0 1053c0,277 -204,501 -456,501l-4550 0c-251,0 -455,-224 -455,-501l0 -1053c0,-277 204,-501 455,-501l0 0z"/>
     <path class="fil1 str1" d="M15398 2587l1814 0c285,0 515,176 515,392l0 1271c0,216 -230,392 -515,392l-1814 0c-284,0 -515,-176 -515,-392l0 -1271c0,-216 231,-392 515,-392l0 0z"/>
     <path class="fil27" d="M15612 3801l-112 0 -42 240 -107 0 42 -240 -133 0 0 -100 150 0 30 -170 -136 0 0 -99 153 0 43 -244 107 0 -43 244 113 0 43 -244 107 0 -42 244 128 0 0 99 -146 0 -30 170 132 0 0 100 -149 0 -42 240 -108 0 42 -240zm-94 -100l111 0 30 -170 -112 0 -29 170z"/>
     <path id="_1_22" class="fil27" d="M16578 3709c0,112 -26,198 -77,256 -52,59 -122,88 -210,88 -89,0 -160,-29 -212,-88 -52,-58 -78,-144 -78,-256l0 -188c0,-113 26,-198 78,-257 52,-59 122,-88 210,-88 89,0 159,29 211,88 52,59 78,144 78,257l0 188zm-170 -206c0,-67 -10,-117 -31,-148 -20,-31 -49,-47 -88,-47 -38,0 -67,16 -87,47 -20,31 -30,80 -30,148l0 222c0,68 10,118 30,149 20,31 50,47 89,47 38,0 67,-16 87,-47 20,-31 30,-81 30,-149l0 -222z"/>
     <path id="_2_23" class="fil27" d="M16864 3542l97 0c40,0 70,-11 90,-32 19,-21 29,-51 29,-89 0,-34 -10,-61 -29,-82 -20,-21 -48,-31 -85,-31 -32,0 -59,9 -81,28 -22,19 -33,43 -33,74l-165 0 -2 -4c-2,-67 24,-122 77,-165 53,-43 120,-65 199,-65 88,0 159,21 211,63 53,42 79,103 79,181 0,37 -12,72 -35,105 -24,34 -56,60 -97,78 47,17 83,43 108,78 25,34 37,75 37,121 0,78 -28,139 -85,184 -57,44 -129,67 -218,67 -79,0 -147,-21 -204,-63 -57,-42 -84,-101 -82,-178l1 -3 166 0c0,32 11,59 35,80 23,21 53,32 89,32 39,0 70,-11 93,-33 23,-21 35,-51 35,-88 0,-45 -12,-78 -34,-99 -23,-20 -56,-31 -99,-31l-97 0 0 -128z"/>
     <path id="_3_24" class="fil28 str2" d="M15612 3801l-112 0 -42 240 -107 0 42 -240 -133 0 0 -100 150 0 30 -170 -136 0 0 -99 153 0 43 -244 107 0 -43 244 113 0 43 -244 107 0 -42 244 128 0 0 99 -146 0 -30 170 132 0 0 100 -149 0 -42 240 -108 0 42 -240zm-94 -100l111 0 30 -170 -112 0 -29 170z"/>
     <path id="_4_25" class="fil28 str2" d="M16578 3709c0,112 -26,198 -77,256 -52,59 -122,88 -210,88 -89,0 -160,-29 -212,-88 -52,-58 -78,-144 -78,-256l0 -188c0,-113 26,-198 78,-257 52,-59 122,-88 210,-88 89,0 159,29 211,88 52,59 78,144 78,257l0 188zm-170 -206c0,-67 -10,-117 -31,-148 -20,-31 -49,-47 -88,-47 -38,0 -67,16 -87,47 -20,31 -30,80 -30,148l0 222c0,68 10,118 30,149 20,31 50,47 89,47 38,0 67,-16 87,-47 20,-31 30,-81 30,-149l0 -222z"/>
     <path id="_5_26" class="fil28 str2" d="M16864 3542l97 0c40,0 70,-11 90,-32 19,-21 29,-51 29,-89 0,-34 -10,-61 -29,-82 -20,-21 -48,-31 -85,-31 -32,0 -59,9 -81,28 -22,19 -33,43 -33,74l-165 0 -2 -4c-2,-67 24,-122 77,-165 53,-43 120,-65 199,-65 88,0 159,21 211,63 53,42 79,103 79,181 0,37 -12,72 -35,105 -24,34 -56,60 -97,78 47,17 83,43 108,78 25,34 37,75 37,121 0,78 -28,139 -85,184 -57,44 -129,67 -218,67 -79,0 -147,-21 -204,-63 -57,-42 -84,-101 -82,-178l1 -3 166 0c0,32 11,59 35,80 23,21 53,32 89,32 39,0 70,-11 93,-33 23,-21 35,-51 35,-88 0,-45 -12,-78 -34,-99 -23,-20 -56,-31 -99,-31l-97 0 0 -128z"/>
     <g>
      <polygon class="fil0" points="20667,4064 20503,4064 20341,3625 20179,4064 20014,4064 19738,3317 19949,3317 20104,3764 20264,3317 20418,3317 20578,3765 20733,3317 20944,3317 "/>
      <polygon class="fil0" points="19414,3007 19414,4074 19612,4074 19612,3007 "/>
      <path class="fil0" d="M19189 3394c55,58 82,134 82,226l0 455 -197 0 0 -413c0,-53 -14,-95 -41,-127 -28,-32 -64,-48 -110,-48 -124,0 -185,86 -185,257l0 330 -198 0 0 -745 198 0 0 67c59,-59 138,-89 234,-89 90,-1 162,29 217,87z"/>
      <polygon class="fil1" points="18409,3580 18409,3376 17844,3586 17843,3586 17843,3586 17843,3795 17843,3796 17844,3795 18409,4005 18409,3801 18119,3691 "/>
      <g>
       <polygon class="fil1 str1" points="21145,3155 20812,4222 21010,4222 21342,3155 "/>
       <polygon class="fil1" points="21336,4003 21336,3799 21626,3688 21336,3578 21336,3374 21901,3584 21902,3583 21902,3584 21902,3792 21902,3793 21901,3793 "/>
      </g>
     </g>
     <g>
      <path class="fil3" d="M18005 1366c-45,0 -101,11 -160,80l0 -194c0,-49 -38,-87 -87,-87 -48,0 -86,38 -86,87l0 628c0,49 38,87 86,87 49,0 87,-38 87,-87l0 -243c0,-69 35,-108 94,-108 59,0 90,35 90,108l0 243c0,49 42,87 87,87 48,0 90,-38 90,-87l0 -295c0,-135 -76,-219 -201,-219l0 0zm503 4c-69,0 -128,10 -184,31 -28,10 -45,38 -45,69 0,42 31,73 73,73 7,0 14,0 24,-3 35,-11 70,-18 111,-18 94,0 115,53 115,98 -35,-11 -77,-21 -132,-21 -149,0 -236,69 -236,191l0 0c0,107 80,180 201,180 70,0 122,-21 167,-62 7,31 38,59 83,59 49,0 83,-35 83,-84l0 -260c0,-80 -20,-142 -62,-187 -42,-42 -111,-66 -198,-66l0 0zm-24 475c-49,0 -80,-24 -80,-62l0 0c0,-45 38,-73 104,-73 31,0 66,7 94,21l0 24c0,52 -49,90 -118,90l0 0 0 0zm520 -399c46,-52 101,-80 171,-80 131,0 267,104 267,302l0 4c0,90 -28,166 -80,222 -49,52 -115,76 -187,76 -66,0 -122,-21 -171,-73l0 153c0,49 -38,87 -86,87 -49,0 -87,-38 -87,-87l0 -590c0,-49 38,-90 87,-90 45,0 80,34 86,76l0 0zm261 222c0,-87 -56,-149 -132,-149 -73,0 -129,62 -129,149l0 4c0,87 56,149 129,149 76,0 132,-62 132,-149l0 -4zm562 -302c-69,0 -125,28 -170,80 -7,-42 -42,-76 -87,-76 -48,0 -86,41 -86,90l0 590c0,49 38,87 86,87 49,0 87,-38 87,-87l0 -153c49,52 101,73 170,73 70,0 136,-24 184,-76 56,-56 83,-132 83,-222l0 -4c0,-198 -135,-302 -267,-302l0 0zm-41 153c76,0 131,62 131,149l0 4c0,87 -55,149 -131,149 -77,0 -129,-62 -129,-149l0 -4c0,-87 52,-149 129,-149zm697 -80c18,-45 49,-69 87,-69 45,0 83,38 83,83 0,14 -7,31 -10,42l-198 475c-49,122 -101,163 -198,163 -35,0 -59,-3 -90,-13 -21,-7 -56,-28 -56,-73 0,-49 35,-73 70,-73 14,0 24,0 31,3 14,4 21,7 31,7 25,0 38,-7 49,-31l7 -11 -195 -447c-3,-11 -7,-28 -7,-39 0,-48 35,-86 84,-86 41,0 69,24 87,66l114 312 111 -309 0 0 0 0z"/>
      <g>
       <path class="fil1" d="M17544 1286l0 518c0,201 -167,368 -372,368l-38 0 -191 190c-7,7 -17,14 -31,14 -10,0 -17,-7 -28,-10l-3 -4 0 0 -188 -190 -38 0c-205,0 -371,-167 -371,-368l0 -518c0,-201 166,-368 371,-368l517 0c205,0 372,167 372,368l0 0z"/>
       <path class="fil0" d="M16575 1630c-34,0 -55,42 -34,73 83,115 218,191 371,191 156,0 291,-76 375,-191 21,-31 0,-73 -38,-73l-674 0z"/>
       <path class="fil0" d="M16790 1453l-218 0 0 -111c0,-59 48,-108 107,-108 63,0 111,49 111,108l0 111 0 0z"/>
       <path class="fil0" d="M17256 1453l-219 0 0 -111c0,-59 48,-108 107,-108 63,0 112,49 112,108l0 111 0 0z"/>
      </g>
     </g>
    </g>
   </g>
  </g>
 </g>
</svg>
