<?xml version="1.0" encoding="UTF-8"?>
<!DOCTYPE svg PUBLIC "-//W3C//DTD SVG 1.1//EN" "http://www.w3.org/Graphics/SVG/1.1/DTD/svg11.dtd">
<!-- Creator: CorelDRAW X7 -->
<svg xmlns="http://www.w3.org/2000/svg" xml:space="preserve" width="142.212mm" height="177.198mm" version="1.1" style="shape-rendering:geometricPrecision; text-rendering:geometricPrecision; image-rendering:optimizeQuality; fill-rule:evenodd; clip-rule:evenodd"
viewBox="0 0 35370 44071"
 xmlns:xlink="http://www.w3.org/1999/xlink">
 <defs>
  <style type="text/css">
   <![CDATA[
    .fil0 {fill:#12AFCB}
    .fil19 {fill:#28E7B1}
    .fil15 {fill:#664E2B}
    .fil21 {fill:#6B4434}
    .fil8 {fill:#6CDCF2}
    .fil7 {fill:#703F59}
    .fil16 {fill:#86604F}
    .fil17 {fill:#CCA18F}
    .fil18 {fill:#DDF4E4}
    .fil20 {fill:#EBC6B6}
    .fil13 {fill:#F2F3F5}
    .fil10 {fill:#F3C888}
    .fil2 {fill:#F5C2E1}
    .fil6 {fill:#F8CFDD}
    .fil11 {fill:#F9BD70}
    .fil14 {fill:#FEDAC6}
    .fil3 {fill:#FF92CD}
    .fil5 {fill:#FFD152}
    .fil4 {fill:#FFDBEE}
    .fil12 {fill:#FFE7A4}
    .fil9 {fill:#FFEFF4}
    .fil22 {fill:#FFF2E1}
    .fil1 {fill:#FFF7F9}
   ]]>
  </style>
 </defs>
 <g id="Camada_x0020_1">
  <metadata id="CorelCorpID_0Corel-Layer"/>
  <path class="fil0" d="M8032 44071c3568,0 6460,-652 6460,-1457 0,-805 -2892,-1458 -6460,-1458 -3567,0 -6460,653 -6460,1458 0,805 2893,1457 6460,1457z"/>
  <path class="fil0" d="M14501 22136c2988,0 5410,-561 5410,-1253 0,-691 -2422,-1252 -5410,-1252 -2987,0 -5409,561 -5409,1252 0,692 2422,1253 5409,1253z"/>
  <path class="fil0" d="M26038 37305c4481,0 8114,-833 8114,-1861 0,-1027 -3633,-1860 -8114,-1860 -4481,0 -8113,833 -8113,1860 0,1028 3632,1861 8113,1861z"/>
  <path class="fil1" d="M16995 5739c-77,114 -137,220 -212,312 -86,106 -176,213 -281,297 -231,186 -494,223 -770,109 -351,-145 -605,-392 -745,-751 -26,-66 -50,-133 -82,-222 -63,65 -113,115 -160,165 -162,174 -345,316 -570,395 -75,27 -154,45 -232,58 -257,42 -413,-112 -488,-272 -27,-58 -46,-118 -67,-173 -62,-23 -76,26 -101,53 -127,135 -245,279 -380,405 -142,133 -311,228 -506,264 -48,8 -95,17 -143,19 -287,13 -449,-99 -571,-407 -26,48 -51,83 -63,122 -116,390 -166,788 -164,1197 3,786 261,1493 637,2165 94,169 194,336 307,494 427,596 1007,992 1678,1256 192,75 396,128 600,158 261,40 527,63 790,65 811,8 1573,-182 2282,-586 387,-221 743,-485 1045,-812 456,-494 844,-1036 1073,-1680 24,-68 43,-138 61,-209 3,-11 -10,-27 -23,-57 -41,8 -87,12 -131,25 -137,41 -258,6 -359,-84 -90,-80 -174,-169 -244,-266 -181,-249 -327,-519 -453,-800 -32,-70 -40,-158 -130,-211 -39,51 -71,110 -118,151 -67,56 -140,108 -218,146 -134,67 -266,41 -385,-46 -119,-88 -210,-201 -286,-326 -165,-268 -327,-539 -490,-808 -30,-47 -63,-90 -101,-146zm-2255 3430c-2,0 -2,0 -4,0 7,97 7,195 23,291 29,162 222,339 382,362 247,36 509,-132 569,-375 23,-92 19,-191 27,-287 5,-52 22,-95 78,-109 52,-13 112,27 127,85 8,32 13,64 14,96 15,379 -176,652 -535,770 -337,111 -721,-72 -845,-408 -81,-220 -57,-447 -27,-672 6,-47 71,-93 107,-75 32,16 72,50 77,81 11,78 6,160 7,241zm2098 -604c-15,-186 98,-304 307,-323 201,-17 355,105 367,293 12,177 -119,334 -291,349 -192,17 -367,-129 -383,-319zm-3534 -790c-16,-135 44,-258 148,-306 179,-81 431,29 497,216 46,132 -12,291 -132,358 -202,115 -484,-32 -513,-268z"/>
  <path class="fil2" d="M18716 4508c-219,45 -386,-28 -536,-146 -152,-119 -298,-247 -448,-369 -62,-51 -125,-102 -193,-144 -60,-38 -125,-59 -202,-64 -119,-8 -238,-37 -353,-70 -134,-38 -254,-102 -304,-229 -276,-50 -536,-96 -796,-144 -166,-31 -334,-38 -503,-39 -805,-6 -1535,240 -2201,681 -568,376 -1000,881 -1304,1497 -30,62 -39,120 -20,187 30,101 50,204 79,305 45,154 121,209 277,211 131,1 260,-23 367,-98 125,-87 249,-180 354,-289 150,-157 288,-327 389,-523 18,-35 43,-68 71,-95 31,-30 111,-15 129,24 16,36 29,75 36,114 21,112 32,226 58,335 49,205 176,280 377,228 328,-86 564,-298 751,-573 49,-73 86,-155 129,-232 16,-28 33,-56 55,-78 38,-39 125,-18 140,36 12,46 14,96 22,143 18,112 30,225 57,334 90,355 312,599 641,741 216,93 424,65 609,-88 190,-159 317,-364 422,-584 24,-51 43,-106 73,-153 34,-56 127,-60 168,-8 35,44 61,94 90,143 195,326 387,654 586,977 59,96 131,185 210,265 101,103 208,102 324,15 93,-70 145,-171 196,-272 32,-65 59,-134 98,-194 44,-68 144,-53 175,23 14,37 22,78 33,117 119,445 346,834 603,1209 22,33 51,63 78,92 151,157 344,169 515,33 57,-45 65,-110 68,-175 11,-276 9,-551 -41,-824 -101,-559 -331,-1067 -654,-1527 -190,-270 -408,-520 -625,-792z"/>
  <path class="fil3" d="M15925 11653c-541,20 -1061,7 -1577,-116 -127,200 -202,413 -294,618 -477,1055 -891,2133 -1182,3255 79,158 226,211 370,259 414,138 838,215 1279,188 416,-27 837,-26 1243,-136 379,-102 755,-219 1129,-340 105,-34 202,-99 298,-157 73,-44 83,-91 49,-163 -18,-37 -39,-71 -60,-106 -297,-513 -521,-1059 -721,-1616 -174,-488 -340,-979 -463,-1483 -16,-62 -42,-121 -71,-203z"/>
  <path class="fil4" d="M17941 16188c-79,-171 -359,-602 -538,-828 -30,14 -66,27 -97,46 -178,112 -369,193 -569,258 -488,160 -979,312 -1493,359 -407,37 -816,67 -1225,33 -385,-32 -757,-129 -1106,-302 -35,-17 -72,-26 -118,-42 -101,285 -120,562 -80,846 12,89 60,152 138,185 88,36 180,70 273,90 386,83 776,122 1171,105 304,-14 609,-34 913,-52 612,-36 1205,-174 1789,-352 276,-83 546,-186 818,-283 44,-14 83,-41 124,-63z"/>
  <path class="fil2" d="M17044 2745c156,43 316,87 490,134 411,-307 789,-651 1039,-1118 181,-337 204,-694 91,-1058 -24,-75 -65,-148 -109,-214 -47,-70 -128,-76 -186,-13 -60,64 -117,135 -159,211 -66,120 -118,248 -175,372 -24,52 -39,109 -72,153 -20,26 -70,49 -101,43 -31,-5 -66,-44 -80,-77 -18,-43 -15,-95 -25,-142 -36,-174 -72,-349 -113,-522 -22,-94 -63,-182 -147,-266 -25,32 -56,56 -65,87 -30,101 -52,204 -77,305 -10,39 -13,82 -31,115 -14,25 -49,56 -73,54 -35,-2 -86,-21 -100,-49 -39,-79 -60,-166 -93,-249 -17,-41 -44,-78 -73,-129 -76,134 -77,266 -91,392 -14,129 -19,259 -15,388 16,528 56,1052 165,1583z"/>
  <path class="fil1" d="M20979 12141c-34,-118 -114,-160 -187,-209 -40,-26 -85,-46 -122,-76 -54,-43 -44,-133 19,-162 50,-23 106,-34 159,-52 60,-21 121,-41 179,-67 48,-21 74,-62 60,-117 -13,-52 -45,-89 -97,-96 -39,-5 -79,4 -118,4 -51,0 -96,-12 -117,-65 -20,-49 2,-99 62,-142 19,-14 43,-24 62,-37 172,-122 197,-200 138,-446 -97,-22 -184,27 -268,63 -133,57 -259,129 -389,191 -62,29 -103,73 -137,130 -27,43 -70,67 -124,52 -52,-15 -79,-59 -84,-107 -5,-46 11,-94 12,-141 0,-72 3,-145 -9,-216 -11,-66 -58,-113 -118,-144 -73,-38 -148,-14 -179,63 -18,44 -35,91 -40,139 -18,168 -32,337 -45,506 -4,57 8,115 -1,170 -51,309 26,593 162,865 139,280 363,402 689,381 58,-94 12,-186 -11,-277 -12,-46 -39,-89 -50,-135 -17,-69 50,-133 116,-111 45,15 86,42 131,59 100,39 199,40 307,-23z"/>
  <path class="fil1" d="M19444 9618c82,20 128,42 174,40 353,-12 691,-85 951,-344 281,-278 404,-618 308,-1018 -49,-201 -188,-315 -383,-359 -156,-35 -268,31 -320,181 -34,99 -61,201 -95,300 -123,354 -298,681 -504,992 -39,59 -75,119 -131,208z"/>
  <path class="fil1" d="M10320 9152c-83,14 -100,70 -102,127 -2,97 5,194 13,290 11,136 -3,194 -65,207 -91,18 -121,-55 -163,-115 -41,-58 -84,-117 -136,-166 -33,-31 -87,-58 -129,-18 -25,23 -45,72 -40,105 13,78 40,155 65,230 13,38 46,72 49,109 3,34 -11,84 -36,103 -24,19 -81,23 -107,6 -73,-47 -136,-117 -234,-105 -36,4 -71,19 -101,27 -16,65 18,91 49,112 33,23 73,35 107,55 100,58 104,146 10,205 -41,25 -88,42 -126,69 -32,22 -56,54 -97,95 40,30 66,60 99,72 168,64 343,75 520,64 95,-6 191,-12 286,-9 195,6 365,-40 487,-206 119,-163 242,-322 356,-487 51,-72 85,-158 74,-250 -3,-29 -22,-71 -44,-79 -32,-11 -88,-13 -107,7 -67,68 -124,146 -180,224 -42,58 -71,137 -163,110 -75,-22 -74,-96 -82,-160 -20,-177 -47,-353 -126,-515 -20,-40 -53,-74 -77,-107z"/>
  <path class="fil1" d="M11277 7905c-6,-122 -8,-202 -14,-282 -34,-447 -8,-890 92,-1327 5,-23 11,-47 18,-70 56,-174 -40,-298 -170,-391 -107,-78 -299,-82 -424,33 -155,143 -251,314 -254,530 -10,492 172,915 466,1296 39,50 92,90 142,130 29,25 66,38 144,81z"/>
  <path class="fil3" d="M10038 17038c-48,123 -36,238 9,341 163,382 413,689 790,876 14,7 31,5 55,10 57,-70 80,-149 48,-239 -112,-316 -266,-608 -522,-829 -77,-67 -174,-112 -267,-158 -30,-15 -75,-1 -113,-1z"/>
  <path class="fil3" d="M17066 19552c-38,92 -83,185 -118,283 -62,174 -119,351 -177,527 -31,93 -41,189 -16,286 18,68 82,103 148,81 80,-25 140,-78 188,-143 166,-221 238,-470 227,-748 -7,-161 -75,-259 -252,-286z"/>
  <path class="fil5" d="M16737 3244c98,-113 113,-221 102,-339 -15,-171 -60,-333 -114,-495 -95,-287 -229,-554 -410,-794 -72,-95 -159,-183 -254,-255 -118,-88 -224,-57 -304,71 -94,147 -127,316 -133,486 -11,332 14,664 61,993 13,95 48,168 151,195 295,79 591,146 901,138z"/>
  <path class="fil5" d="M17626 3632c211,175 420,351 631,524 56,45 118,85 183,117 119,59 214,31 294,-78 19,-25 33,-55 48,-83 180,-336 327,-686 441,-1050 35,-114 75,-232 16,-349 -81,-50 -162,-26 -240,-17 -227,24 -994,235 -1222,335 -22,90 -45,191 -71,292 -24,100 -51,201 -80,309z"/>
  <path class="fil5" d="M16922 3445c123,82 231,109 343,121 104,10 155,-17 188,-111 28,-83 43,-171 63,-253 -99,-139 -232,-182 -384,-207 -110,130 -121,298 -210,450z"/>
  <path class="fil6" d="M17997 8655c430,-2 758,387 720,808 -17,189 -107,345 -238,452 -110,111 -260,185 -409,209 -343,54 -657,-289 -726,-599 -95,-419 210,-868 653,-870z"/>
  <path class="fil6" d="M11809 8253c2,-71 16,-136 39,-196 59,-321 344,-543 673,-528 366,17 736,250 743,657 9,440 -412,755 -825,713 -303,-29 -640,-318 -630,-646z"/>
  <path class="fil7" d="M16206 11802c143,39 222,120 306,193 246,210 500,406 785,561 225,122 460,189 714,191 513,5 1009,-67 1458,-342 33,-20 69,-34 111,-54 44,57 80,109 123,157 179,200 392,333 667,343 40,2 81,3 120,-2 153,-22 229,-100 244,-253 5,-48 0,-97 0,-159 44,-10 89,-21 133,-31 39,-9 79,-15 117,-27 239,-75 290,-212 155,-420 -26,-40 -58,-76 -95,-124 39,-29 75,-60 115,-85 158,-100 177,-210 117,-399 -19,-60 -63,-111 -102,-177 20,-53 46,-111 64,-172 36,-119 32,-241 5,-361 -30,-130 -110,-191 -243,-188 -131,3 -250,52 -367,106 -110,50 -217,104 -318,153 -86,-31 -78,-108 -103,-163 -60,-133 -151,-227 -294,-266 -167,-45 -306,11 -378,172 -36,79 -65,168 -73,255 -23,250 -44,500 -47,750 -2,226 20,451 32,695 -223,172 -487,282 -776,324 -214,30 -431,43 -647,54 -196,10 -381,-40 -559,-127 -284,-138 -532,-331 -776,-530 -98,-81 -188,-173 -294,-271 87,-59 195,-51 288,-86 97,-36 201,-57 300,-89 106,-36 212,-74 316,-117 96,-40 191,-83 285,-129 94,-46 187,-95 278,-146 91,-52 180,-106 268,-163 87,-57 173,-118 256,-181 83,-64 165,-129 244,-198 85,-74 167,-152 248,-230 76,-74 149,-149 218,-227 70,-77 135,-159 198,-234 524,143 986,24 1382,-309 342,-289 480,-680 428,-1131 -46,-399 -338,-650 -740,-647 -31,0 -62,-1 -110,-1 -3,-44 -10,-82 -8,-119 47,-683 -124,-1316 -432,-1918 -212,-415 -486,-783 -797,-1125 -43,-47 -85,-95 -138,-153 26,-57 48,-116 76,-172 166,-315 310,-640 423,-979 35,-107 65,-217 88,-327 13,-63 14,-130 5,-193 -21,-162 -106,-246 -269,-260 -78,-7 -161,-3 -239,13 -227,47 -453,103 -681,155 -30,7 -61,10 -124,19 45,-59 72,-94 99,-129 140,-177 294,-345 418,-533 284,-432 333,-904 171,-1394 -33,-97 -88,-193 -153,-273 -130,-158 -315,-164 -463,-20 -68,67 -124,148 -182,225 -33,44 -60,94 -101,160 -27,-39 -49,-60 -58,-85 -29,-84 -46,-173 -83,-253 -40,-88 -87,-176 -148,-249 -127,-152 -263,-140 -372,24 -26,39 -47,84 -79,140 -35,-38 -59,-67 -87,-92 -127,-112 -257,-86 -329,69 -33,73 -62,152 -72,231 -25,208 -47,418 -53,628 -4,169 17,340 27,510 1,36 0,74 -1,158 -62,-81 -94,-124 -127,-166 -79,-101 -154,-207 -240,-302 -54,-59 -121,-109 -189,-149 -194,-111 -400,-65 -532,115 -133,183 -181,396 -191,618 -18,365 1,729 69,1089 4,23 0,47 1,85 -46,8 -91,22 -136,21 -856,-4 -1626,275 -2329,746 -487,327 -879,756 -1176,1266 -102,174 -183,361 -274,541 -25,49 -51,97 -82,152 -48,-40 -83,-71 -121,-99 -240,-181 -525,-170 -748,33 -174,157 -276,354 -302,590 -20,179 -10,355 36,530 65,252 154,495 288,718 197,333 326,444 691,594 20,67 45,143 69,220 217,713 545,1367 1014,1945 81,100 169,198 266,281 369,316 764,593 1216,778 45,18 87,41 130,63 6,3 8,13 22,35 -18,24 -38,56 -64,81 -232,215 -481,406 -773,529 -415,174 -836,213 -1269,60 -289,-103 -526,-278 -715,-517 -165,-209 -318,-428 -472,-646 -56,-78 -109,-161 -107,-273 232,-196 418,-436 570,-704 74,-131 111,-269 79,-420 -34,-162 -188,-269 -339,-235 -39,9 -76,27 -110,47 -41,25 -78,56 -128,93 -22,-47 -41,-89 -60,-130 -49,-111 -85,-230 -151,-330 -112,-169 -300,-167 -418,2 -49,71 -76,158 -116,245 -52,-13 -104,-32 -159,-39 -161,-22 -282,61 -320,224 -17,70 -21,142 -32,221 -61,14 -125,21 -185,42 -164,57 -222,185 -157,346 21,52 55,98 84,148 -38,55 -82,103 -110,160 -57,117 -20,247 90,318 46,31 99,60 152,71 141,28 286,73 425,63 237,-18 461,44 669,62 210,290 402,570 608,839 310,402 718,643 1222,705 332,40 659,-3 967,-134 169,-72 326,-171 488,-260 47,-27 92,-58 136,-86 50,60 7,101 -9,141 -152,366 -310,730 -462,1095 -332,802 -575,1633 -805,2468 -72,266 -111,537 -91,817 19,272 158,433 408,507 113,33 227,63 347,96 -462,584 -1409,1095 -2037,1055 -20,-54 -42,-113 -62,-173 -116,-342 -285,-652 -550,-901 -70,-66 -153,-118 -232,-172 -33,-22 -72,-38 -109,-51 -236,-80 -448,-19 -454,309 -2,125 24,242 74,354 164,363 411,657 746,870 80,51 175,79 265,111 82,30 162,17 218,-55 39,-52 87,-60 146,-65 516,-36 985,-209 1416,-496 317,-210 603,-457 860,-746 884,54 1761,-12 2638,-145 83,58 124,143 152,238 69,232 136,466 210,697 123,385 252,769 378,1153 18,54 31,109 49,173 -51,67 -102,134 -103,231 -1,69 -42,138 -65,206 -68,199 -138,398 -205,597 -42,125 -53,253 -31,383 45,258 254,369 483,245 83,-43 163,-108 221,-182 233,-302 324,-645 258,-1028 -21,-118 -70,-220 -179,-272 -100,-48 -133,-131 -164,-226 -185,-561 -387,-1116 -540,-1688 -52,-194 -122,-383 -188,-586 41,-16 76,-32 112,-43 285,-83 573,-158 855,-250 221,-72 436,-164 652,-249 37,-14 73,-34 105,-57 51,-35 69,-94 42,-150 -28,-58 -64,-112 -100,-166 -172,-264 -345,-527 -518,-791 -406,-619 -699,-1294 -942,-1992 -148,-427 -275,-863 -411,-1295 -10,-28 -15,-60 -29,-126zm789 -6063c39,55 72,99 100,146 164,269 325,539 491,808 77,124 167,238 286,325 119,88 250,113 385,47 78,-39 151,-90 218,-147 47,-40 79,-99 118,-150 89,53 98,140 129,210 127,281 273,551 454,801 70,97 155,186 244,266 101,90 222,125 359,84 44,-14 90,-17 131,-25 13,29 26,45 23,57 -18,70 -36,141 -61,209 -229,643 -617,1186 -1073,1680 -302,326 -657,590 -1045,811 -709,404 -1471,594 -2281,587 -264,-3 -530,-26 -791,-66 -203,-31 -408,-83 -600,-158 -671,-265 -1251,-660 -1678,-1257 -113,-156 -213,-324 -307,-493 -376,-672 -634,-1379 -637,-2165 -2,-408 47,-807 164,-1197 11,-39 37,-73 62,-122 123,307 286,420 571,407 48,-2 96,-11 144,-19 195,-36 364,-131 506,-265 135,-125 253,-269 380,-404 24,-27 39,-76 100,-53 21,55 41,116 68,173 74,160 231,315 487,272 79,-13 158,-31 233,-57 225,-80 408,-222 570,-395 47,-51 96,-100 159,-166 33,89 57,156 83,222 140,360 393,607 744,752 276,113 539,76 771,-109 105,-85 195,-192 281,-298 76,-93 136,-197 212,-311zm1722 -1231c216,272 435,521 625,791 324,460 553,967 655,1527 49,273 51,549 41,824 -3,65 -11,130 -68,175 -171,136 -364,124 -515,-33 -28,-29 -56,-59 -78,-92 -257,-375 -485,-765 -604,-1210 -10,-39 -18,-79 -33,-116 -30,-76 -131,-91 -174,-24 -39,61 -67,130 -99,194 -50,102 -102,203 -196,273 -115,86 -223,88 -324,-15 -78,-80 -151,-170 -210,-265 -199,-323 -391,-652 -586,-978 -29,-48 -55,-99 -90,-143 -41,-51 -134,-47 -168,8 -29,48 -48,102 -72,153 -106,221 -232,426 -423,584 -184,154 -392,181 -609,88 -329,-142 -552,-386 -640,-741 -28,-109 -40,-223 -58,-334 -7,-47 -9,-97 -22,-143 -14,-53 -101,-74 -140,-36 -21,23 -39,50 -54,78 -44,77 -81,160 -130,233 -187,274 -423,487 -751,572 -201,52 -327,-23 -377,-228 -26,-109 -37,-224 -57,-335 -8,-39 -20,-78 -37,-114 -18,-39 -98,-54 -128,-24 -28,27 -54,60 -72,95 -101,196 -238,367 -389,523 -105,109 -229,202 -353,289 -108,75 -236,99 -368,98 -156,-2 -231,-58 -277,-211 -29,-101 -49,-204 -78,-305 -20,-67 -11,-125 19,-187 304,-616 736,-1121 1304,-1497 666,-441 1396,-687 2201,-681 170,1 337,8 503,39 260,48 520,94 796,145 50,127 171,191 304,229 115,33 234,62 353,70 77,5 142,26 202,64 68,42 131,93 193,144 150,122 296,249 448,369 149,119 316,191 536,147zm-2791 7144c29,83 55,142 70,204 123,504 289,995 464,1483 199,557 424,1103 721,1616 20,35 42,69 59,105 35,73 25,120 -48,164 -97,58 -193,123 -298,157 -374,120 -750,238 -1129,340 -406,110 -827,109 -1243,135 -441,28 -864,-50 -1279,-188 -144,-47 -291,-101 -370,-259 291,-1121 704,-2200 1181,-3255 93,-204 167,-418 294,-618 517,123 1037,137 1578,116zm2017 4535c-41,22 -80,50 -124,65 -272,97 -542,199 -818,283 -584,177 -1177,316 -1789,352 -304,18 -608,37 -913,51 -394,17 -785,-21 -1171,-105 -93,-20 -184,-53 -273,-90 -78,-33 -126,-96 -138,-185 -40,-284 -21,-561 80,-846 46,16 83,25 117,42 350,173 722,271 1107,303 409,33 818,3 1225,-34 514,-47 1005,-198 1493,-358 199,-66 391,-146 569,-258 31,-20 67,-33 97,-47 179,225 459,657 538,827zm-899 -13443c-108,-530 -148,-1055 -166,-1581 -5,-129 1,-260 15,-388 14,-126 15,-258 91,-392 29,50 57,88 73,129 33,82 55,169 94,249 13,27 64,47 99,49 24,1 59,-29 73,-54 18,-34 22,-77 31,-115 25,-102 47,-205 77,-305 9,-31 41,-56 65,-87 84,83 125,171 147,266 42,173 77,347 113,521 10,48 7,100 25,143 14,33 49,71 80,77 31,5 81,-17 101,-44 33,-43 48,-101 72,-152 58,-125 109,-252 175,-372 42,-77 100,-147 159,-211 58,-63 139,-57 186,13 44,66 85,138 109,214 113,364 90,721 -91,1058 -249,466 -627,811 -1039,1117 -172,-48 -332,-92 -489,-135zm3937 9397c-108,63 -207,62 -309,23 -44,-17 -85,-45 -131,-59 -65,-22 -132,42 -115,111 11,46 38,89 50,135 23,91 69,184 10,277 -325,21 -549,-101 -689,-381 -135,-272 -212,-556 -162,-865 10,-55 -3,-114 2,-170 12,-169 27,-338 45,-506 5,-48 21,-95 39,-140 31,-76 107,-100 179,-62 60,31 107,79 119,144 12,70 9,144 8,216 0,47 -16,95 -11,140 5,49 31,93 84,108 54,15 97,-9 123,-52 35,-57 76,-101 137,-130 131,-62 256,-134 389,-191 85,-36 172,-86 268,-63 60,246 35,324 -137,445 -20,14 -43,23 -63,37 -60,44 -82,94 -62,143 21,53 67,65 117,65 40,1 80,-9 119,-4 52,7 84,44 97,95 13,56 -13,96 -60,118 -58,26 -119,46 -180,66 -52,19 -108,30 -159,53 -63,28 -73,119 -19,162 38,30 83,50 122,76 74,49 154,90 189,209zm-4244 -8898c-310,8 -606,-58 -901,-137 -102,-28 -137,-100 -151,-195 -47,-330 -72,-661 -61,-994 6,-170 39,-338 133,-486 81,-127 186,-159 304,-70 95,71 182,160 254,255 182,240 315,507 410,793 54,162 99,324 115,495 11,119 -5,226 -103,339zm890 388c28,-108 55,-208 80,-309 26,-101 49,-202 71,-292 228,-100 994,-311 1223,-335 78,-8 159,-33 239,17 59,117 19,235 -16,349 -114,364 -261,714 -440,1050 -15,28 -30,58 -49,84 -80,108 -175,136 -294,77 -64,-32 -126,-72 -182,-117 -212,-172 -421,-348 -632,-524zm1818 5987c56,-89 92,-149 132,-209 205,-310 380,-637 503,-991 34,-99 61,-201 95,-301 52,-149 164,-215 320,-180 195,44 334,158 383,359 96,399 -27,739 -308,1018 -260,258 -598,332 -950,344 -47,1 -93,-21 -175,-40zm-9124 -468c24,34 57,68 77,109 78,162 106,338 126,515 7,65 6,138 82,160 92,27 120,-52 162,-110 56,-78 114,-156 180,-224 20,-21 76,-19 108,-7 22,8 41,50 44,79 11,92 -23,177 -74,250 -115,165 -237,324 -356,487 -123,166 -293,212 -487,206 -95,-4 -191,3 -286,9 -178,11 -353,-1 -521,-64 -33,-12 -59,-43 -98,-72 41,-41 65,-74 96,-95 40,-28 85,-44 126,-70 95,-58 90,-146 -9,-204 -35,-20 -75,-32 -107,-55 -31,-21 -66,-48 -49,-112 29,-9 64,-23 101,-27 98,-12 160,58 234,105 25,17 82,13 106,-6 25,-19 40,-69 37,-103 -4,-37 -37,-71 -49,-109 -25,-76 -52,-152 -65,-231 -5,-32 15,-81 39,-104 42,-41 96,-14 130,18 51,49 95,108 136,166 41,60 72,133 163,115 61,-13 76,-71 64,-207 -8,-97 -14,-193 -12,-290 1,-58 19,-114 102,-129zm956 -1246c-77,-42 -114,-57 -144,-80 -50,-41 -103,-81 -142,-131 -295,-380 -476,-804 -467,-1296 4,-216 100,-387 255,-529 125,-116 317,-112 424,-34 130,94 226,217 170,391 -8,23 -13,46 -18,70 -99,438 -126,881 -92,1327 7,79 9,159 14,282zm-1238 9133c39,-1 84,-15 114,1 93,45 190,90 267,157 256,222 410,513 522,829 33,90 9,170 -48,239 -24,-4 -41,-3 -55,-10 -377,-187 -627,-493 -791,-876 -43,-103 -56,-218 -9,-340zm7030 2515c177,26 244,124 251,285 11,278 -61,527 -226,748 -49,65 -108,118 -188,144 -67,21 -130,-13 -148,-82 -25,-97 -15,-193 15,-286 58,-176 115,-353 177,-527 35,-97 80,-191 119,-282zm-147 -16107c89,-153 101,-321 211,-450 152,24 285,67 384,207 -20,82 -35,169 -63,252 -33,94 -85,122 -188,111 -112,-11 -221,-39 -344,-120z"/>
  <path class="fil7" d="M14740 9169c-2,-81 4,-163 -8,-242 -5,-31 -45,-65 -77,-81 -35,-18 -101,28 -107,75 -29,225 -53,453 28,672 124,336 508,520 845,409 359,-118 550,-392 534,-770 -1,-32 -6,-65 -14,-96 -15,-58 -75,-98 -127,-85 -56,13 -73,57 -77,108 -9,96 -4,195 -27,287 -60,243 -323,412 -569,376 -160,-23 -353,-201 -382,-363 -17,-95 -16,-193 -23,-290 1,0 3,0 4,0z"/>
  <path class="fil7" d="M16838 8565c16,190 191,337 382,320 172,-16 303,-173 292,-350 -13,-188 -166,-310 -368,-293 -208,19 -321,137 -306,323z"/>
  <path class="fil7" d="M13304 7775c28,236 310,383 513,268 119,-67 178,-225 132,-357 -65,-188 -319,-298 -497,-217 -104,47 -164,171 -148,306z"/>
  <path class="fil8" d="M22734 29166c-103,195 -127,370 -116,551 18,315 123,440 437,507 332,72 666,134 999,203 387,79 774,162 1159,244 85,-125 151,-242 237,-342 101,-118 207,-240 333,-329 354,-250 717,-235 1072,17 191,136 320,316 409,525 30,72 47,148 74,237 64,10 129,30 193,27 567,-28 1134,-56 1701,-93 146,-9 292,-41 435,-75 119,-28 242,-60 339,-168 24,-187 -64,-361 -95,-534 -88,-85 -182,-44 -269,-40 -279,13 -541,-32 -778,-189 -377,-250 -478,-746 -219,-1118 162,-234 375,-388 683,-362 53,4 108,-4 162,-6 -6,-270 -228,-1209 -418,-1779 -79,-17 -167,-38 -253,-58 -201,-46 -393,-111 -561,-231 -216,-152 -337,-351 -340,-621 -4,-326 63,-626 311,-857 96,-91 217,-154 345,-241 -19,-286 -89,-571 -220,-853 -271,-22 -527,35 -794,47 -56,85 -110,169 -168,251 -83,120 -177,231 -310,305 -260,144 -530,131 -763,-50 -153,-119 -278,-263 -339,-450 -21,-63 -46,-124 -68,-184 -252,-90 -495,-176 -747,-266 -120,164 -147,354 -255,519 78,50 134,84 188,121 222,155 363,370 437,622 143,488 -189,1046 -687,1185 -185,52 -360,22 -535,-32 -84,-26 -164,-69 -261,-112 -184,294 -266,620 -387,929 -122,312 -234,629 -356,959 46,20 82,44 121,51 420,76 598,376 692,740 73,281 5,534 -230,725 -104,85 -210,173 -328,238 -217,120 -448,154 -685,48 -40,-17 -80,-33 -145,-61zm2680 -1753c-17,-437 197,-797 570,-994 318,-169 681,-104 935,147 344,339 338,1026 140,1314 -125,183 -272,330 -510,351 -361,31 -670,-79 -921,-339 -139,-143 -203,-319 -214,-479z"/>
  <path class="fil9" d="M28154 17898c-479,-161 -943,-414 -1500,-277 -50,132 -93,258 -144,381 -78,185 -154,372 -244,552 -100,203 -240,378 -431,509 -102,70 -205,142 -302,218 -706,548 -1869,435 -2545,-168 -116,-104 -210,-233 -314,-351 -85,15 -59,79 -55,128 43,540 173,1055 423,1541 308,599 644,1178 1121,1669 706,725 1566,1125 2581,1204 1145,88 2234,-131 3277,-597 727,-326 1403,-729 2019,-1233 734,-602 1241,-1355 1563,-2235 15,-40 15,-85 24,-135 -226,-58 -444,-114 -683,-175 -26,49 -60,103 -83,161 -296,747 -840,1260 -1559,1608 -1610,583 -2899,-477 -3086,-1678 -52,-334 -98,-663 -45,-1000 3,-31 -9,-65 -17,-122zm-1870 1843c102,11 269,31 438,49 405,44 808,93 1213,125 115,10 192,45 248,139 58,99 96,202 89,317 -21,337 -87,662 -270,955 -191,308 -458,475 -830,500 -536,37 -986,-109 -1135,-795 -63,-295 -116,-590 -178,-885 -68,-331 -22,-390 323,-401 11,0 23,-1 102,-4z"/>
  <path class="fil9" d="M22581 16316c-289,370 -265,770 -181,1186 157,774 657,1276 1321,1647 196,109 415,167 650,161 410,-11 781,-117 1097,-385 34,-30 66,-63 105,-85 282,-159 430,-421 547,-702 124,-299 229,-605 285,-926 58,-336 37,-664 -52,-992 -58,-213 -174,-385 -338,-529 -207,-181 -453,-292 -713,-375 -106,-34 -201,-13 -277,73 -74,84 -158,161 -222,252 -325,467 -802,634 -1344,666 -283,16 -566,7 -878,9zm1676 858c-7,-87 24,-201 94,-309 119,-184 292,-231 498,-197 163,26 253,139 288,362 10,66 15,134 6,199 -31,236 -226,391 -471,384 -230,-7 -398,-171 -415,-439z"/>
  <path class="fil9" d="M30286 16261c-131,-20 -235,19 -343,52 -705,217 -1545,1134 -1475,2131 13,200 40,400 75,597 149,826 991,1669 2211,1476 284,-45 546,-144 784,-307 330,-227 608,-504 830,-833 154,-229 189,-345 205,-608 -166,-96 -342,-195 -515,-299 -594,-354 -1069,-826 -1410,-1421 -101,-174 -178,-361 -263,-544 -37,-78 -66,-161 -99,-244zm-744 2083c-9,-241 240,-508 481,-514 265,-7 536,257 552,537 14,252 -213,461 -511,469 -298,8 -511,-191 -522,-492z"/>
  <path class="fil9" d="M30174 15181c-107,-26 -206,-49 -304,-73 -452,-114 -790,-369 -1018,-774 -207,-368 -302,-767 -369,-1176 -17,-108 -38,-214 -56,-315 -120,-9 -121,81 -146,131 -173,342 -390,654 -627,955 -387,489 -882,832 -1457,1071 -113,46 -227,92 -375,152 89,67 145,114 207,153 382,248 601,594 681,1037 51,288 61,575 28,873 263,44 520,75 770,133 252,60 496,149 756,230 394,-838 972,-1464 1938,-1666 -10,-236 -18,-466 -28,-731z"/>
  <path class="fil9" d="M18893 27558c205,15 339,25 473,33 81,6 161,17 195,104 30,76 -2,153 -99,227 -54,42 -116,73 -167,116 -51,43 -102,91 -136,147 -18,30 -9,85 8,119 8,18 63,32 88,24 84,-31 166,-71 247,-110 71,-35 137,-85 211,-106 46,-14 119,-3 152,27 33,30 51,102 41,148 -18,86 -65,166 -92,251 -22,69 32,132 110,135 95,3 184,-11 216,-118 30,-103 70,-200 204,-177 110,20 116,114 136,205 39,171 243,258 395,174 35,-19 67,-63 79,-101 60,-205 92,-415 61,-628 -34,-233 -79,-463 -117,-695 -13,-79 -46,-141 -99,-206 -125,-154 -264,-303 -289,-517 -8,-58 -64,-122 -114,-162 -297,-241 -633,-391 -1024,-392 -197,-1 -264,89 -236,278 17,117 67,214 160,286 71,55 148,103 221,155 67,48 124,105 97,195 -23,72 -85,100 -158,108 -270,30 -394,227 -563,480z"/>
  <path class="fil9" d="M32709 21332c193,78 364,68 531,67 285,-3 565,-48 837,-135 253,-81 477,-211 658,-403 252,-268 390,-575 291,-950 -39,-150 -59,-309 -118,-451 -51,-121 -134,-233 -222,-332 -134,-148 -315,-169 -503,-125 -50,13 -104,49 -136,89 -55,69 -106,146 -137,228 -262,699 -619,1341 -1132,1896 -21,23 -33,55 -69,116z"/>
  <path class="fil9" d="M31353 29622c117,-41 128,-130 148,-218 46,-190 97,-254 184,-229 147,41 124,165 130,275 7,100 11,201 28,299 10,52 49,98 70,139 140,25 205,-56 253,-145 47,-88 70,-189 119,-276 24,-42 84,-86 128,-86 45,-2 104,39 135,79 41,51 51,127 92,178 63,75 137,145 216,204 28,21 90,17 127,3 66,-24 67,-92 49,-142 -57,-157 -121,-311 -188,-464 -35,-82 -88,-157 -117,-241 -36,-98 65,-215 168,-191 98,23 193,64 286,103 115,48 223,111 340,151 70,23 149,14 247,22 -55,-222 -171,-367 -330,-478 -51,-36 -124,-45 -190,-58 -65,-14 -135,-12 -200,-29 -71,-18 -117,-69 -108,-147 9,-78 66,-117 137,-128 67,-9 136,-6 204,-7 290,-7 487,-159 627,-396 60,-101 7,-200 -113,-223 -11,-2 -22,-5 -34,-5 -579,-10 -1125,99 -1615,425 -243,161 -419,370 -551,621 -94,178 -186,357 -280,535 -55,105 -59,216 -28,326 10,38 44,71 66,103z"/>
  <path class="fil9" d="M22305 19078c-30,-332 -56,-654 -89,-976 -8,-76 -36,-152 -62,-226 -175,-480 -170,-962 -24,-1448 22,-73 39,-151 38,-226 -2,-227 -121,-347 -351,-359 -190,-11 -357,46 -499,174 -259,233 -389,522 -371,866 18,338 89,663 265,961 258,438 573,831 936,1187 25,23 55,40 84,57 7,4 20,-3 73,-10z"/>
  <path class="fil10" d="M32377 21597c190,39 334,64 477,97 143,35 288,79 371,212 246,388 495,776 724,1174 87,152 147,328 179,501 67,365 -87,526 -467,501 -110,-7 -223,-43 -323,-89 -122,-57 -233,-137 -348,-209 -77,-48 -148,-106 -227,-148 -159,-87 -264,-37 -294,134 -14,88 -12,180 -35,266 -45,161 -86,326 -159,474 -174,356 -302,259 -475,80 -86,-88 -173,-179 -272,-252 -137,-102 -280,-82 -393,48 -65,76 -117,164 -173,248 -48,75 -90,155 -141,229 -107,154 -258,221 -442,187 -316,-58 -581,-194 -707,-508 -38,-93 -69,-190 -94,-287 -65,-260 -127,-522 -186,-783 -12,-51 -5,-105 -8,-177 1104,-397 2121,-930 2993,-1698z"/>
  <path class="fil10" d="M20794 21450c8,-98 30,-202 74,-288 60,-119 131,-240 225,-332 280,-275 571,-540 867,-800 125,-110 268,-202 459,-262 84,206 150,385 228,557 340,746 747,1450 1332,2042 204,208 212,322 64,564 -208,339 -510,570 -890,690 -390,123 -663,-7 -810,-379 -70,-176 -180,-244 -362,-229 -56,5 -114,4 -170,0 -251,-20 -350,-149 -282,-380 26,-84 70,-164 112,-243 42,-79 96,-152 134,-232 55,-118 -13,-234 -140,-244 -79,-7 -159,4 -238,-1 -101,-7 -205,-11 -301,-38 -219,-64 -319,-205 -302,-425z"/>
  <path class="fil10" d="M22898 15365c-45,39 -102,67 -198,130 96,-400 207,-737 354,-1062 362,-802 913,-1461 1564,-2051 433,-393 922,-683 1474,-882 442,-158 896,-246 1359,-297 432,-49 864,-29 1284,83 482,129 963,256 1429,434 623,238 1180,569 1629,1063 106,117 203,256 337,329 220,123 348,313 480,507 301,448 550,925 764,1418 384,887 571,1811 532,2776 -13,310 -51,619 -155,911 -305,44 -557,-31 -780,-161 -59,-362 -110,-704 -169,-1045 -74,-421 -256,-783 -597,-1060 -406,-329 -865,-527 -1391,-565 -79,-7 -157,-13 -229,-19 -103,-300 -106,-380 -27,-696 50,-203 17,-259 -189,-301 -145,-30 -291,-49 -435,-82 -350,-80 -611,-279 -790,-588 -159,-275 -253,-571 -308,-882 -63,-341 -110,-683 -116,-1031 -2,-78 -15,-157 -39,-230 -29,-89 -157,-123 -225,-61 -92,83 -175,167 -223,290 -89,229 -189,456 -306,673 -487,907 -1190,1570 -2208,1875 -264,78 -521,150 -797,69 -65,-19 -135,-21 -203,-27 -668,-64 -1292,34 -1821,482z"/>
  <path class="fil10" d="M30674 16235c20,-9 41,-25 60,-24 672,17 1181,329 1575,844 33,43 54,98 73,150 139,367 179,754 244,1174 -893,-302 -1922,-1451 -1952,-2144z"/>
  <path class="fil10" d="M22800 15993c282,-584 1206,-962 1891,-740 -62,83 -122,161 -180,242 -166,226 -388,362 -665,431 -335,85 -672,65 -1046,67z"/>
  <path class="fil11" d="M26532 35153c545,147 1307,-34 1669,-384 -2,-94 -68,-139 -147,-157 -335,-77 -673,-93 -1012,-34 -147,26 -279,94 -386,201 -100,99 -162,212 -124,374z"/>
  <path class="fil11" d="M20293 32869c73,-82 77,-157 39,-232 -195,-377 -419,-735 -740,-1023 -98,-89 -202,-174 -370,-159 -16,68 -48,132 -42,192 10,109 29,221 69,323 148,375 609,770 1044,899z"/>
  <path class="fil9" d="M29054 24973c-9,-14 -17,-28 -26,-42 3,7 2,16 8,20 7,7 17,9 27,14 -1,0 -9,8 -9,8z"/>
  <path class="fil12" d="M24670 25426c304,-3 651,-453 604,-718 -36,-204 -114,-384 -267,-528 -139,-131 -268,-117 -354,48 -144,278 -281,559 -414,843 -59,126 -23,216 110,270 102,39 214,57 321,85z"/>
  <path class="fil12" d="M22843 28827c147,175 317,214 517,123 61,-28 121,-61 177,-98 385,-250 416,-667 74,-980 -174,-160 -405,-119 -491,100 -110,279 -207,562 -277,855z"/>
  <path class="fil12" d="M29824 29534c-53,-249 -99,-487 -155,-724 -56,-235 -332,-361 -558,-261 -195,86 -279,251 -305,447 -27,192 38,346 208,456 252,163 514,190 810,82z"/>
  <path class="fil12" d="M25604 30724c476,90 931,112 1393,86 -53,-374 -313,-650 -643,-689 -74,-9 -157,6 -229,31 -255,88 -370,216 -521,572z"/>
  <path class="fil12" d="M28655 24758c-93,50 -158,71 -203,111 -112,98 -180,224 -210,372 -97,467 99,756 575,837 84,15 154,-53 134,-142 -58,-260 -123,-519 -188,-778 -29,-116 -62,-233 -108,-400z"/>
  <path class="fil12" d="M26273 23581c95,234 219,381 444,396 82,5 176,-34 250,-75 85,-48 159,-120 168,-253 -285,-12 -556,-50 -862,-68z"/>
  <path class="fil12" d="M26917 27288c-33,-118 -50,-241 -100,-350 -146,-315 -508,-401 -793,-198 -144,102 -243,234 -285,402 -117,465 313,898 796,793 81,-17 162,-80 218,-142 129,-140 156,-317 164,-505z"/>
  <path class="fil13" d="M27938 20342c-198,-101 -382,-134 -576,-151 -316,-27 -628,-80 -943,-120 -64,-8 -130,-5 -219,-8 1,70 -6,124 4,174 57,284 112,568 180,850 62,257 236,394 506,420 552,53 764,-134 935,-535 85,-194 138,-400 113,-630z"/>
  <path class="fil14" d="M22553 18582c-20,-526 331,-1014 879,-1019 519,-5 945,464 1060,946 84,356 -10,733 -244,973 -283,395 -845,396 -1205,86 -305,-214 -476,-619 -490,-986z"/>
  <path class="fil14" d="M30152 19679c275,-564 904,-667 1430,-400 490,249 723,804 641,1335 -74,472 -498,729 -926,793 -318,48 -696,-94 -907,-336 -37,-42 -70,-87 -98,-133 -262,-354 -331,-870 -140,-1259z"/>
  <path class="fil15" d="M29054 24973c49,57 108,108 146,171 259,434 550,847 872,1238 314,382 628,763 952,1138 167,194 353,375 547,578 -73,132 -149,266 -223,403 -106,197 -218,392 -311,596 -100,215 -85,435 20,647 105,212 177,241 435,191 20,-4 44,0 74,1 37,48 73,105 120,153 146,150 313,173 490,59 93,-60 172,-140 266,-219 78,53 146,113 226,149 91,42 191,82 288,88 239,15 383,-131 379,-367 -2,-78 -10,-156 -25,-232 -14,-75 -41,-147 -66,-237 109,-42 187,21 266,38 137,29 268,45 402,-10 106,-44 158,-121 161,-233 3,-152 -55,-285 -135,-408 -60,-93 -128,-180 -198,-281 68,-56 134,-100 186,-157 90,-100 186,-199 250,-315 160,-286 16,-574 -312,-630 -133,-23 -272,-21 -408,-11 -562,45 -1096,181 -1555,517 -163,-16 -278,-104 -377,-212 -138,-149 -279,-296 -406,-452 -425,-523 -860,-1040 -1261,-1581 -240,-322 -436,-678 -631,-1031 -186,-342 -346,-697 -528,-1069 111,-31 216,-60 315,-88 93,105 114,215 140,322 52,218 100,436 154,653 52,208 127,409 273,570 231,255 534,376 873,402 201,16 380,-66 517,-214 75,-82 136,-178 199,-271 56,-83 107,-169 173,-274 65,47 120,79 167,120 76,67 142,145 221,209 223,182 467,164 660,-51 130,-145 212,-317 269,-500 34,-106 60,-214 96,-346 56,21 106,34 151,58 119,64 233,139 354,199 246,120 502,127 761,44 282,-92 428,-285 429,-576 1,-286 -88,-553 -228,-798 -145,-253 -308,-495 -463,-743 -94,-150 -201,-293 -264,-476 161,-71 320,-81 471,-115 339,-77 644,-218 901,-450 375,-339 570,-748 482,-1258 -29,-165 -58,-332 -112,-490 -183,-533 -490,-749 -1082,-764 -4,-61 -22,-126 -10,-186 225,-1254 -11,-2445 -500,-3601 -205,-486 -460,-947 -746,-1391 -208,-323 -462,-608 -753,-859 -464,-397 -947,-767 -1505,-1031 -112,-53 -226,-100 -341,-145 -85,-33 -176,-50 -257,-89 -390,-190 -815,-267 -1229,-374 -603,-157 -1213,-144 -1824,-36 -415,73 -819,177 -1210,334 -446,179 -851,416 -1215,729 -755,647 -1388,1383 -1800,2290 -172,379 -283,778 -398,1175 -17,62 -41,123 -69,205 -68,-32 -116,-56 -165,-76 -387,-158 -735,-84 -1038,189 -328,297 -484,665 -463,1108 20,434 136,837 368,1206 270,429 586,822 953,1175 72,69 144,138 233,224 -57,44 -97,79 -142,108 -450,290 -837,651 -1194,1043 -177,194 -296,418 -352,678 -69,324 93,700 520,825 54,16 111,23 166,34 54,12 107,25 177,42 -43,110 -83,199 -112,292 -136,425 76,734 527,771 79,6 158,10 248,16 40,79 77,160 121,236 119,208 303,332 538,371 252,42 496,22 733,-86 426,-196 762,-482 963,-909 18,-39 41,-77 67,-124 46,21 89,36 126,60 73,49 144,104 232,168 -45,74 -77,144 -124,203 -550,698 -1095,1400 -1656,2089 -401,491 -856,929 -1430,1226 -150,78 -306,146 -463,209 -138,56 -202,25 -272,-108 -11,-20 -19,-41 -27,-62 -99,-282 -307,-462 -572,-588 -246,-118 -496,-223 -775,-238 -34,-2 -67,-10 -101,-11 -403,-3 -634,280 -538,665 21,86 59,169 100,248 36,67 88,125 155,218 -81,74 -171,144 -244,226 -75,83 -146,173 -197,271 -83,164 -40,301 114,409 53,37 117,62 196,102 -33,63 -67,118 -92,175 -143,327 15,564 370,558 67,-1 134,-12 196,-18 23,19 46,29 55,47 136,267 255,347 531,292 167,-34 303,-23 451,61 84,47 196,58 297,60 249,6 415,-114 473,-352 68,-283 110,-569 42,-863 -57,-249 -87,-503 -130,-767 113,-55 213,-105 314,-150 504,-224 937,-544 1324,-930 361,-359 668,-762 983,-1157 139,-175 277,-351 419,-530 65,76 10,124 -13,166 -491,937 -819,1939 -1190,2923 -221,585 -414,1180 -604,1774 -77,239 -95,482 -49,729 54,292 223,483 511,569 118,35 240,61 388,98 -56,93 -95,172 -148,241 -213,276 -427,552 -645,824 -343,426 -746,783 -1251,1015 -153,70 -304,147 -487,147 -155,-481 -441,-880 -759,-1257 -99,-118 -239,-202 -364,-299 -35,-26 -79,-46 -122,-58 -318,-86 -554,-21 -588,381 -18,205 27,401 125,582 239,439 594,758 1051,965 146,66 294,60 461,38 760,-101 1358,-481 1873,-1009 180,-186 343,-388 507,-588 156,-192 305,-390 452,-588 80,-107 150,-220 227,-335 652,127 1307,254 1961,384 647,129 1308,63 1974,114 126,1054 170,2104 516,3098 -142,80 -255,33 -365,27 -238,-13 -475,-20 -710,40 -216,54 -401,155 -551,317 -137,148 -195,322 -177,524 14,164 99,272 254,320 85,27 176,47 266,51 573,24 1099,-130 1583,-430 158,-98 280,-228 320,-417 21,-104 1,-186 -102,-219 -141,-45 -193,-139 -229,-261 -151,-505 -278,-1014 -339,-1537 -58,-500 -106,-1000 -160,-1515 81,-14 158,-31 234,-37 430,-36 861,-65 1290,-102 251,-22 495,-74 720,-188 243,-124 297,-224 238,-488 -208,-938 -417,-1877 -639,-2812 -176,-739 -375,-1473 -559,-2210 -26,-107 -28,-219 -41,-329 -9,-4 -20,-8 -27,-14 -5,-4 -5,-13 -8,-20 10,16 18,30 27,44zm1530 -9100c-103,-300 -106,-380 -26,-697 50,-202 17,-259 -190,-301 -145,-30 -291,-48 -434,-81 -352,-81 -612,-280 -791,-588 -159,-275 -252,-572 -308,-882 -63,-341 -110,-684 -116,-1032 -2,-77 -14,-156 -39,-229 -29,-89 -156,-124 -225,-61 -91,83 -175,167 -222,290 -90,229 -190,456 -306,673 -488,906 -1191,1570 -2209,1874 -263,79 -521,151 -797,70 -65,-19 -134,-21 -202,-27 -668,-65 -1291,34 -1821,482 -45,39 -102,67 -198,130 96,-400 207,-738 354,-1063 362,-801 913,-1461 1564,-2051 433,-393 922,-682 1474,-881 442,-158 896,-246 1359,-298 432,-48 864,-28 1284,84 482,128 963,256 1429,434 623,237 1180,568 1629,1063 106,116 203,255 336,329 221,122 349,312 481,506 301,449 550,925 764,1419 384,886 571,1811 532,2776 -13,310 -51,619 -155,910 -305,45 -557,-30 -780,-160 -59,-363 -110,-704 -169,-1045 -74,-421 -256,-783 -597,-1060 -406,-329 -865,-527 -1392,-566 -78,-5 -157,-12 -229,-18zm-7850 13293c65,27 105,44 145,61 237,106 469,72 685,-48 118,-65 224,-153 328,-238 235,-192 303,-444 230,-725 -94,-364 -272,-664 -692,-740 -39,-7 -75,-31 -121,-51 122,-330 234,-646 356,-959 121,-310 203,-635 387,-929 98,43 177,86 261,112 175,54 350,84 535,32 498,-139 830,-697 687,-1185 -74,-252 -215,-467 -437,-622 -54,-37 -111,-71 -188,-121 108,-165 135,-356 255,-519 252,90 495,176 747,266 22,60 47,121 68,184 61,188 186,331 339,450 233,181 503,195 763,50 133,-75 227,-185 311,-305 57,-82 111,-166 167,-251 267,-12 523,-69 794,-47 131,282 201,567 220,853 -128,88 -250,150 -345,241 -248,231 -314,531 -311,857 3,270 125,469 340,621 169,120 361,185 561,231 87,20 174,40 253,58 190,570 412,1508 419,1779 -55,2 -110,10 -163,6 -309,-25 -521,128 -683,362 -259,372 -158,868 219,1118 237,157 499,202 778,189 87,-4 181,-44 270,40 30,173 118,347 94,534 -97,108 -220,140 -339,168 -143,34 -289,66 -435,75 -567,37 -1134,65 -1701,93 -64,3 -129,-18 -193,-27 -27,-89 -44,-165 -74,-237 -89,-209 -217,-389 -409,-525 -355,-251 -718,-267 -1072,-17 -126,89 -232,211 -333,329 -85,100 -152,217 -237,342 -385,-82 -772,-165 -1159,-244 -332,-69 -667,-131 -999,-203 -314,-67 -419,-192 -437,-507 -12,-181 13,-356 116,-551zm5420 -11268c8,57 21,91 16,122 -53,336 -7,666 45,999 187,1201 1475,2261 3086,1679 719,-349 1262,-862 1559,-1608 23,-59 57,-113 82,-162 240,62 458,117 684,175 -8,50 -9,95 -24,136 -322,879 -830,1633 -1564,2234 -615,505 -1291,908 -2019,1233 -1043,466 -2130,686 -3277,597 -1014,-79 -1874,-478 -2580,-1204 -477,-491 -813,-1069 -1121,-1669 -251,-486 -380,-1001 -423,-1541 -5,-49 -30,-113 54,-128 105,119 199,248 315,351 676,604 1839,717 2545,168 98,-76 199,-147 301,-217 191,-132 332,-306 432,-509 90,-181 166,-367 244,-553 50,-123 94,-249 144,-381 558,-136 1022,117 1501,278zm-5573 -1582c312,-3 595,7 877,-10 542,-32 1020,-199 1345,-666 63,-91 147,-168 222,-252 75,-86 171,-107 277,-73 260,83 506,194 712,375 165,144 280,317 338,529 90,328 111,657 53,993 -56,321 -162,626 -286,925 -116,282 -264,543 -547,702 -38,22 -71,56 -105,85 -315,268 -686,374 -1097,385 -235,7 -453,-51 -650,-161 -664,-371 -1165,-873 -1321,-1646 -84,-416 -107,-816 182,-1186zm7705 -55c33,83 62,166 99,245 85,182 162,369 263,543 341,596 816,1067 1410,1422 173,103 349,202 515,299 -16,263 -50,378 -205,608 -222,329 -500,607 -830,833 -238,162 -500,261 -784,306 -1220,193 -2061,-650 -2211,-1475 -36,-197 -62,-398 -75,-597 -70,-998 769,-1914 1475,-2131 108,-34 212,-73 343,-53zm-112 -1080c10,265 18,495 28,731 -967,202 -1544,828 -1938,1666 -261,-80 -505,-169 -756,-230 -251,-59 -507,-89 -771,-133 33,-298 24,-586 -28,-873 -79,-442 -299,-789 -681,-1037 -62,-40 -118,-87 -206,-153 148,-60 262,-106 375,-152 574,-239 1070,-582 1456,-1071 238,-301 455,-613 627,-955 26,-51 26,-140 146,-131 18,101 40,207 57,315 66,409 161,808 368,1176 229,405 566,660 1018,774 99,24 198,47 305,73zm2203 6415c190,39 334,65 477,98 144,35 288,79 371,212 246,388 495,776 724,1174 87,152 148,328 179,501 67,365 -87,526 -467,501 -110,-7 -222,-43 -323,-89 -122,-57 -233,-137 -348,-209 -77,-48 -148,-106 -227,-148 -159,-87 -264,-37 -294,134 -14,88 -12,180 -35,265 -44,162 -86,326 -159,475 -174,356 -302,259 -475,80 -86,-88 -173,-179 -272,-252 -137,-102 -280,-82 -392,48 -66,76 -118,163 -174,248 -48,75 -90,155 -141,229 -106,153 -258,221 -442,187 -316,-58 -581,-194 -707,-508 -38,-93 -69,-190 -94,-287 -65,-260 -127,-522 -186,-783 -12,-51 -5,-105 -8,-177 1104,-397 2121,-930 2993,-1699zm-9958 -1828c84,206 150,384 229,557 340,746 747,1449 1332,2042 204,207 212,322 63,564 -207,339 -510,570 -889,690 -391,122 -663,-7 -810,-379 -70,-176 -181,-245 -363,-229 -56,4 -113,4 -170,0 -250,-20 -349,-149 -281,-380 25,-85 70,-164 112,-243 41,-79 96,-152 134,-232 55,-118 -13,-234 -141,-245 -79,-6 -158,5 -237,0 -101,-7 -205,-11 -302,-38 -218,-63 -319,-204 -301,-424 8,-98 29,-202 73,-289 60,-119 131,-239 225,-331 281,-275 572,-540 868,-801 125,-111 268,-202 458,-262zm-3526 7790c169,-253 292,-450 564,-479 73,-8 134,-36 157,-108 27,-89 -29,-146 -97,-194 -73,-53 -150,-100 -221,-156 -93,-72 -143,-169 -160,-286 -27,-189 40,-279 236,-278 391,1 728,152 1024,392 51,41 107,104 114,162 25,214 165,363 289,518 52,64 86,126 99,205 38,232 83,463 117,695 31,213 -1,423 -61,628 -12,39 -44,82 -79,102 -152,83 -356,-4 -394,-174 -21,-91 -27,-186 -137,-205 -134,-24 -174,73 -204,176 -32,108 -120,122 -216,118 -78,-3 -131,-65 -110,-135 27,-85 74,-164 92,-250 10,-47 -8,-119 -41,-149 -33,-30 -106,-40 -152,-27 -75,22 -140,72 -211,106 -81,40 -163,79 -247,110 -25,9 -80,-5 -88,-24 -16,-34 -26,-90 -8,-118 34,-56 85,-104 136,-147 51,-44 113,-76 167,-117 97,-75 130,-152 100,-227 -35,-87 -115,-98 -196,-104 -133,-10 -267,-19 -473,-34zm13816 -6226c36,-61 48,-94 70,-117 513,-554 870,-1197 1133,-1896 30,-82 81,-158 137,-228 31,-41 86,-77 136,-88 187,-45 368,-24 502,124 89,98 172,211 222,332 60,143 79,301 119,452 98,374 -39,681 -292,949 -181,192 -405,323 -658,404 -272,87 -552,132 -837,134 -168,2 -339,11 -532,-66zm-1356 8290c-22,-33 -56,-65 -67,-104 -30,-110 -27,-221 28,-326 94,-178 187,-357 281,-536 131,-251 307,-460 549,-620 492,-326 1037,-435 1616,-426 12,1 23,3 34,6 120,23 174,121 114,222 -140,237 -338,389 -629,396 -67,2 -137,-2 -203,8 -70,10 -128,50 -137,127 -8,79 37,129 109,148 64,17 134,15 200,29 64,13 138,22 189,57 159,111 275,257 331,479 -98,-8 -178,1 -247,-22 -117,-40 -226,-104 -341,-152 -93,-38 -188,-79 -286,-102 -102,-24 -204,92 -168,191 30,84 82,158 118,240 65,153 130,308 187,465 18,50 17,118 -48,142 -39,14 -100,18 -128,-3 -79,-60 -153,-128 -215,-205 -42,-50 -52,-126 -92,-177 -31,-39 -90,-81 -136,-80 -44,1 -104,46 -128,87 -48,87 -71,188 -119,276 -48,89 -113,170 -252,145 -22,-42 -61,-88 -70,-139 -19,-98 -23,-199 -28,-299 -7,-110 16,-234 -131,-275 -87,-25 -139,39 -183,229 -21,89 -31,178 -148,219zm-9048 -10544c-54,8 -67,14 -74,10 -29,-17 -59,-33 -83,-57 -365,-356 -679,-750 -937,-1187 -175,-298 -247,-623 -265,-961 -18,-344 112,-633 371,-866 142,-128 309,-185 499,-174 231,12 350,132 352,359 1,75 -17,153 -39,226 -146,486 -151,968 24,1448 27,73 54,149 62,226 34,322 60,644 90,976zm10321 -699c-893,-303 -1922,-1452 -1952,-2144 20,-9 41,-25 60,-25 672,18 1181,330 1575,845 33,43 54,98 73,150 139,368 179,754 244,1174zm-7956 7047c-107,-28 -219,-45 -322,-86 -133,-54 -169,-144 -110,-270 134,-283 271,-565 415,-843 85,-164 214,-179 354,-47 152,144 230,323 267,528 48,265 -300,715 -604,718zm-1870 -9433c282,-584 1206,-962 1891,-740 -62,83 -122,161 -180,242 -166,226 -389,362 -665,431 -335,85 -672,65 -1046,67zm43 12834c70,-293 167,-576 277,-855 86,-219 316,-260 490,-100 342,313 312,730 -73,980 -56,37 -116,70 -177,98 -200,91 -370,52 -517,-123zm6981 707c-295,107 -558,80 -809,-82 -170,-109 -235,-263 -208,-455 26,-196 109,-362 304,-448 227,-101 502,26 558,262 56,236 102,475 155,723zm-3292 5618c-38,-161 24,-274 124,-373 107,-107 239,-176 386,-201 339,-59 678,-43 1012,34 79,19 145,63 147,157 -362,350 -1124,531 -1669,383zm-6239 -2283c-435,-129 -896,-524 -1044,-899 -41,-102 -59,-214 -70,-323 -5,-61 26,-124 43,-192 168,-15 272,70 370,159 321,288 545,646 740,1023 38,75 34,150 -39,232zm5311 -2145c151,-356 266,-484 521,-572 72,-25 155,-41 229,-32 330,40 590,316 643,690 -463,26 -917,4 -1393,-86zm3051 -5966c46,167 79,283 108,401 65,259 130,518 188,778 21,89 -50,156 -134,142 -476,-82 -672,-371 -575,-837 30,-149 98,-273 210,-373 45,-40 110,-61 203,-111zm-2382 -1177c305,18 577,56 862,68 -9,134 -83,205 -168,252 -74,42 -168,81 -250,76 -224,-15 -349,-162 -444,-396z"/>
  <path class="fil15" d="M25414 27413c11,160 75,336 214,479 251,260 560,370 921,339 238,-21 385,-168 510,-351 198,-288 204,-975 -140,-1314 -254,-251 -617,-316 -935,-147 -373,197 -587,557 -570,994zm1503 -126c-7,189 -34,365 -164,505 -57,62 -138,125 -218,142 -482,106 -913,-328 -796,-792 42,-169 141,-301 285,-403 285,-202 647,-116 793,198 50,110 67,234 100,350z"/>
  <path class="fil15" d="M26284 19741c-79,3 -91,4 -102,4 -345,11 -391,70 -323,401 62,294 115,590 178,885 149,687 599,832 1135,795 373,-25 640,-192 830,-500 183,-293 249,-618 270,-955 7,-115 -31,-218 -89,-317 -56,-94 -132,-129 -248,-139 -405,-32 -809,-81 -1213,-125 -169,-18 -336,-37 -438,-49zm1654 601c24,230 -28,436 -113,631 -172,400 -383,587 -935,535 -270,-26 -443,-163 -506,-420 -68,-282 -123,-566 -180,-850 -10,-51 -2,-104 -3,-174 88,3 154,-1 219,8 314,40 626,93 942,120 194,16 378,49 576,150z"/>
  <path class="fil15" d="M24257 17174c17,268 185,432 415,439 245,7 440,-148 471,-385 9,-65 4,-134 -6,-198 -34,-224 -125,-336 -288,-363 -206,-33 -379,14 -498,198 -70,107 -101,221 -94,309z"/>
  <path class="fil15" d="M29542 18344c11,301 224,500 522,492 298,-9 525,-217 511,-469 -16,-280 -287,-543 -552,-537 -240,6 -491,273 -481,514z"/>
  <path class="fil16" d="M12653 27151c-100,45 -202,93 -305,136 -263,112 -536,37 -696,-198 -52,-77 -87,-167 -127,-252 -24,-51 -38,-107 -63,-158 -49,-97 -154,-122 -234,-53 -50,42 -89,98 -140,140 -213,173 -527,156 -716,-44 -176,-186 -258,-417 -261,-671 -2,-122 25,-244 42,-365 7,-47 32,-92 33,-137 0,-44 -9,-102 -37,-126 -28,-24 -90,-29 -128,-14 -70,25 -132,70 -198,107 -153,85 -317,109 -489,90 -337,-38 -511,-226 -501,-565 3,-112 35,-223 57,-334 7,-36 35,-72 32,-106 -3,-43 -20,-93 -48,-122 -19,-20 -72,-21 -104,-11 -43,14 -80,48 -121,70 -150,78 -295,170 -452,228 -453,167 -814,-81 -838,-572 -6,-111 21,-224 36,-336 7,-46 36,-92 31,-136 -3,-41 -30,-96 -62,-112 -33,-17 -88,0 -129,14 -22,8 -35,42 -53,64 -185,234 -441,345 -716,423 -18,6 -37,9 -55,12 -382,56 -643,-156 -662,-546 -9,-180 2,-360 55,-535 22,-71 35,-148 38,-223 3,-96 -98,-152 -180,-102 -55,35 -101,85 -156,120 -119,75 -236,154 -362,215 -131,63 -272,56 -414,25 -213,-45 -339,-169 -355,-446 -16,-267 88,-499 255,-704 44,-55 102,-77 172,-83 97,-10 183,-50 237,-135 23,-36 41,-87 35,-128 -7,-63 -66,-96 -123,-96 -63,-1 -133,8 -189,36 -99,50 -192,74 -292,11 -116,-75 -198,-177 -215,-318 -31,-257 23,-489 214,-677 189,-185 417,-294 674,-325 204,-25 411,-21 616,-29 38,-1 76,7 112,2 94,-11 161,-93 124,-179 -61,-143 -13,-262 47,-379 157,-312 390,-556 690,-730 87,-51 190,-83 290,-100 309,-54 474,29 632,301 178,305 212,317 484,103 223,-176 471,-264 753,-275 207,-8 414,-22 616,28 126,31 253,76 364,142 170,102 268,261 264,470 -1,48 -11,97 -1,142 11,42 33,92 66,116 50,35 107,13 153,-29 13,-13 28,-25 40,-40 236,-281 550,-308 876,-254 224,36 425,141 600,295 173,151 263,337 265,571 3,316 6,319 298,402 360,101 674,284 948,536 75,69 145,150 196,239 113,197 86,353 -71,515 -32,33 -73,60 -104,94 -77,84 -69,182 23,243 54,36 115,62 173,95 173,96 335,209 471,355 64,68 128,142 173,223 107,190 99,381 -38,556 -47,59 -100,113 -150,170 -105,122 -117,255 -36,393 57,98 122,191 182,287 61,96 125,190 176,290 32,66 50,142 63,216 16,93 -23,169 -111,207 -77,34 -158,60 -239,85 -71,22 -147,32 -217,58 -169,63 -222,199 -140,364 33,67 79,127 124,188 50,69 107,133 156,202 184,262 179,453 -29,691 -240,275 -534,444 -911,431 -74,-3 -150,16 -223,8 -65,-10 -125,-41 -195,-64z"/>
  <path class="fil17" d="M4527 23270c338,125 654,82 981,-121 -2,155 -3,255 -6,355 -5,175 28,341 113,493 112,201 277,327 509,362 230,36 448,-3 659,-95 93,-40 185,-79 298,-127 16,62 27,105 38,148 18,73 30,149 57,220 167,445 503,644 1012,524 117,-27 229,-81 363,-130 9,60 20,110 25,161 49,534 304,778 840,789 139,3 278,-22 427,-36 58,69 24,157 23,236 -3,236 65,451 181,649 112,192 264,339 489,402 200,55 389,45 573,-52 56,-29 112,-60 176,-95 53,91 97,174 148,253 162,246 389,375 683,385 127,4 243,-25 351,-87 65,-37 127,-77 186,-113 69,38 41,86 26,125 -131,326 -301,633 -499,922 -235,342 -477,680 -764,982 -434,455 -921,838 -1498,1091 -497,218 -1015,324 -1562,305 -509,-18 -1010,-79 -1506,-191 -556,-127 -1056,-370 -1530,-694 -479,-327 -838,-754 -1139,-1239 -348,-560 -497,-1185 -536,-1836 -44,-732 25,-1458 197,-2172 119,-501 359,-1005 685,-1414zm1510 4505c-9,277 19,550 84,817 102,423 514,800 922,857 495,70 895,-89 1154,-527 163,-275 297,-569 424,-863 93,-214 34,-333 -175,-436 -59,-29 -121,-51 -183,-70 -179,-56 -359,-110 -539,-163 -496,-146 -1013,-184 -1520,-276 -30,-5 -97,43 -101,74 -29,194 -46,391 -66,587zm-192 -1945c-3,-33 -6,-80 -14,-126 -21,-131 -83,-235 -210,-279 -142,-49 -280,-23 -396,76 -149,128 -210,459 -116,631 69,128 177,190 324,178 223,-18 403,-221 412,-480zm3649 1478c-26,217 130,463 305,481 174,19 399,-142 422,-302 31,-217 -117,-437 -314,-468 -210,-32 -389,94 -413,289z"/>
  <path class="fil12" d="M11008 37592c-168,133 -573,332 -751,370 -150,31 -234,-1 -303,-136 -48,-92 -86,-190 -119,-289 -42,-125 -74,-254 -113,-381 -52,-166 -84,-190 -259,-201 -47,-3 -94,-9 -140,-5 -417,36 -822,-51 -1229,-116 -222,-35 -446,-63 -667,-100 -139,-23 -278,-46 -413,-85 -111,-33 -196,2 -253,114 -21,43 -35,88 -55,131 -139,300 -273,602 -422,898 -130,258 -172,276 -444,196 -251,-74 -497,-165 -726,-242 -56,-101 -32,-175 -3,-244 46,-113 102,-223 156,-334 126,-265 252,-529 379,-793 53,-110 110,-217 172,-337 190,24 364,50 540,70 1019,111 2039,191 3061,44 276,-39 545,-129 843,-201 23,32 68,79 93,135 220,481 436,965 652,1448 5,18 0,39 1,58z"/>
  <path class="fil18" d="M5706 34619c0,-315 66,-626 121,-939 144,-20 261,11 378,45 570,167 1155,241 1746,265 197,8 393,7 587,-36 275,-62 553,-95 834,-116 213,-15 423,-66 635,-101 88,174 220,734 240,1033 -718,261 -1459,306 -2211,218 -633,-73 -1266,-150 -1897,-230 -146,-18 -301,-20 -433,-139z"/>
  <path class="fil19" d="M5878 33372c19,-269 64,-533 121,-802 445,56 862,102 1278,161 412,58 821,65 1231,-3 56,-9 112,-19 168,-20 364,-6 728,-10 1105,-15 92,225 128,467 191,716 -46,31 -86,71 -134,89 -141,54 -285,83 -437,94 -252,18 -506,37 -752,90 -326,69 -649,73 -978,49 -581,-42 -1146,-173 -1709,-318 -26,-5 -49,-23 -84,-41z"/>
  <path class="fil19" d="M5607 35710c-7,-282 8,-524 54,-778 130,21 248,44 367,59 539,70 1078,148 1619,205 392,42 786,71 1180,76 394,5 786,-53 1168,-157 99,-27 194,-58 289,-50 14,18 25,25 26,33 75,555 26,537 -422,693 -184,65 -380,101 -575,128 -653,91 -1309,76 -1967,34 -487,-31 -973,-76 -1453,-166 -90,-17 -178,-48 -286,-77z"/>
  <path class="fil17" d="M15678 28095c57,112 28,202 -9,290 -26,61 -61,118 -86,179 -22,56 -20,119 34,152 34,20 91,25 129,12 88,-31 170,-81 257,-115 51,-20 108,-24 155,-34 79,59 59,126 32,185 -48,107 -132,182 -234,237 -58,31 -117,58 -175,91 -51,30 -93,77 -75,137 11,40 48,84 85,102 75,37 160,53 237,86 66,29 141,55 159,140 -64,95 -170,76 -256,105 -62,19 -130,23 -190,45 -77,27 -104,117 -60,188 35,56 80,105 115,161 20,31 29,69 42,102 -99,123 -211,139 -354,93 -249,-80 -458,-213 -629,-411 -18,-21 -39,-42 -52,-66 -209,-414 -415,-827 -346,-1316 17,-124 50,-241 113,-348 23,-38 61,-67 94,-103 180,85 238,245 293,405 22,62 29,130 55,189 32,72 146,75 186,6 27,-49 41,-105 63,-156 83,-200 187,-291 417,-356z"/>
  <path class="fil17" d="M886 25844c212,74 431,261 562,483 28,48 46,103 74,153 29,52 73,88 137,78 67,-12 87,-64 89,-125 1,-56 -8,-114 0,-169 28,-208 222,-372 433,-372 72,0 133,45 132,117 -2,113 0,231 -33,336 -72,224 -164,442 -252,661 -42,106 -96,205 -213,251 -55,22 -70,77 -84,136 -88,352 -415,614 -772,626 -25,1 -51,-16 -94,-30 18,-65 33,-126 55,-185 16,-44 50,-83 59,-127 10,-42 9,-95 -9,-131 -30,-59 -92,-57 -149,-44 -55,13 -107,39 -162,47 -112,15 -227,16 -325,-52 -35,-24 -83,-73 -78,-104 8,-49 45,-113 87,-130 75,-31 163,-28 244,-46 74,-16 102,-133 46,-184 -27,-25 -63,-39 -93,-60 -46,-31 -95,-60 -135,-98 -50,-47 -83,-105 -51,-177 31,-74 81,-135 165,-133 83,1 167,15 248,35 53,13 103,45 153,71 57,30 109,26 154,-19 46,-46 38,-99 10,-155 -65,-135 -133,-270 -190,-409 -36,-87 -28,-90 -8,-244z"/>
  <path class="fil18" d="M9629 31849c82,178 73,358 110,545 -62,20 -113,49 -164,53 -121,7 -244,-2 -365,3 -280,14 -561,29 -841,49 -252,18 -503,46 -757,15 -381,-48 -763,-86 -1145,-129 -138,-15 -276,-36 -411,-105 -2,-196 50,-376 80,-574 53,-1 99,-13 139,-1 678,190 1373,172 2066,167 150,0 300,3 448,20 178,20 354,29 531,-7 99,-20 201,-24 309,-36z"/>
  <path class="fil19" d="M9578 31572c-222,72 -432,95 -649,82 -261,-15 -523,-33 -784,-27 -488,9 -974,6 -1455,-83 -163,-31 -332,-51 -491,-152 34,-210 25,-426 129,-642 1007,270 2018,412 3061,224 89,192 139,389 189,598z"/>
  <path class="fil17" d="M3388 25597c-155,-48 -232,-180 -300,-313 -117,-231 -172,-481 -186,-738 -11,-208 3,-416 61,-620 40,-138 98,-266 199,-371 94,-98 205,-124 334,-82 244,78 382,322 293,559 -176,463 -275,943 -337,1433 -4,28 -11,56 -23,82 -6,17 -23,28 -41,50z"/>
  <path class="fil19" d="M2021 38854c10,-61 15,-119 30,-173 88,-312 228,-600 405,-871 69,-105 169,-142 289,-145 93,-3 163,28 204,118 27,60 58,119 94,175 49,78 54,157 32,245 -24,92 -40,185 -61,277 -68,302 -241,529 -490,704 -111,77 -226,95 -344,30 -119,-64 -164,-176 -162,-309 1,-19 2,-37 3,-51z"/>
  <path class="fil17" d="M12254 28797c147,-244 273,-441 387,-645 109,-197 205,-400 309,-605 168,-15 325,12 474,67 191,71 254,205 205,406 -12,54 -36,108 -64,156 -71,125 -165,231 -282,312 -294,201 -621,295 -1029,309z"/>
  <path class="fil19" d="M13417 38359c110,103 212,200 316,295 155,144 224,325 214,534 -5,113 -17,227 -44,336 -15,60 -62,115 -105,162 -45,50 -130,49 -178,1 -40,-39 -79,-83 -101,-133 -140,-311 -229,-639 -270,-979 -13,-107 30,-183 168,-216z"/>
  <path class="fil20" d="M5024 26035c-423,-225 -966,-137 -1240,277 -197,300 -143,736 54,1034 102,215 297,389 523,448 472,123 890,-155 1078,-581 186,-420 -21,-969 -415,-1178z"/>
  <path class="fil20" d="M11385 28143c-142,-321 -435,-483 -760,-495 -180,-30 -369,-11 -535,58 -518,217 -603,882 -289,1304 284,381 842,523 1250,252 366,-243 514,-711 334,-1119z"/>
  <path class="fil21" d="M4021 23579c102,-170 190,-315 271,-449 -5,-26 -4,-37 -9,-44 -239,-358 -181,-717 -5,-1077 33,-67 73,-132 115,-207 -52,-44 -101,-86 -150,-128 -151,-131 -232,-299 -245,-495 -20,-296 57,-564 264,-784 296,-314 671,-440 1089,-457 103,-4 206,7 294,10 28,-26 51,-36 53,-51 73,-436 327,-757 648,-1035 64,-55 133,-106 204,-151 178,-114 373,-176 585,-183 263,-10 475,91 636,299 52,67 98,136 147,204 35,-17 63,-25 85,-41 541,-402 1140,-391 1749,-230 263,69 463,245 575,507 15,34 32,67 45,94 70,43 114,-9 162,-29 533,-224 1212,-63 1619,400 114,130 188,282 210,457 11,94 22,187 35,292 71,27 140,54 209,78 351,123 665,308 938,561 69,64 135,133 189,209 193,269 198,534 23,819 -15,25 -31,48 -56,85 48,39 93,86 147,118 171,104 324,230 451,382 84,99 161,213 208,333 96,246 59,485 -101,698 -62,82 -129,159 -204,251 59,93 112,181 166,268 70,112 146,221 209,337 40,74 72,155 91,238 69,292 -24,472 -302,586 -77,32 -162,47 -243,72 -52,16 -103,38 -167,62 36,60 61,109 93,154 50,69 106,133 156,202 254,354 241,680 -41,1008 -118,137 -254,253 -413,340 -55,31 -109,68 -164,103 21,25 31,42 45,52 116,85 221,177 243,332 26,184 4,359 -90,522 -131,228 -316,400 -549,516 -289,144 -592,239 -920,232 -74,-1 -149,-6 -236,-9 -53,60 -111,122 -164,187 -497,621 -1088,1124 -1798,1480 -16,8 -29,24 -59,49 38,27 68,60 104,72 704,239 1417,264 2137,81 669,-169 1302,-427 1891,-792 121,-75 235,-155 330,-292 -59,-150 -124,-306 -184,-463 -132,-343 -188,-694 -100,-1058 36,-149 90,-291 188,-409 136,-163 310,-181 468,-37 88,80 160,180 246,278 63,-52 116,-106 178,-146 79,-49 161,-103 248,-129 205,-57 352,46 385,259 10,64 7,131 12,208 75,3 146,5 217,9 161,7 240,73 277,229 37,161 -15,300 -108,426 -50,67 -107,127 -171,203 64,54 123,98 174,149 174,177 146,373 -71,484 -73,38 -153,63 -232,95 16,111 42,211 44,312 2,155 -42,194 -181,248 -327,126 -608,2 -880,-160 -119,-71 -224,-168 -346,-261 -105,79 -204,165 -313,233 -801,497 -1661,838 -2599,957 -609,78 -1197,-17 -1772,-218 -96,-33 -191,-67 -314,-111 2,70 -7,118 6,156 153,430 217,879 304,1326 114,585 261,1164 388,1746 68,314 131,630 180,949 32,204 47,416 -42,615 -41,90 1,164 38,242 144,309 287,618 429,927 35,77 69,156 101,235 56,140 114,275 242,373 97,75 75,191 -31,258 -127,81 -255,157 -397,244 12,66 17,131 37,191 70,206 134,416 223,614 73,161 164,321 275,459 219,273 523,312 796,95 342,-273 625,-599 781,-1021 85,-231 369,-317 552,-161 142,122 278,256 405,394 63,68 113,154 147,240 116,285 101,576 -2,861 -77,211 -236,318 -424,311 -131,-4 -240,-54 -313,-163 -56,-85 -107,-178 -143,-275 -59,-160 -102,-324 -154,-487 -16,-51 -38,-99 -65,-170 -75,91 -132,166 -195,234 -123,131 -241,266 -375,384 -443,393 -972,259 -1250,-144 -107,-154 -200,-321 -276,-493 -87,-199 -147,-409 -221,-614 -15,-42 -36,-82 -61,-136 -99,32 -186,63 -274,88 -317,90 -527,-4 -666,-307 -50,-111 -85,-230 -125,-346 -34,-98 -65,-197 -100,-304 -67,-10 -132,-34 -194,-28 -371,36 -730,-50 -1091,-101 -306,-43 -608,-119 -918,-137 -93,-6 -183,-30 -290,-48 -26,49 -53,96 -77,144 -148,306 -287,617 -447,917 -164,307 -263,343 -595,271 -63,-14 -127,-24 -193,-36 -75,75 -85,172 -113,260 -64,201 -156,385 -276,557 -271,386 -720,423 -1052,259 -197,-97 -362,-237 -509,-398 -133,-146 -261,-297 -388,-442 -73,-1 -74,52 -83,96 -81,373 -301,647 -608,857 -187,128 -385,147 -583,30 -195,-114 -292,-290 -286,-518 2,-85 7,-172 28,-253 96,-360 255,-691 459,-1002 121,-185 284,-268 500,-250 102,8 203,20 289,28 117,210 223,398 325,588 168,311 393,577 649,816 89,83 191,157 297,215 292,156 571,87 770,-181 161,-217 244,-466 304,-741 -60,-30 -115,-62 -173,-86 -86,-36 -177,-62 -263,-101 -105,-47 -162,-135 -141,-251 22,-120 54,-241 97,-354 47,-124 114,-239 171,-359 155,-323 309,-648 469,-983 -29,-31 -49,-61 -77,-81 -86,-59 -120,-144 -125,-242 -4,-86 -3,-171 4,-256 60,-709 162,-1412 274,-2114 88,-543 171,-1086 257,-1628 31,-195 65,-390 100,-601 -71,-18 -122,-34 -174,-45 -213,-43 -415,-115 -614,-203 -784,-349 -1465,-842 -2045,-1479 -451,-496 -893,-999 -1262,-1562 -5,-8 -15,-11 -24,-16 -73,-14 -94,50 -122,93 -163,252 -414,344 -690,392 -54,10 -112,9 -167,2 -187,-23 -262,-103 -278,-293 -3,-37 2,-74 5,-129 -76,-20 -148,-34 -215,-57 -80,-27 -163,-51 -233,-96 -186,-123 -220,-328 -94,-519 30,-46 70,-86 111,-136 -108,-175 -134,-352 -8,-529 93,-130 155,-162 499,-234 -12,-54 -30,-107 -35,-160 -9,-113 -25,-227 -12,-339 19,-172 135,-244 303,-195 79,23 158,63 226,111 93,64 175,142 262,215 42,35 84,70 132,111 59,-65 109,-120 160,-175 124,-130 281,-188 454,-202 208,-16 357,111 392,323 26,163 2,324 -44,478 -108,363 -243,716 -479,1031 36,167 140,302 238,439 346,486 736,935 1148,1364 214,224 447,433 690,626 406,325 859,576 1341,771 129,53 268,83 405,112 75,16 84,2 166,-135 -53,-34 -103,-73 -159,-100 -377,-178 -725,-408 -1035,-681 -538,-474 -946,-1050 -1181,-1738 -201,-589 -282,-1196 -259,-1818 6,-132 11,-264 16,-397 -524,-243 -666,-713 -732,-1213 -38,-291 -29,-589 70,-872 44,-124 99,-248 174,-354 217,-309 597,-353 887,-111 68,59 129,130 216,218zm8632 3572c70,24 130,54 194,61 73,8 148,-10 223,-8 377,14 671,-155 911,-430 208,-238 213,-429 29,-692 -49,-69 -106,-133 -156,-201 -44,-61 -91,-122 -124,-189 -82,-165 -29,-301 140,-364 70,-25 146,-35 218,-57 80,-25 160,-52 238,-86 88,-38 127,-113 111,-207 -13,-74 -30,-149 -63,-215 -50,-101 -115,-196 -176,-291 -59,-96 -125,-189 -182,-286 -81,-138 -70,-271 36,-393 50,-57 103,-111 150,-170 138,-177 145,-366 38,-557 -45,-81 -109,-154 -173,-222 -136,-146 -298,-259 -471,-356 -58,-32 -119,-58 -173,-95 -91,-61 -100,-158 -23,-242 32,-35 72,-61 104,-95 157,-162 184,-317 71,-515 -51,-88 -122,-169 -196,-238 -274,-253 -589,-436 -948,-537 -292,-82 -295,-85 -298,-402 -1,-233 -92,-419 -265,-571 -175,-153 -376,-258 -600,-295 -326,-53 -640,-27 -876,255 -12,14 -27,26 -40,39 -45,42 -103,64 -153,29 -33,-23 -55,-74 -66,-116 -10,-45 0,-94 1,-141 4,-210 -94,-369 -264,-471 -111,-66 -238,-110 -364,-141 -202,-51 -409,-37 -616,-29 -282,12 -530,99 -753,275 -272,214 -306,202 -484,-103 -158,-272 -323,-355 -632,-300 -100,17 -203,49 -290,99 -300,174 -533,418 -690,730 -60,118 -108,237 -47,379 38,87 -30,169 -124,179 -37,5 -74,-3 -112,-2 -205,9 -412,5 -616,30 -257,31 -485,139 -674,325 -191,187 -245,420 -214,677 17,140 98,243 215,317 100,63 193,40 292,-10 56,-28 126,-38 189,-37 57,1 116,34 123,97 5,41 -12,92 -35,128 -55,84 -140,125 -237,134 -70,7 -127,28 -172,83 -167,205 -271,438 -255,704 17,277 143,400 355,446 142,31 283,38 414,-25 126,-61 244,-140 362,-215 55,-35 101,-85 157,-119 81,-51 182,6 179,102 -3,74 -16,151 -38,222 -53,176 -64,356 -55,535 19,391 280,602 662,546 19,-2 37,-6 55,-11 275,-79 532,-189 716,-424 18,-22 31,-56 53,-63 41,-15 96,-32 130,-15 31,16 58,72 61,112 5,44 -24,90 -30,136 -16,112 -43,226 -37,337 24,490 385,738 838,572 157,-58 302,-150 452,-229 41,-21 78,-56 121,-69 32,-10 85,-10 104,10 28,29 45,80 48,122 3,35 -25,70 -32,107 -22,110 -54,222 -57,333 -9,339 164,527 501,565 172,20 336,-4 489,-90 66,-37 129,-81 198,-107 38,-14 100,-9 128,15 28,24 38,82 37,125 0,46 -26,91 -33,137 -17,122 -44,244 -42,365 3,254 85,485 262,671 188,200 503,218 715,44 51,-42 90,-97 140,-140 80,-68 185,-44 234,54 25,50 39,106 63,157 40,86 75,175 127,252 160,235 434,310 696,199 105,-42 207,-89 306,-134zm-8126 -3881c-325,409 -565,913 -686,1414 -171,715 -240,1440 -196,2172 39,651 188,1276 535,1836 301,485 661,912 1140,1240 473,323 974,567 1530,693 496,113 997,173 1506,191 547,19 1065,-87 1562,-305 577,-253 1064,-635 1498,-1091 287,-302 529,-640 763,-982 198,-289 368,-596 499,-922 16,-38 44,-87 -25,-125 -59,36 -121,76 -186,113 -109,62 -225,91 -351,87 -294,-10 -522,-139 -683,-385 -52,-79 -96,-162 -149,-253 -63,35 -119,66 -176,96 -184,97 -372,106 -573,51 -225,-63 -376,-210 -489,-402 -116,-199 -183,-414 -180,-649 1,-78 35,-166 -23,-235 -150,13 -289,38 -428,35 -536,-11 -790,-255 -840,-789 -4,-51 -15,-101 -25,-161 -134,49 -245,103 -363,131 -509,119 -844,-81 -1012,-525 -26,-71 -38,-146 -57,-220 -11,-43 -22,-86 -38,-148 -111,48 -204,87 -297,127 -211,92 -428,131 -660,96 -232,-36 -396,-162 -508,-363 -85,-152 -118,-319 -113,-492 3,-101 3,-201 6,-356 -327,203 -643,246 -981,121zm6481 14322c-1,-19 4,-40 -3,-56 -215,-483 -431,-966 -651,-1448 -25,-56 -70,-103 -93,-135 -297,73 -567,162 -844,201 -1021,147 -2041,67 -3060,-44 -176,-20 -351,-46 -540,-70 -61,120 -119,227 -172,337 -128,264 -253,529 -380,793 -52,111 -108,221 -156,335 -28,69 -52,143 4,243 229,77 475,168 726,242 272,80 314,62 444,-196 148,-295 282,-598 422,-898 19,-43 33,-88 55,-130 57,-113 142,-148 253,-115 135,39 274,63 413,85 221,37 445,65 667,100 407,65 812,152 1228,116 47,-4 94,2 141,5 175,11 208,35 259,202 39,126 71,255 113,380 33,98 71,197 119,289 69,135 153,167 303,136 178,-40 584,-239 752,-372zm-5302 -2973c132,119 287,121 433,140 632,80 1264,157 1896,231 753,87 1493,42 2211,-219 -19,-299 -151,-860 -239,-1033 -213,35 -423,86 -635,101 -281,21 -559,54 -834,116 -194,44 -390,44 -587,37 -591,-26 -1176,-99 -1746,-266 -117,-34 -234,-64 -378,-45 -55,312 -121,623 -121,938zm172 -1247c36,18 59,36 84,42 563,144 1128,275 1709,318 329,24 652,20 978,-50 246,-52 500,-71 752,-89 152,-12 296,-41 437,-94 48,-19 88,-59 134,-90 -63,-248 -99,-490 -191,-715 -377,5 -741,9 -1105,14 -56,1 -112,11 -168,21 -410,67 -820,60 -1231,2 -416,-58 -833,-105 -1278,-160 -57,268 -102,532 -121,801zm-271 2338c108,29 196,60 287,77 480,90 966,135 1453,165 657,42 1313,57 1967,-33 194,-27 390,-64 575,-128 448,-157 497,-138 421,-694 -1,-8 -10,-15 -25,-33 -95,-7 -191,23 -289,50 -383,105 -774,163 -1169,157 -393,-5 -787,-34 -1179,-75 -541,-58 -1080,-135 -1620,-205 -119,-16 -236,-38 -366,-59 -47,254 -61,496 -55,778zm10071 -7614c-230,64 -335,155 -417,354 -21,51 -35,108 -62,156 -40,69 -153,66 -186,-6 -26,-60 -34,-127 -55,-189 -56,-160 -113,-320 -293,-405 -34,36 -72,65 -94,103 -63,107 -96,223 -113,348 -69,489 137,902 346,1316 12,24 33,45 52,66 170,198 380,330 628,411 144,46 256,30 355,-93 -14,-33 -22,-71 -42,-102 -35,-56 -80,-105 -115,-161 -44,-71 -17,-161 59,-188 61,-22 129,-26 190,-45 86,-28 192,-9 257,-105 -19,-85 -93,-111 -159,-140 -77,-33 -162,-49 -238,-86 -36,-18 -73,-62 -84,-102 -18,-60 23,-108 75,-137 57,-33 117,-60 175,-91 102,-55 186,-130 234,-237 26,-59 46,-126 -33,-185 -46,10 -104,14 -155,34 -87,34 -168,84 -257,115 -37,13 -94,8 -128,-12 -54,-33 -57,-96 -34,-152 24,-61 60,-118 86,-179 37,-87 66,-177 8,-288zm-14792 -2252c-21,153 -28,157 8,243 57,139 124,273 190,408 28,57 35,110 -11,156 -44,44 -97,49 -154,19 -49,-26 -99,-58 -152,-71 -81,-20 -166,-34 -248,-35 -85,-2 -134,59 -166,133 -31,72 2,130 51,177 40,38 89,67 136,98 30,21 66,35 92,59 57,52 28,169 -46,185 -80,18 -168,15 -243,46 -42,16 -80,81 -87,129 -5,31 42,81 78,105 98,68 212,68 325,52 55,-8 107,-34 161,-47 57,-13 120,-15 149,44 19,36 19,89 10,131 -10,44 -44,83 -60,127 -21,58 -35,120 -54,185 42,14 68,31 93,30 358,-12 684,-274 772,-626 16,-58 29,-114 85,-136 117,-47 170,-145 213,-251 87,-219 179,-437 251,-661 34,-105 32,-223 33,-336 2,-72 -60,-117 -132,-117 -211,0 -404,164 -432,372 -8,55 1,113 0,169 -1,62 -22,113 -89,125 -64,10 -108,-26 -138,-79 -28,-49 -45,-103 -74,-152 -130,-221 -349,-407 -561,-482zm8743 6006c-107,11 -209,15 -308,35 -178,36 -353,27 -531,7 -148,-17 -299,-20 -448,-19 -693,5 -1387,22 -2066,-168 -40,-11 -86,0 -139,1 -30,198 -82,378 -80,574 135,69 272,90 411,105 382,43 764,81 1145,129 254,31 505,3 757,-15 280,-20 561,-35 841,-49 121,-6 244,4 365,-3 52,-3 101,-32 164,-53 -38,-187 -29,-367 -111,-544zm-50 -278c-51,-209 -101,-406 -190,-599 -1043,189 -2054,47 -3061,-224 -104,216 -94,432 -129,643 160,101 328,121 491,152 481,89 967,92 1455,82 261,-5 523,12 784,28 218,13 427,-10 650,-82zm-6191 -5975c18,-22 35,-34 42,-50 11,-26 19,-54 22,-81 63,-490 162,-970 337,-1434 90,-237 -49,-481 -292,-559 -129,-41 -241,-15 -335,83 -100,105 -159,233 -198,371 -58,203 -72,411 -61,620 13,257 69,507 186,737 67,134 144,265 299,313zm-1367 13257c-1,14 -2,33 -2,51 -3,133 42,245 161,310 118,64 234,46 345,-31 248,-175 421,-402 490,-704 21,-92 36,-185 60,-277 23,-87 17,-167 -32,-245 -35,-56 -66,-114 -94,-175 -41,-89 -111,-120 -204,-118 -119,2 -219,40 -288,146 -177,270 -317,558 -405,870 -16,54 -21,112 -31,173zm10233 -10057c408,-14 735,-107 1029,-310 118,-81 211,-187 282,-311 28,-49 52,-102 65,-156 48,-202 -15,-336 -206,-406 -148,-55 -305,-82 -473,-68 -104,205 -200,409 -310,605 -114,205 -240,403 -387,646zm1163 9562c-138,33 -181,109 -168,216 40,340 129,668 269,979 22,50 62,94 101,133 49,48 135,49 179,-1 43,-48 90,-103 105,-162 27,-109 38,-223 44,-336 10,-209 -59,-390 -215,-534 -103,-95 -205,-191 -315,-295z"/>
  <path class="fil21" d="M6037 27775c21,-196 38,-393 67,-588 4,-30 71,-79 101,-73 506,92 1023,130 1520,276 180,52 359,106 538,162 62,20 125,42 184,70 208,103 267,222 175,437 -128,294 -262,588 -425,863 -258,437 -658,597 -1153,527 -409,-57 -820,-434 -923,-857 -65,-267 -93,-540 -84,-817zm2361 111c-48,-27 -86,-56 -129,-71 -587,-203 -1189,-342 -1807,-403 -92,-8 -140,28 -150,128 -30,303 -31,604 26,905 67,348 276,572 583,713 251,115 714,98 971,-235 63,-82 127,-166 174,-258 108,-209 208,-424 307,-638 19,-40 16,-89 25,-141z"/>
  <path class="fil22" d="M8398 27886c-9,52 -6,101 -25,141 -99,214 -199,428 -307,639 -47,91 -111,175 -174,257 -257,333 -721,350 -971,235 -307,-141 -516,-365 -583,-713 -57,-301 -56,-602 -26,-905 10,-99 58,-136 150,-127 618,60 1220,199 1807,402 43,16 81,44 129,71z"/>
  <path class="fil21" d="M5845 25830c-9,259 -189,462 -411,480 -148,12 -256,-50 -325,-178 -93,-172 -32,-503 117,-631 116,-99 254,-126 396,-76 126,44 189,148 210,279 7,46 10,94 13,126z"/>
  <path class="fil21" d="M9495 27308c23,-195 203,-321 412,-289 198,31 345,251 314,468 -23,160 -248,321 -422,302 -175,-18 -331,-264 -304,-481z"/>
 </g>
</svg>
