<?xml version="1.0" encoding="UTF-8"?>
<!DOCTYPE svg PUBLIC "-//W3C//DTD SVG 1.1//EN" "http://www.w3.org/Graphics/SVG/1.1/DTD/svg11.dtd">
<!-- Creator: CorelDRAW X7 -->
<svg xmlns="http://www.w3.org/2000/svg" xml:space="preserve" width="63.5001mm" height="19.5792mm" version="1.1" style="shape-rendering:geometricPrecision; text-rendering:geometricPrecision; image-rendering:optimizeQuality; fill-rule:evenodd; clip-rule:evenodd"
viewBox="0 0 1361 420"
 xmlns:xlink="http://www.w3.org/1999/xlink">
 <defs>
  <style type="text/css">
   <![CDATA[
    .fil1 {fill:#FFD666}
    .fil0 {fill:white}
   ]]>
  </style>
 </defs>
 <g id="Camada_x0020_1">
  <metadata id="CorelCorpID_0Corel-Layer"/>
  <path class="fil0" d="M598 129c-13,0 -29,3 -46,23l0 -56c0,-14 -11,-25 -25,-25 -14,0 -25,11 -25,25l0 181c0,14 11,25 25,25 14,0 25,-11 25,-25l0 -70c0,-20 10,-31 27,-31 17,0 26,10 26,31l0 70c0,14 12,25 25,25 14,0 26,-11 26,-25l0 -85c0,-39 -22,-63 -58,-63zm145 1c-20,0 -37,3 -53,9 -8,3 -13,11 -13,20 0,12 9,21 21,21 2,0 4,0 7,-1 10,-3 20,-5 32,-5 27,0 33,15 33,28 -10,-3 -22,-6 -38,-6 -43,0 -68,20 -68,55l0 0c0,31 23,52 58,52 20,0 35,-6 48,-18 2,9 11,17 24,17 14,0 24,-10 24,-24l0 -75c0,-23 -6,-41 -18,-54 -12,-12 -32,-19 -57,-19zm-7 137c-14,0 -23,-7 -23,-18l0 0c0,-13 11,-21 30,-21 9,0 19,2 27,6l0 7c0,15 -14,26 -34,26zm150 -115c13,-15 29,-23 49,-23 38,0 77,30 77,87l0 1c0,26 -8,48 -23,64 -14,15 -33,22 -54,22 -19,0 -35,-6 -49,-21l0 44c0,14 -11,25 -25,25 -14,0 -25,-11 -25,-25l0 -170c0,-14 11,-26 25,-26 13,0 23,10 25,22zm75 64c0,-25 -16,-43 -38,-43 -21,0 -37,18 -37,43l0 1c0,25 16,43 37,43 22,0 38,-18 38,-43l0 -1zm162 -87c-20,0 -36,8 -49,23 -2,-12 -12,-22 -25,-22 -14,0 -25,12 -25,26l0 170c0,14 11,25 25,25 14,0 25,-11 25,-25l0 -44c14,15 29,21 49,21 20,0 39,-7 53,-22 16,-16 24,-38 24,-64l0 -1c0,-57 -39,-87 -77,-87zm-12 44c22,0 38,18 38,43l0 1c0,25 -16,43 -38,43 -22,0 -37,-18 -37,-43l0 -1c0,-25 15,-43 37,-43zm201 -23c5,-13 14,-20 25,-20 13,0 24,11 24,24 0,4 -2,9 -3,12l-57 137c-14,35 -29,47 -57,47 -10,0 -17,-1 -26,-4 -6,-2 -16,-8 -16,-21 0,-14 10,-21 20,-21 4,0 7,0 9,1 4,1 6,2 9,2 7,0 11,-2 14,-9l2 -3 -56 -129c-1,-3 -2,-8 -2,-11 0,-14 10,-25 24,-25 12,0 20,7 25,19l33 90 32 -89z"/>
  <path class="fil1" d="M363 106l0 149c0,58 -48,106 -107,106l-11 0 -55 55c-2,2 -5,4 -9,4 -3,0 -5,-2 -8,-3l-1 -1 0 0 -54 -55 -11 0c-59,0 -107,-48 -107,-106l0 -149c0,-58 48,-106 107,-106l149 0c59,0 107,48 107,106z"/>
  <path class="fil0" d="M84 205c-10,0 -16,12 -10,21 24,33 63,55 107,55 45,0 84,-22 108,-55 6,-9 0,-21 -11,-21l-194 0z"/>
  <path class="fil0" d="M146 154l-63 0 0 -32c0,-17 14,-31 31,-31 18,0 32,14 32,31l0 32z"/>
  <path class="fil0" d="M280 154l-63 0 0 -32c0,-17 14,-31 31,-31 18,0 32,14 32,31l0 32z"/>
 </g>
</svg>
