<?xml version="1.0" encoding="UTF-8"?>
<!DOCTYPE svg PUBLIC "-//W3C//DTD SVG 1.1//EN" "http://www.w3.org/Graphics/SVG/1.1/DTD/svg11.dtd">
<!-- Creator: CorelDRAW X7 -->
<svg xmlns="http://www.w3.org/2000/svg" xml:space="preserve" width="16.9265mm" height="19.5792mm" version="1.1" style="shape-rendering:geometricPrecision; text-rendering:geometricPrecision; image-rendering:optimizeQuality; fill-rule:evenodd; clip-rule:evenodd"
viewBox="0 0 97 112"
 xmlns:xlink="http://www.w3.org/1999/xlink">
 <defs>
  <style type="text/css">
   <![CDATA[
    .fil0 {fill:#FFD666}
    .fil1 {fill:white}
   ]]>
  </style>
 </defs>
 <g id="Camada_x0020_1">
  <metadata id="CorelCorpID_0Corel-Layer"/>
  <path class="fil0" d="M97 28l0 40c0,16 -13,28 -29,28l-3 0 -14 15c-1,0 -2,1 -3,1 0,0 -1,0 -2,-1l0 0 0 0 -15 -15 -3 0c-15,0 -28,-12 -28,-28l0 -40c0,-15 13,-28 28,-28l40 0c16,0 29,13 29,28z"/>
  <path class="fil1" d="M23 55c-3,0 -5,3 -3,5 6,9 17,15 28,15 12,0 23,-6 29,-15 2,-2 0,-5 -3,-5l-51 0z"/>
  <path class="fil1" d="M39 41l-17 0 0 -8c0,-5 4,-9 8,-9 5,0 9,4 9,9l0 8z"/>
  <path class="fil1" d="M75 41l-17 0 0 -8c0,-5 4,-9 8,-9 5,0 9,4 9,9l0 8z"/>
 </g>
</svg>
